<?xml version="1.0" encoding="utf-8" standalone="no"?>
<!DOCTYPE svg PUBLIC "-//W3C//DTD SVG 1.1//EN"
  "http://www.w3.org/Graphics/SVG/1.1/DTD/svg11.dtd">
<svg height="288pt" version="1.1" viewBox="0 0 432 288" width="432pt" xmlns="http://www.w3.org/2000/svg" xmlns:xlink="http://www.w3.org/1999/xlink">
 <metadata>
  <rdf:RDF xmlns:cc="http://creativecommons.org/ns#" xmlns:dc="http://purl.org/dc/elements/1.1/" xmlns:rdf="http://www.w3.org/1999/02/22-rdf-syntax-ns#">
   <cc:Work>
    <dc:type rdf:resource="http://purl.org/dc/dcmitype/StillImage"/>
    <dc:date>2021-11-26T10:34:32.323658</dc:date>
    <dc:format>image/svg+xml</dc:format>
    <dc:creator>
     <cc:Agent>
      <dc:title>Matplotlib v3.4.2, https://matplotlib.org/</dc:title>
     </cc:Agent>
    </dc:creator>
   </cc:Work>
  </rdf:RDF>
 </metadata>
 <defs>
  <style type="text/css">*{stroke-linecap:butt;stroke-linejoin:round;}</style>
 </defs>
 <g id="figure_1">
  <g id="patch_1">
   <path d="M 0 288 
L 432 288 
L 432 0 
L 0 0 
z
" style="fill:none;"/>
  </g>
  <g id="axes_1">
   <g id="patch_2">
    <path d="M 50.675 233.395806 
L 353.075 233.395806 
L 353.075 26.8 
L 50.675 26.8 
z
" style="fill:#ffffff;"/>
   </g>
   <g id="patch_3">
    <path clip-path="url(#pde8a312751)" d="M 64.420455 233.395806 
L 83.058359 233.395806 
L 83.058359 233.395806 
L 64.420455 233.395806 
z
" style="fill:#006ba4;"/>
   </g>
   <g id="patch_4">
    <path clip-path="url(#pde8a312751)" d="M 87.717835 233.395806 
L 106.35574 233.395806 
L 106.35574 233.395806 
L 87.717835 233.395806 
z
" style="fill:#006ba4;"/>
   </g>
   <g id="patch_5">
    <path clip-path="url(#pde8a312751)" d="M 111.015216 233.395806 
L 129.65312 233.395806 
L 129.65312 233.395806 
L 111.015216 233.395806 
z
" style="fill:#006ba4;"/>
   </g>
   <g id="patch_6">
    <path clip-path="url(#pde8a312751)" d="M 134.312596 233.395806 
L 152.950501 233.395806 
L 152.950501 233.395806 
L 134.312596 233.395806 
z
" style="fill:#006ba4;"/>
   </g>
   <g id="patch_7">
    <path clip-path="url(#pde8a312751)" d="M 157.609977 233.395806 
L 176.247881 233.395806 
L 176.247881 233.395806 
L 157.609977 233.395806 
z
" style="fill:#006ba4;"/>
   </g>
   <g id="patch_8">
    <path clip-path="url(#pde8a312751)" d="M 180.907357 233.395806 
L 199.545262 233.395806 
L 199.545262 233.395806 
L 180.907357 233.395806 
z
" style="fill:#006ba4;"/>
   </g>
   <g id="patch_9">
    <path clip-path="url(#pde8a312751)" d="M 204.204738 233.395806 
L 222.842643 233.395806 
L 222.842643 233.395806 
L 204.204738 233.395806 
z
" style="fill:#006ba4;"/>
   </g>
   <g id="patch_10">
    <path clip-path="url(#pde8a312751)" d="M 227.502119 233.395806 
L 246.140023 233.395806 
L 246.140023 233.395806 
L 227.502119 233.395806 
z
" style="fill:#006ba4;"/>
   </g>
   <g id="patch_11">
    <path clip-path="url(#pde8a312751)" d="M 250.799499 233.395806 
L 269.437404 233.395806 
L 269.437404 233.395806 
L 250.799499 233.395806 
z
" style="fill:#006ba4;"/>
   </g>
   <g id="patch_12">
    <path clip-path="url(#pde8a312751)" d="M 274.09688 233.395806 
L 292.734784 233.395806 
L 292.734784 232.973579 
L 274.09688 232.973579 
z
" style="fill:#006ba4;"/>
   </g>
   <g id="patch_13">
    <path clip-path="url(#pde8a312751)" d="M 297.39426 233.395806 
L 316.032165 233.395806 
L 316.032165 233.395806 
L 297.39426 233.395806 
z
" style="fill:#006ba4;"/>
   </g>
   <g id="patch_14">
    <path clip-path="url(#pde8a312751)" d="M 320.691641 233.395806 
L 339.329545 233.395806 
L 339.329545 233.395806 
L 320.691641 233.395806 
z
" style="fill:#006ba4;"/>
   </g>
   <g id="patch_15">
    <path clip-path="url(#pde8a312751)" d="M 64.420455 233.395806 
L 83.058359 233.395806 
L 83.058359 222.840124 
L 64.420455 222.840124 
z
" style="fill:#ff800e;"/>
   </g>
   <g id="patch_16">
    <path clip-path="url(#pde8a312751)" d="M 87.717835 233.395806 
L 106.35574 233.395806 
L 106.35574 232.551352 
L 87.717835 232.551352 
z
" style="fill:#ff800e;"/>
   </g>
   <g id="patch_17">
    <path clip-path="url(#pde8a312751)" d="M 111.015216 233.395806 
L 129.65312 233.395806 
L 129.65312 233.395806 
L 111.015216 233.395806 
z
" style="fill:#ff800e;"/>
   </g>
   <g id="patch_18">
    <path clip-path="url(#pde8a312751)" d="M 134.312596 233.395806 
L 152.950501 233.395806 
L 152.950501 231.28467 
L 134.312596 231.28467 
z
" style="fill:#ff800e;"/>
   </g>
   <g id="patch_19">
    <path clip-path="url(#pde8a312751)" d="M 157.609977 233.395806 
L 176.247881 233.395806 
L 176.247881 232.129124 
L 157.609977 232.129124 
z
" style="fill:#ff800e;"/>
   </g>
   <g id="patch_20">
    <path clip-path="url(#pde8a312751)" d="M 180.907357 233.395806 
L 199.545262 233.395806 
L 199.545262 231.706897 
L 180.907357 231.706897 
z
" style="fill:#ff800e;"/>
   </g>
   <g id="patch_21">
    <path clip-path="url(#pde8a312751)" d="M 204.204738 233.395806 
L 222.842643 233.395806 
L 222.842643 229.173534 
L 204.204738 229.173534 
z
" style="fill:#ff800e;"/>
   </g>
   <g id="patch_22">
    <path clip-path="url(#pde8a312751)" d="M 227.502119 233.395806 
L 246.140023 233.395806 
L 246.140023 231.706897 
L 227.502119 231.706897 
z
" style="fill:#ff800e;"/>
   </g>
   <g id="patch_23">
    <path clip-path="url(#pde8a312751)" d="M 250.799499 233.395806 
L 269.437404 233.395806 
L 269.437404 230.862443 
L 250.799499 230.862443 
z
" style="fill:#ff800e;"/>
   </g>
   <g id="patch_24">
    <path clip-path="url(#pde8a312751)" d="M 274.09688 232.973579 
L 292.734784 232.973579 
L 292.734784 232.551352 
L 274.09688 232.551352 
z
" style="fill:#ff800e;"/>
   </g>
   <g id="patch_25">
    <path clip-path="url(#pde8a312751)" d="M 297.39426 233.395806 
L 316.032165 233.395806 
L 316.032165 229.173534 
L 297.39426 229.173534 
z
" style="fill:#ff800e;"/>
   </g>
   <g id="patch_26">
    <path clip-path="url(#pde8a312751)" d="M 320.691641 233.395806 
L 339.329545 233.395806 
L 339.329545 233.395806 
L 320.691641 233.395806 
z
" style="fill:#ff800e;"/>
   </g>
   <g id="patch_27">
    <path clip-path="url(#pde8a312751)" d="M 64.420455 222.840124 
L 83.058359 222.840124 
L 83.058359 215.662261 
L 64.420455 215.662261 
z
" style="fill:#ababab;"/>
   </g>
   <g id="patch_28">
    <path clip-path="url(#pde8a312751)" d="M 87.717835 232.551352 
L 106.35574 232.551352 
L 106.35574 232.129124 
L 87.717835 232.129124 
z
" style="fill:#ababab;"/>
   </g>
   <g id="patch_29">
    <path clip-path="url(#pde8a312751)" d="M 111.015216 233.395806 
L 129.65312 233.395806 
L 129.65312 233.395806 
L 111.015216 233.395806 
z
" style="fill:#ababab;"/>
   </g>
   <g id="patch_30">
    <path clip-path="url(#pde8a312751)" d="M 134.312596 231.28467 
L 152.950501 231.28467 
L 152.950501 230.862443 
L 134.312596 230.862443 
z
" style="fill:#ababab;"/>
   </g>
   <g id="patch_31">
    <path clip-path="url(#pde8a312751)" d="M 157.609977 232.129124 
L 176.247881 232.129124 
L 176.247881 231.706897 
L 157.609977 231.706897 
z
" style="fill:#ababab;"/>
   </g>
   <g id="patch_32">
    <path clip-path="url(#pde8a312751)" d="M 180.907357 231.706897 
L 199.545262 231.706897 
L 199.545262 231.706897 
L 180.907357 231.706897 
z
" style="fill:#ababab;"/>
   </g>
   <g id="patch_33">
    <path clip-path="url(#pde8a312751)" d="M 204.204738 229.173534 
L 222.842643 229.173534 
L 222.842643 228.329079 
L 204.204738 228.329079 
z
" style="fill:#ababab;"/>
   </g>
   <g id="patch_34">
    <path clip-path="url(#pde8a312751)" d="M 227.502119 231.706897 
L 246.140023 231.706897 
L 246.140023 231.706897 
L 227.502119 231.706897 
z
" style="fill:#ababab;"/>
   </g>
   <g id="patch_35">
    <path clip-path="url(#pde8a312751)" d="M 250.799499 230.862443 
L 269.437404 230.862443 
L 269.437404 230.440215 
L 250.799499 230.440215 
z
" style="fill:#ababab;"/>
   </g>
   <g id="patch_36">
    <path clip-path="url(#pde8a312751)" d="M 274.09688 232.551352 
L 292.734784 232.551352 
L 292.734784 231.28467 
L 274.09688 231.28467 
z
" style="fill:#ababab;"/>
   </g>
   <g id="patch_37">
    <path clip-path="url(#pde8a312751)" d="M 297.39426 229.173534 
L 316.032165 229.173534 
L 316.032165 228.329079 
L 297.39426 228.329079 
z
" style="fill:#ababab;"/>
   </g>
   <g id="patch_38">
    <path clip-path="url(#pde8a312751)" d="M 320.691641 233.395806 
L 339.329545 233.395806 
L 339.329545 233.395806 
L 320.691641 233.395806 
z
" style="fill:#ababab;"/>
   </g>
   <g id="patch_39">
    <path clip-path="url(#pde8a312751)" d="M 64.420455 215.662261 
L 83.058359 215.662261 
L 83.058359 170.906169 
L 64.420455 170.906169 
z
" style="fill:#595959;"/>
   </g>
   <g id="patch_40">
    <path clip-path="url(#pde8a312751)" d="M 87.717835 232.129124 
L 106.35574 232.129124 
L 106.35574 227.484624 
L 87.717835 227.484624 
z
" style="fill:#595959;"/>
   </g>
   <g id="patch_41">
    <path clip-path="url(#pde8a312751)" d="M 111.015216 233.395806 
L 129.65312 233.395806 
L 129.65312 228.329079 
L 111.015216 228.329079 
z
" style="fill:#595959;"/>
   </g>
   <g id="patch_42">
    <path clip-path="url(#pde8a312751)" d="M 134.312596 230.862443 
L 152.950501 230.862443 
L 152.950501 225.373488 
L 134.312596 225.373488 
z
" style="fill:#595959;"/>
   </g>
   <g id="patch_43">
    <path clip-path="url(#pde8a312751)" d="M 157.609977 231.706897 
L 176.247881 231.706897 
L 176.247881 228.751306 
L 157.609977 228.751306 
z
" style="fill:#595959;"/>
   </g>
   <g id="patch_44">
    <path clip-path="url(#pde8a312751)" d="M 180.907357 231.706897 
L 199.545262 231.706897 
L 199.545262 225.373488 
L 180.907357 225.373488 
z
" style="fill:#595959;"/>
   </g>
   <g id="patch_45">
    <path clip-path="url(#pde8a312751)" d="M 204.204738 228.329079 
L 222.842643 228.329079 
L 222.842643 220.728988 
L 204.204738 220.728988 
z
" style="fill:#595959;"/>
   </g>
   <g id="patch_46">
    <path clip-path="url(#pde8a312751)" d="M 227.502119 231.706897 
L 246.140023 231.706897 
L 246.140023 227.484624 
L 227.502119 227.484624 
z
" style="fill:#595959;"/>
   </g>
   <g id="patch_47">
    <path clip-path="url(#pde8a312751)" d="M 250.799499 230.440215 
L 269.437404 230.440215 
L 269.437404 228.329079 
L 250.799499 228.329079 
z
" style="fill:#595959;"/>
   </g>
   <g id="patch_48">
    <path clip-path="url(#pde8a312751)" d="M 274.09688 231.28467 
L 292.734784 231.28467 
L 292.734784 224.951261 
L 274.09688 224.951261 
z
" style="fill:#595959;"/>
   </g>
   <g id="patch_49">
    <path clip-path="url(#pde8a312751)" d="M 297.39426 228.329079 
L 316.032165 228.329079 
L 316.032165 224.529034 
L 297.39426 224.529034 
z
" style="fill:#595959;"/>
   </g>
   <g id="patch_50">
    <path clip-path="url(#pde8a312751)" d="M 320.691641 233.395806 
L 339.329545 233.395806 
L 339.329545 230.440215 
L 320.691641 230.440215 
z
" style="fill:#595959;"/>
   </g>
   <g id="patch_51">
    <path clip-path="url(#pde8a312751)" d="M 64.420455 170.906169 
L 83.058359 170.906169 
L 83.058359 162.039397 
L 64.420455 162.039397 
z
" style="fill:#5f9ed1;"/>
   </g>
   <g id="patch_52">
    <path clip-path="url(#pde8a312751)" d="M 87.717835 227.484624 
L 106.35574 227.484624 
L 106.35574 225.795715 
L 87.717835 225.795715 
z
" style="fill:#5f9ed1;"/>
   </g>
   <g id="patch_53">
    <path clip-path="url(#pde8a312751)" d="M 111.015216 228.329079 
L 129.65312 228.329079 
L 129.65312 228.329079 
L 111.015216 228.329079 
z
" style="fill:#5f9ed1;"/>
   </g>
   <g id="patch_54">
    <path clip-path="url(#pde8a312751)" d="M 134.312596 225.373488 
L 152.950501 225.373488 
L 152.950501 224.529034 
L 134.312596 224.529034 
z
" style="fill:#5f9ed1;"/>
   </g>
   <g id="patch_55">
    <path clip-path="url(#pde8a312751)" d="M 157.609977 228.751306 
L 176.247881 228.751306 
L 176.247881 228.751306 
L 157.609977 228.751306 
z
" style="fill:#5f9ed1;"/>
   </g>
   <g id="patch_56">
    <path clip-path="url(#pde8a312751)" d="M 180.907357 225.373488 
L 199.545262 225.373488 
L 199.545262 225.373488 
L 180.907357 225.373488 
z
" style="fill:#5f9ed1;"/>
   </g>
   <g id="patch_57">
    <path clip-path="url(#pde8a312751)" d="M 204.204738 220.728988 
L 222.842643 220.728988 
L 222.842643 216.928943 
L 204.204738 216.928943 
z
" style="fill:#5f9ed1;"/>
   </g>
   <g id="patch_58">
    <path clip-path="url(#pde8a312751)" d="M 227.502119 227.484624 
L 246.140023 227.484624 
L 246.140023 227.484624 
L 227.502119 227.484624 
z
" style="fill:#5f9ed1;"/>
   </g>
   <g id="patch_59">
    <path clip-path="url(#pde8a312751)" d="M 250.799499 228.329079 
L 269.437404 228.329079 
L 269.437404 227.906852 
L 250.799499 227.906852 
z
" style="fill:#5f9ed1;"/>
   </g>
   <g id="patch_60">
    <path clip-path="url(#pde8a312751)" d="M 274.09688 224.951261 
L 292.734784 224.951261 
L 292.734784 224.106806 
L 274.09688 224.106806 
z
" style="fill:#5f9ed1;"/>
   </g>
   <g id="patch_61">
    <path clip-path="url(#pde8a312751)" d="M 297.39426 224.529034 
L 316.032165 224.529034 
L 316.032165 223.262352 
L 297.39426 223.262352 
z
" style="fill:#5f9ed1;"/>
   </g>
   <g id="patch_62">
    <path clip-path="url(#pde8a312751)" d="M 320.691641 230.440215 
L 339.329545 230.440215 
L 339.329545 229.595761 
L 320.691641 229.595761 
z
" style="fill:#5f9ed1;"/>
   </g>
   <g id="patch_63">
    <path clip-path="url(#pde8a312751)" d="M 64.420455 162.039397 
L 83.058359 162.039397 
L 83.058359 162.039397 
L 64.420455 162.039397 
z
" style="fill:#c85200;"/>
   </g>
   <g id="patch_64">
    <path clip-path="url(#pde8a312751)" d="M 87.717835 225.795715 
L 106.35574 225.795715 
L 106.35574 225.795715 
L 87.717835 225.795715 
z
" style="fill:#c85200;"/>
   </g>
   <g id="patch_65">
    <path clip-path="url(#pde8a312751)" d="M 111.015216 228.329079 
L 129.65312 228.329079 
L 129.65312 228.329079 
L 111.015216 228.329079 
z
" style="fill:#c85200;"/>
   </g>
   <g id="patch_66">
    <path clip-path="url(#pde8a312751)" d="M 134.312596 224.529034 
L 152.950501 224.529034 
L 152.950501 224.529034 
L 134.312596 224.529034 
z
" style="fill:#c85200;"/>
   </g>
   <g id="patch_67">
    <path clip-path="url(#pde8a312751)" d="M 157.609977 228.751306 
L 176.247881 228.751306 
L 176.247881 228.751306 
L 157.609977 228.751306 
z
" style="fill:#c85200;"/>
   </g>
   <g id="patch_68">
    <path clip-path="url(#pde8a312751)" d="M 180.907357 225.373488 
L 199.545262 225.373488 
L 199.545262 225.373488 
L 180.907357 225.373488 
z
" style="fill:#c85200;"/>
   </g>
   <g id="patch_69">
    <path clip-path="url(#pde8a312751)" d="M 204.204738 216.928943 
L 222.842643 216.928943 
L 222.842643 216.928943 
L 204.204738 216.928943 
z
" style="fill:#c85200;"/>
   </g>
   <g id="patch_70">
    <path clip-path="url(#pde8a312751)" d="M 227.502119 227.484624 
L 246.140023 227.484624 
L 246.140023 227.484624 
L 227.502119 227.484624 
z
" style="fill:#c85200;"/>
   </g>
   <g id="patch_71">
    <path clip-path="url(#pde8a312751)" d="M 250.799499 227.906852 
L 269.437404 227.906852 
L 269.437404 227.906852 
L 250.799499 227.906852 
z
" style="fill:#c85200;"/>
   </g>
   <g id="patch_72">
    <path clip-path="url(#pde8a312751)" d="M 274.09688 224.106806 
L 292.734784 224.106806 
L 292.734784 224.106806 
L 274.09688 224.106806 
z
" style="fill:#c85200;"/>
   </g>
   <g id="patch_73">
    <path clip-path="url(#pde8a312751)" d="M 297.39426 223.262352 
L 316.032165 223.262352 
L 316.032165 223.262352 
L 297.39426 223.262352 
z
" style="fill:#c85200;"/>
   </g>
   <g id="patch_74">
    <path clip-path="url(#pde8a312751)" d="M 320.691641 229.595761 
L 339.329545 229.595761 
L 339.329545 229.595761 
L 320.691641 229.595761 
z
" style="fill:#c85200;"/>
   </g>
   <g id="patch_75">
    <path clip-path="url(#pde8a312751)" d="M 64.420455 162.039397 
L 83.058359 162.039397 
L 83.058359 143.039169 
L 64.420455 143.039169 
z
" style="fill:#898989;"/>
   </g>
   <g id="patch_76">
    <path clip-path="url(#pde8a312751)" d="M 87.717835 225.795715 
L 106.35574 225.795715 
L 106.35574 224.529034 
L 87.717835 224.529034 
z
" style="fill:#898989;"/>
   </g>
   <g id="patch_77">
    <path clip-path="url(#pde8a312751)" d="M 111.015216 228.329079 
L 129.65312 228.329079 
L 129.65312 228.329079 
L 111.015216 228.329079 
z
" style="fill:#898989;"/>
   </g>
   <g id="patch_78">
    <path clip-path="url(#pde8a312751)" d="M 134.312596 224.529034 
L 152.950501 224.529034 
L 152.950501 223.262352 
L 134.312596 223.262352 
z
" style="fill:#898989;"/>
   </g>
   <g id="patch_79">
    <path clip-path="url(#pde8a312751)" d="M 157.609977 228.751306 
L 176.247881 228.751306 
L 176.247881 227.906852 
L 157.609977 227.906852 
z
" style="fill:#898989;"/>
   </g>
   <g id="patch_80">
    <path clip-path="url(#pde8a312751)" d="M 180.907357 225.373488 
L 199.545262 225.373488 
L 199.545262 223.262352 
L 180.907357 223.262352 
z
" style="fill:#898989;"/>
   </g>
   <g id="patch_81">
    <path clip-path="url(#pde8a312751)" d="M 204.204738 216.928943 
L 222.842643 216.928943 
L 222.842643 213.128897 
L 204.204738 213.128897 
z
" style="fill:#898989;"/>
   </g>
   <g id="patch_82">
    <path clip-path="url(#pde8a312751)" d="M 227.502119 227.484624 
L 246.140023 227.484624 
L 246.140023 225.373488 
L 227.502119 225.373488 
z
" style="fill:#898989;"/>
   </g>
   <g id="patch_83">
    <path clip-path="url(#pde8a312751)" d="M 250.799499 227.906852 
L 269.437404 227.906852 
L 269.437404 227.062397 
L 250.799499 227.062397 
z
" style="fill:#898989;"/>
   </g>
   <g id="patch_84">
    <path clip-path="url(#pde8a312751)" d="M 274.09688 224.106806 
L 292.734784 224.106806 
L 292.734784 221.99567 
L 274.09688 221.99567 
z
" style="fill:#898989;"/>
   </g>
   <g id="patch_85">
    <path clip-path="url(#pde8a312751)" d="M 297.39426 223.262352 
L 316.032165 223.262352 
L 316.032165 222.417897 
L 297.39426 222.417897 
z
" style="fill:#898989;"/>
   </g>
   <g id="patch_86">
    <path clip-path="url(#pde8a312751)" d="M 320.691641 229.595761 
L 339.329545 229.595761 
L 339.329545 229.173534 
L 320.691641 229.173534 
z
" style="fill:#898989;"/>
   </g>
   <g id="patch_87">
    <path clip-path="url(#pde8a312751)" d="M 64.420455 143.039169 
L 83.058359 143.039169 
L 83.058359 143.039169 
L 64.420455 143.039169 
z
" style="fill:#a2c8ec;"/>
   </g>
   <g id="patch_88">
    <path clip-path="url(#pde8a312751)" d="M 87.717835 224.529034 
L 106.35574 224.529034 
L 106.35574 224.529034 
L 87.717835 224.529034 
z
" style="fill:#a2c8ec;"/>
   </g>
   <g id="patch_89">
    <path clip-path="url(#pde8a312751)" d="M 111.015216 228.329079 
L 129.65312 228.329079 
L 129.65312 228.329079 
L 111.015216 228.329079 
z
" style="fill:#a2c8ec;"/>
   </g>
   <g id="patch_90">
    <path clip-path="url(#pde8a312751)" d="M 134.312596 223.262352 
L 152.950501 223.262352 
L 152.950501 223.262352 
L 134.312596 223.262352 
z
" style="fill:#a2c8ec;"/>
   </g>
   <g id="patch_91">
    <path clip-path="url(#pde8a312751)" d="M 157.609977 227.906852 
L 176.247881 227.906852 
L 176.247881 227.906852 
L 157.609977 227.906852 
z
" style="fill:#a2c8ec;"/>
   </g>
   <g id="patch_92">
    <path clip-path="url(#pde8a312751)" d="M 180.907357 223.262352 
L 199.545262 223.262352 
L 199.545262 223.262352 
L 180.907357 223.262352 
z
" style="fill:#a2c8ec;"/>
   </g>
   <g id="patch_93">
    <path clip-path="url(#pde8a312751)" d="M 204.204738 213.128897 
L 222.842643 213.128897 
L 222.842643 213.128897 
L 204.204738 213.128897 
z
" style="fill:#a2c8ec;"/>
   </g>
   <g id="patch_94">
    <path clip-path="url(#pde8a312751)" d="M 227.502119 225.373488 
L 246.140023 225.373488 
L 246.140023 225.373488 
L 227.502119 225.373488 
z
" style="fill:#a2c8ec;"/>
   </g>
   <g id="patch_95">
    <path clip-path="url(#pde8a312751)" d="M 250.799499 227.062397 
L 269.437404 227.062397 
L 269.437404 227.062397 
L 250.799499 227.062397 
z
" style="fill:#a2c8ec;"/>
   </g>
   <g id="patch_96">
    <path clip-path="url(#pde8a312751)" d="M 274.09688 221.99567 
L 292.734784 221.99567 
L 292.734784 221.99567 
L 274.09688 221.99567 
z
" style="fill:#a2c8ec;"/>
   </g>
   <g id="patch_97">
    <path clip-path="url(#pde8a312751)" d="M 297.39426 222.417897 
L 316.032165 222.417897 
L 316.032165 222.417897 
L 297.39426 222.417897 
z
" style="fill:#a2c8ec;"/>
   </g>
   <g id="patch_98">
    <path clip-path="url(#pde8a312751)" d="M 320.691641 229.173534 
L 339.329545 229.173534 
L 339.329545 229.173534 
L 320.691641 229.173534 
z
" style="fill:#a2c8ec;"/>
   </g>
   <g id="patch_99">
    <path clip-path="url(#pde8a312751)" d="M 64.420455 143.039169 
L 83.058359 143.039169 
L 83.058359 102.927578 
L 64.420455 102.927578 
z
" style="fill:#ffbc79;"/>
   </g>
   <g id="patch_100">
    <path clip-path="url(#pde8a312751)" d="M 87.717835 224.529034 
L 106.35574 224.529034 
L 106.35574 222.417897 
L 87.717835 222.417897 
z
" style="fill:#ffbc79;"/>
   </g>
   <g id="patch_101">
    <path clip-path="url(#pde8a312751)" d="M 111.015216 228.329079 
L 129.65312 228.329079 
L 129.65312 220.728988 
L 111.015216 220.728988 
z
" style="fill:#ffbc79;"/>
   </g>
   <g id="patch_102">
    <path clip-path="url(#pde8a312751)" d="M 134.312596 223.262352 
L 152.950501 223.262352 
L 152.950501 219.040079 
L 134.312596 219.040079 
z
" style="fill:#ffbc79;"/>
   </g>
   <g id="patch_103">
    <path clip-path="url(#pde8a312751)" d="M 157.609977 227.906852 
L 176.247881 227.906852 
L 176.247881 225.373488 
L 157.609977 225.373488 
z
" style="fill:#ffbc79;"/>
   </g>
   <g id="patch_104">
    <path clip-path="url(#pde8a312751)" d="M 180.907357 223.262352 
L 199.545262 223.262352 
L 199.545262 221.151215 
L 180.907357 221.151215 
z
" style="fill:#ffbc79;"/>
   </g>
   <g id="patch_105">
    <path clip-path="url(#pde8a312751)" d="M 204.204738 213.128897 
L 222.842643 213.128897 
L 222.842643 202.995442 
L 204.204738 202.995442 
z
" style="fill:#ffbc79;"/>
   </g>
   <g id="patch_106">
    <path clip-path="url(#pde8a312751)" d="M 227.502119 225.373488 
L 246.140023 225.373488 
L 246.140023 223.684579 
L 227.502119 223.684579 
z
" style="fill:#ffbc79;"/>
   </g>
   <g id="patch_107">
    <path clip-path="url(#pde8a312751)" d="M 250.799499 227.062397 
L 269.437404 227.062397 
L 269.437404 224.529034 
L 250.799499 224.529034 
z
" style="fill:#ffbc79;"/>
   </g>
   <g id="patch_108">
    <path clip-path="url(#pde8a312751)" d="M 274.09688 221.99567 
L 292.734784 221.99567 
L 292.734784 219.040079 
L 274.09688 219.040079 
z
" style="fill:#ffbc79;"/>
   </g>
   <g id="patch_109">
    <path clip-path="url(#pde8a312751)" d="M 297.39426 222.417897 
L 316.032165 222.417897 
L 316.032165 219.462306 
L 297.39426 219.462306 
z
" style="fill:#ffbc79;"/>
   </g>
   <g id="patch_110">
    <path clip-path="url(#pde8a312751)" d="M 320.691641 229.173534 
L 339.329545 229.173534 
L 339.329545 225.373488 
L 320.691641 225.373488 
z
" style="fill:#ffbc79;"/>
   </g>
   <g id="patch_111">
    <path clip-path="url(#pde8a312751)" d="M 64.420455 102.927578 
L 83.058359 102.927578 
L 83.058359 69.149396 
L 64.420455 69.149396 
z
" style="fill:#cfcfcf;"/>
   </g>
   <g id="patch_112">
    <path clip-path="url(#pde8a312751)" d="M 87.717835 222.417897 
L 106.35574 222.417897 
L 106.35574 220.728988 
L 87.717835 220.728988 
z
" style="fill:#cfcfcf;"/>
   </g>
   <g id="patch_113">
    <path clip-path="url(#pde8a312751)" d="M 111.015216 220.728988 
L 129.65312 220.728988 
L 129.65312 218.617852 
L 111.015216 218.617852 
z
" style="fill:#cfcfcf;"/>
   </g>
   <g id="patch_114">
    <path clip-path="url(#pde8a312751)" d="M 134.312596 219.040079 
L 152.950501 219.040079 
L 152.950501 219.040079 
L 134.312596 219.040079 
z
" style="fill:#cfcfcf;"/>
   </g>
   <g id="patch_115">
    <path clip-path="url(#pde8a312751)" d="M 157.609977 225.373488 
L 176.247881 225.373488 
L 176.247881 224.106806 
L 157.609977 224.106806 
z
" style="fill:#cfcfcf;"/>
   </g>
   <g id="patch_116">
    <path clip-path="url(#pde8a312751)" d="M 180.907357 221.151215 
L 199.545262 221.151215 
L 199.545262 218.617852 
L 180.907357 218.617852 
z
" style="fill:#cfcfcf;"/>
   </g>
   <g id="patch_117">
    <path clip-path="url(#pde8a312751)" d="M 204.204738 202.995442 
L 222.842643 202.995442 
L 222.842643 201.306533 
L 204.204738 201.306533 
z
" style="fill:#cfcfcf;"/>
   </g>
   <g id="patch_118">
    <path clip-path="url(#pde8a312751)" d="M 227.502119 223.684579 
L 246.140023 223.684579 
L 246.140023 221.573443 
L 227.502119 221.573443 
z
" style="fill:#cfcfcf;"/>
   </g>
   <g id="patch_119">
    <path clip-path="url(#pde8a312751)" d="M 250.799499 224.529034 
L 269.437404 224.529034 
L 269.437404 224.106806 
L 250.799499 224.106806 
z
" style="fill:#cfcfcf;"/>
   </g>
   <g id="patch_120">
    <path clip-path="url(#pde8a312751)" d="M 274.09688 219.040079 
L 292.734784 219.040079 
L 292.734784 218.617852 
L 274.09688 218.617852 
z
" style="fill:#cfcfcf;"/>
   </g>
   <g id="patch_121">
    <path clip-path="url(#pde8a312751)" d="M 297.39426 219.462306 
L 316.032165 219.462306 
L 316.032165 218.617852 
L 297.39426 218.617852 
z
" style="fill:#cfcfcf;"/>
   </g>
   <g id="patch_122">
    <path clip-path="url(#pde8a312751)" d="M 320.691641 225.373488 
L 339.329545 225.373488 
L 339.329545 223.684579 
L 320.691641 223.684579 
z
" style="fill:#cfcfcf;"/>
   </g>
   <g id="patch_123">
    <path clip-path="url(#pde8a312751)" d="M 64.420455 69.149396 
L 83.058359 69.149396 
L 83.058359 38.749032 
L 64.420455 38.749032 
z
" style="fill:#006ba4;"/>
   </g>
   <g id="patch_124">
    <path clip-path="url(#pde8a312751)" d="M 87.717835 220.728988 
L 106.35574 220.728988 
L 106.35574 217.35117 
L 87.717835 217.35117 
z
" style="fill:#006ba4;"/>
   </g>
   <g id="patch_125">
    <path clip-path="url(#pde8a312751)" d="M 111.015216 218.617852 
L 129.65312 218.617852 
L 129.65312 215.240033 
L 111.015216 215.240033 
z
" style="fill:#006ba4;"/>
   </g>
   <g id="patch_126">
    <path clip-path="url(#pde8a312751)" d="M 134.312596 219.040079 
L 152.950501 219.040079 
L 152.950501 215.662261 
L 134.312596 215.662261 
z
" style="fill:#006ba4;"/>
   </g>
   <g id="patch_127">
    <path clip-path="url(#pde8a312751)" d="M 157.609977 224.106806 
L 176.247881 224.106806 
L 176.247881 220.728988 
L 157.609977 220.728988 
z
" style="fill:#006ba4;"/>
   </g>
   <g id="patch_128">
    <path clip-path="url(#pde8a312751)" d="M 180.907357 218.617852 
L 199.545262 218.617852 
L 199.545262 215.662261 
L 180.907357 215.662261 
z
" style="fill:#006ba4;"/>
   </g>
   <g id="patch_129">
    <path clip-path="url(#pde8a312751)" d="M 204.204738 201.306533 
L 222.842643 201.306533 
L 222.842643 193.284215 
L 204.204738 193.284215 
z
" style="fill:#006ba4;"/>
   </g>
   <g id="patch_130">
    <path clip-path="url(#pde8a312751)" d="M 227.502119 221.573443 
L 246.140023 221.573443 
L 246.140023 219.884533 
L 227.502119 219.884533 
z
" style="fill:#006ba4;"/>
   </g>
   <g id="patch_131">
    <path clip-path="url(#pde8a312751)" d="M 250.799499 224.106806 
L 269.437404 224.106806 
L 269.437404 219.884533 
L 250.799499 219.884533 
z
" style="fill:#006ba4;"/>
   </g>
   <g id="patch_132">
    <path clip-path="url(#pde8a312751)" d="M 274.09688 218.617852 
L 292.734784 218.617852 
L 292.734784 215.240033 
L 274.09688 215.240033 
z
" style="fill:#006ba4;"/>
   </g>
   <g id="patch_133">
    <path clip-path="url(#pde8a312751)" d="M 297.39426 218.617852 
L 316.032165 218.617852 
L 316.032165 216.506715 
L 297.39426 216.506715 
z
" style="fill:#006ba4;"/>
   </g>
   <g id="patch_134">
    <path clip-path="url(#pde8a312751)" d="M 320.691641 223.684579 
L 339.329545 223.684579 
L 339.329545 221.99567 
L 320.691641 221.99567 
z
" style="fill:#006ba4;"/>
   </g>
   <g id="patch_135">
    <path clip-path="url(#pde8a312751)" d="M 64.420455 38.749032 
L 83.058359 38.749032 
L 83.058359 37.904577 
L 64.420455 37.904577 
z
" style="fill:#ff800e;"/>
   </g>
   <g id="patch_136">
    <path clip-path="url(#pde8a312751)" d="M 87.717835 217.35117 
L 106.35574 217.35117 
L 106.35574 217.35117 
L 87.717835 217.35117 
z
" style="fill:#ff800e;"/>
   </g>
   <g id="patch_137">
    <path clip-path="url(#pde8a312751)" d="M 111.015216 215.240033 
L 129.65312 215.240033 
L 129.65312 215.240033 
L 111.015216 215.240033 
z
" style="fill:#ff800e;"/>
   </g>
   <g id="patch_138">
    <path clip-path="url(#pde8a312751)" d="M 134.312596 215.662261 
L 152.950501 215.662261 
L 152.950501 215.662261 
L 134.312596 215.662261 
z
" style="fill:#ff800e;"/>
   </g>
   <g id="patch_139">
    <path clip-path="url(#pde8a312751)" d="M 157.609977 220.728988 
L 176.247881 220.728988 
L 176.247881 220.306761 
L 157.609977 220.306761 
z
" style="fill:#ff800e;"/>
   </g>
   <g id="patch_140">
    <path clip-path="url(#pde8a312751)" d="M 180.907357 215.662261 
L 199.545262 215.662261 
L 199.545262 214.395579 
L 180.907357 214.395579 
z
" style="fill:#ff800e;"/>
   </g>
   <g id="patch_141">
    <path clip-path="url(#pde8a312751)" d="M 204.204738 193.284215 
L 222.842643 193.284215 
L 222.842643 192.861988 
L 204.204738 192.861988 
z
" style="fill:#ff800e;"/>
   </g>
   <g id="patch_142">
    <path clip-path="url(#pde8a312751)" d="M 227.502119 219.884533 
L 246.140023 219.884533 
L 246.140023 219.884533 
L 227.502119 219.884533 
z
" style="fill:#ff800e;"/>
   </g>
   <g id="patch_143">
    <path clip-path="url(#pde8a312751)" d="M 250.799499 219.884533 
L 269.437404 219.884533 
L 269.437404 219.884533 
L 250.799499 219.884533 
z
" style="fill:#ff800e;"/>
   </g>
   <g id="patch_144">
    <path clip-path="url(#pde8a312751)" d="M 274.09688 215.240033 
L 292.734784 215.240033 
L 292.734784 214.817806 
L 274.09688 214.817806 
z
" style="fill:#ff800e;"/>
   </g>
   <g id="patch_145">
    <path clip-path="url(#pde8a312751)" d="M 297.39426 216.506715 
L 316.032165 216.506715 
L 316.032165 216.506715 
L 297.39426 216.506715 
z
" style="fill:#ff800e;"/>
   </g>
   <g id="patch_146">
    <path clip-path="url(#pde8a312751)" d="M 320.691641 221.99567 
L 339.329545 221.99567 
L 339.329545 221.99567 
L 320.691641 221.99567 
z
" style="fill:#ff800e;"/>
   </g>
   <g id="patch_147">
    <path clip-path="url(#pde8a312751)" d="M 64.420455 37.904577 
L 83.058359 37.904577 
L 83.058359 36.637896 
L 64.420455 36.637896 
z
" style="fill:#ababab;"/>
   </g>
   <g id="patch_148">
    <path clip-path="url(#pde8a312751)" d="M 87.717835 217.35117 
L 106.35574 217.35117 
L 106.35574 217.35117 
L 87.717835 217.35117 
z
" style="fill:#ababab;"/>
   </g>
   <g id="patch_149">
    <path clip-path="url(#pde8a312751)" d="M 111.015216 215.240033 
L 129.65312 215.240033 
L 129.65312 214.817806 
L 111.015216 214.817806 
z
" style="fill:#ababab;"/>
   </g>
   <g id="patch_150">
    <path clip-path="url(#pde8a312751)" d="M 134.312596 215.662261 
L 152.950501 215.662261 
L 152.950501 215.240033 
L 134.312596 215.240033 
z
" style="fill:#ababab;"/>
   </g>
   <g id="patch_151">
    <path clip-path="url(#pde8a312751)" d="M 157.609977 220.306761 
L 176.247881 220.306761 
L 176.247881 220.306761 
L 157.609977 220.306761 
z
" style="fill:#ababab;"/>
   </g>
   <g id="patch_152">
    <path clip-path="url(#pde8a312751)" d="M 180.907357 214.395579 
L 199.545262 214.395579 
L 199.545262 214.395579 
L 180.907357 214.395579 
z
" style="fill:#ababab;"/>
   </g>
   <g id="patch_153">
    <path clip-path="url(#pde8a312751)" d="M 204.204738 192.861988 
L 222.842643 192.861988 
L 222.842643 192.861988 
L 204.204738 192.861988 
z
" style="fill:#ababab;"/>
   </g>
   <g id="patch_154">
    <path clip-path="url(#pde8a312751)" d="M 227.502119 219.884533 
L 246.140023 219.884533 
L 246.140023 219.040079 
L 227.502119 219.040079 
z
" style="fill:#ababab;"/>
   </g>
   <g id="patch_155">
    <path clip-path="url(#pde8a312751)" d="M 250.799499 219.884533 
L 269.437404 219.884533 
L 269.437404 219.884533 
L 250.799499 219.884533 
z
" style="fill:#ababab;"/>
   </g>
   <g id="patch_156">
    <path clip-path="url(#pde8a312751)" d="M 274.09688 214.817806 
L 292.734784 214.817806 
L 292.734784 214.817806 
L 274.09688 214.817806 
z
" style="fill:#ababab;"/>
   </g>
   <g id="patch_157">
    <path clip-path="url(#pde8a312751)" d="M 297.39426 216.506715 
L 316.032165 216.506715 
L 316.032165 215.662261 
L 297.39426 215.662261 
z
" style="fill:#ababab;"/>
   </g>
   <g id="patch_158">
    <path clip-path="url(#pde8a312751)" d="M 320.691641 221.99567 
L 339.329545 221.99567 
L 339.329545 221.99567 
L 320.691641 221.99567 
z
" style="fill:#ababab;"/>
   </g>
   <g id="matplotlib.axis_1">
    <g id="xtick_1">
     <g id="line2d_1">
      <defs>
       <path d="M 0 0 
L 0 3.5 
" id="m50fb76efb7" style="stroke:#000000;stroke-width:0.8;"/>
      </defs>
      <g>
       <use style="stroke:#000000;stroke-width:0.8;" x="73.739407" xlink:href="#m50fb76efb7" y="233.395806"/>
      </g>
     </g>
     <g id="text_1">
      <!-- 1.0 -->
      <g transform="translate(61.023638 257.013921)rotate(-45)scale(0.1 -0.1)">
       <defs>
        <path d="M 794 531 
L 1825 531 
L 1825 4091 
L 703 3866 
L 703 4441 
L 1819 4666 
L 2450 4666 
L 2450 531 
L 3481 531 
L 3481 0 
L 794 0 
L 794 531 
z
" id="DejaVuSans-31" transform="scale(0.015625)"/>
        <path d="M 684 794 
L 1344 794 
L 1344 0 
L 684 0 
L 684 794 
z
" id="DejaVuSans-2e" transform="scale(0.015625)"/>
        <path d="M 2034 4250 
Q 1547 4250 1301 3770 
Q 1056 3291 1056 2328 
Q 1056 1369 1301 889 
Q 1547 409 2034 409 
Q 2525 409 2770 889 
Q 3016 1369 3016 2328 
Q 3016 3291 2770 3770 
Q 2525 4250 2034 4250 
z
M 2034 4750 
Q 2819 4750 3233 4129 
Q 3647 3509 3647 2328 
Q 3647 1150 3233 529 
Q 2819 -91 2034 -91 
Q 1250 -91 836 529 
Q 422 1150 422 2328 
Q 422 3509 836 4129 
Q 1250 4750 2034 4750 
z
" id="DejaVuSans-30" transform="scale(0.015625)"/>
       </defs>
       <use xlink:href="#DejaVuSans-31"/>
       <use x="63.623047" xlink:href="#DejaVuSans-2e"/>
       <use x="95.410156" xlink:href="#DejaVuSans-30"/>
      </g>
     </g>
    </g>
    <g id="xtick_2">
     <g id="line2d_2">
      <g>
       <use style="stroke:#000000;stroke-width:0.8;" x="97.036787" xlink:href="#m50fb76efb7" y="233.395806"/>
      </g>
     </g>
     <g id="text_2">
      <!-- 2.0 -->
      <g transform="translate(84.321019 257.013921)rotate(-45)scale(0.1 -0.1)">
       <defs>
        <path d="M 1228 531 
L 3431 531 
L 3431 0 
L 469 0 
L 469 531 
Q 828 903 1448 1529 
Q 2069 2156 2228 2338 
Q 2531 2678 2651 2914 
Q 2772 3150 2772 3378 
Q 2772 3750 2511 3984 
Q 2250 4219 1831 4219 
Q 1534 4219 1204 4116 
Q 875 4013 500 3803 
L 500 4441 
Q 881 4594 1212 4672 
Q 1544 4750 1819 4750 
Q 2544 4750 2975 4387 
Q 3406 4025 3406 3419 
Q 3406 3131 3298 2873 
Q 3191 2616 2906 2266 
Q 2828 2175 2409 1742 
Q 1991 1309 1228 531 
z
" id="DejaVuSans-32" transform="scale(0.015625)"/>
       </defs>
       <use xlink:href="#DejaVuSans-32"/>
       <use x="63.623047" xlink:href="#DejaVuSans-2e"/>
       <use x="95.410156" xlink:href="#DejaVuSans-30"/>
      </g>
     </g>
    </g>
    <g id="xtick_3">
     <g id="line2d_3">
      <g>
       <use style="stroke:#000000;stroke-width:0.8;" x="120.334168" xlink:href="#m50fb76efb7" y="233.395806"/>
      </g>
     </g>
     <g id="text_3">
      <!-- 3.0 -->
      <g transform="translate(107.618399 257.013921)rotate(-45)scale(0.1 -0.1)">
       <defs>
        <path d="M 2597 2516 
Q 3050 2419 3304 2112 
Q 3559 1806 3559 1356 
Q 3559 666 3084 287 
Q 2609 -91 1734 -91 
Q 1441 -91 1130 -33 
Q 819 25 488 141 
L 488 750 
Q 750 597 1062 519 
Q 1375 441 1716 441 
Q 2309 441 2620 675 
Q 2931 909 2931 1356 
Q 2931 1769 2642 2001 
Q 2353 2234 1838 2234 
L 1294 2234 
L 1294 2753 
L 1863 2753 
Q 2328 2753 2575 2939 
Q 2822 3125 2822 3475 
Q 2822 3834 2567 4026 
Q 2313 4219 1838 4219 
Q 1578 4219 1281 4162 
Q 984 4106 628 3988 
L 628 4550 
Q 988 4650 1302 4700 
Q 1616 4750 1894 4750 
Q 2613 4750 3031 4423 
Q 3450 4097 3450 3541 
Q 3450 3153 3228 2886 
Q 3006 2619 2597 2516 
z
" id="DejaVuSans-33" transform="scale(0.015625)"/>
       </defs>
       <use xlink:href="#DejaVuSans-33"/>
       <use x="63.623047" xlink:href="#DejaVuSans-2e"/>
       <use x="95.410156" xlink:href="#DejaVuSans-30"/>
      </g>
     </g>
    </g>
    <g id="xtick_4">
     <g id="line2d_4">
      <g>
       <use style="stroke:#000000;stroke-width:0.8;" x="143.631549" xlink:href="#m50fb76efb7" y="233.395806"/>
      </g>
     </g>
     <g id="text_4">
      <!-- 4.0 -->
      <g transform="translate(130.91578 257.013921)rotate(-45)scale(0.1 -0.1)">
       <defs>
        <path d="M 2419 4116 
L 825 1625 
L 2419 1625 
L 2419 4116 
z
M 2253 4666 
L 3047 4666 
L 3047 1625 
L 3713 1625 
L 3713 1100 
L 3047 1100 
L 3047 0 
L 2419 0 
L 2419 1100 
L 313 1100 
L 313 1709 
L 2253 4666 
z
" id="DejaVuSans-34" transform="scale(0.015625)"/>
       </defs>
       <use xlink:href="#DejaVuSans-34"/>
       <use x="63.623047" xlink:href="#DejaVuSans-2e"/>
       <use x="95.410156" xlink:href="#DejaVuSans-30"/>
      </g>
     </g>
    </g>
    <g id="xtick_5">
     <g id="line2d_5">
      <g>
       <use style="stroke:#000000;stroke-width:0.8;" x="166.928929" xlink:href="#m50fb76efb7" y="233.395806"/>
      </g>
     </g>
     <g id="text_5">
      <!-- 5.0 -->
      <g transform="translate(154.21316 257.013921)rotate(-45)scale(0.1 -0.1)">
       <defs>
        <path d="M 691 4666 
L 3169 4666 
L 3169 4134 
L 1269 4134 
L 1269 2991 
Q 1406 3038 1543 3061 
Q 1681 3084 1819 3084 
Q 2600 3084 3056 2656 
Q 3513 2228 3513 1497 
Q 3513 744 3044 326 
Q 2575 -91 1722 -91 
Q 1428 -91 1123 -41 
Q 819 9 494 109 
L 494 744 
Q 775 591 1075 516 
Q 1375 441 1709 441 
Q 2250 441 2565 725 
Q 2881 1009 2881 1497 
Q 2881 1984 2565 2268 
Q 2250 2553 1709 2553 
Q 1456 2553 1204 2497 
Q 953 2441 691 2322 
L 691 4666 
z
" id="DejaVuSans-35" transform="scale(0.015625)"/>
       </defs>
       <use xlink:href="#DejaVuSans-35"/>
       <use x="63.623047" xlink:href="#DejaVuSans-2e"/>
       <use x="95.410156" xlink:href="#DejaVuSans-30"/>
      </g>
     </g>
    </g>
    <g id="xtick_6">
     <g id="line2d_6">
      <g>
       <use style="stroke:#000000;stroke-width:0.8;" x="190.22631" xlink:href="#m50fb76efb7" y="233.395806"/>
      </g>
     </g>
     <g id="text_6">
      <!-- 6.0 -->
      <g transform="translate(177.510541 257.013921)rotate(-45)scale(0.1 -0.1)">
       <defs>
        <path d="M 2113 2584 
Q 1688 2584 1439 2293 
Q 1191 2003 1191 1497 
Q 1191 994 1439 701 
Q 1688 409 2113 409 
Q 2538 409 2786 701 
Q 3034 994 3034 1497 
Q 3034 2003 2786 2293 
Q 2538 2584 2113 2584 
z
M 3366 4563 
L 3366 3988 
Q 3128 4100 2886 4159 
Q 2644 4219 2406 4219 
Q 1781 4219 1451 3797 
Q 1122 3375 1075 2522 
Q 1259 2794 1537 2939 
Q 1816 3084 2150 3084 
Q 2853 3084 3261 2657 
Q 3669 2231 3669 1497 
Q 3669 778 3244 343 
Q 2819 -91 2113 -91 
Q 1303 -91 875 529 
Q 447 1150 447 2328 
Q 447 3434 972 4092 
Q 1497 4750 2381 4750 
Q 2619 4750 2861 4703 
Q 3103 4656 3366 4563 
z
" id="DejaVuSans-36" transform="scale(0.015625)"/>
       </defs>
       <use xlink:href="#DejaVuSans-36"/>
       <use x="63.623047" xlink:href="#DejaVuSans-2e"/>
       <use x="95.410156" xlink:href="#DejaVuSans-30"/>
      </g>
     </g>
    </g>
    <g id="xtick_7">
     <g id="line2d_7">
      <g>
       <use style="stroke:#000000;stroke-width:0.8;" x="213.52369" xlink:href="#m50fb76efb7" y="233.395806"/>
      </g>
     </g>
     <g id="text_7">
      <!-- 7.0 -->
      <g transform="translate(200.807922 257.013921)rotate(-45)scale(0.1 -0.1)">
       <defs>
        <path d="M 525 4666 
L 3525 4666 
L 3525 4397 
L 1831 0 
L 1172 0 
L 2766 4134 
L 525 4134 
L 525 4666 
z
" id="DejaVuSans-37" transform="scale(0.015625)"/>
       </defs>
       <use xlink:href="#DejaVuSans-37"/>
       <use x="63.623047" xlink:href="#DejaVuSans-2e"/>
       <use x="95.410156" xlink:href="#DejaVuSans-30"/>
      </g>
     </g>
    </g>
    <g id="xtick_8">
     <g id="line2d_8">
      <g>
       <use style="stroke:#000000;stroke-width:0.8;" x="236.821071" xlink:href="#m50fb76efb7" y="233.395806"/>
      </g>
     </g>
     <g id="text_8">
      <!-- 8.0 -->
      <g transform="translate(224.105302 257.013921)rotate(-45)scale(0.1 -0.1)">
       <defs>
        <path d="M 2034 2216 
Q 1584 2216 1326 1975 
Q 1069 1734 1069 1313 
Q 1069 891 1326 650 
Q 1584 409 2034 409 
Q 2484 409 2743 651 
Q 3003 894 3003 1313 
Q 3003 1734 2745 1975 
Q 2488 2216 2034 2216 
z
M 1403 2484 
Q 997 2584 770 2862 
Q 544 3141 544 3541 
Q 544 4100 942 4425 
Q 1341 4750 2034 4750 
Q 2731 4750 3128 4425 
Q 3525 4100 3525 3541 
Q 3525 3141 3298 2862 
Q 3072 2584 2669 2484 
Q 3125 2378 3379 2068 
Q 3634 1759 3634 1313 
Q 3634 634 3220 271 
Q 2806 -91 2034 -91 
Q 1263 -91 848 271 
Q 434 634 434 1313 
Q 434 1759 690 2068 
Q 947 2378 1403 2484 
z
M 1172 3481 
Q 1172 3119 1398 2916 
Q 1625 2713 2034 2713 
Q 2441 2713 2670 2916 
Q 2900 3119 2900 3481 
Q 2900 3844 2670 4047 
Q 2441 4250 2034 4250 
Q 1625 4250 1398 4047 
Q 1172 3844 1172 3481 
z
" id="DejaVuSans-38" transform="scale(0.015625)"/>
       </defs>
       <use xlink:href="#DejaVuSans-38"/>
       <use x="63.623047" xlink:href="#DejaVuSans-2e"/>
       <use x="95.410156" xlink:href="#DejaVuSans-30"/>
      </g>
     </g>
    </g>
    <g id="xtick_9">
     <g id="line2d_9">
      <g>
       <use style="stroke:#000000;stroke-width:0.8;" x="260.118451" xlink:href="#m50fb76efb7" y="233.395806"/>
      </g>
     </g>
     <g id="text_9">
      <!-- 9.0 -->
      <g transform="translate(247.402683 257.013921)rotate(-45)scale(0.1 -0.1)">
       <defs>
        <path d="M 703 97 
L 703 672 
Q 941 559 1184 500 
Q 1428 441 1663 441 
Q 2288 441 2617 861 
Q 2947 1281 2994 2138 
Q 2813 1869 2534 1725 
Q 2256 1581 1919 1581 
Q 1219 1581 811 2004 
Q 403 2428 403 3163 
Q 403 3881 828 4315 
Q 1253 4750 1959 4750 
Q 2769 4750 3195 4129 
Q 3622 3509 3622 2328 
Q 3622 1225 3098 567 
Q 2575 -91 1691 -91 
Q 1453 -91 1209 -44 
Q 966 3 703 97 
z
M 1959 2075 
Q 2384 2075 2632 2365 
Q 2881 2656 2881 3163 
Q 2881 3666 2632 3958 
Q 2384 4250 1959 4250 
Q 1534 4250 1286 3958 
Q 1038 3666 1038 3163 
Q 1038 2656 1286 2365 
Q 1534 2075 1959 2075 
z
" id="DejaVuSans-39" transform="scale(0.015625)"/>
       </defs>
       <use xlink:href="#DejaVuSans-39"/>
       <use x="63.623047" xlink:href="#DejaVuSans-2e"/>
       <use x="95.410156" xlink:href="#DejaVuSans-30"/>
      </g>
     </g>
    </g>
    <g id="xtick_10">
     <g id="line2d_10">
      <g>
       <use style="stroke:#000000;stroke-width:0.8;" x="283.415832" xlink:href="#m50fb76efb7" y="233.395806"/>
      </g>
     </g>
     <g id="text_10">
      <!-- 10.0 -->
      <g transform="translate(266.201096 261.512887)rotate(-45)scale(0.1 -0.1)">
       <use xlink:href="#DejaVuSans-31"/>
       <use x="63.623047" xlink:href="#DejaVuSans-30"/>
       <use x="127.246094" xlink:href="#DejaVuSans-2e"/>
       <use x="159.033203" xlink:href="#DejaVuSans-30"/>
      </g>
     </g>
    </g>
    <g id="xtick_11">
     <g id="line2d_11">
      <g>
       <use style="stroke:#000000;stroke-width:0.8;" x="306.713213" xlink:href="#m50fb76efb7" y="233.395806"/>
      </g>
     </g>
     <g id="text_11">
      <!-- 11.0 -->
      <g transform="translate(289.498477 261.512887)rotate(-45)scale(0.1 -0.1)">
       <use xlink:href="#DejaVuSans-31"/>
       <use x="63.623047" xlink:href="#DejaVuSans-31"/>
       <use x="127.246094" xlink:href="#DejaVuSans-2e"/>
       <use x="159.033203" xlink:href="#DejaVuSans-30"/>
      </g>
     </g>
    </g>
    <g id="xtick_12">
     <g id="line2d_12">
      <g>
       <use style="stroke:#000000;stroke-width:0.8;" x="330.010593" xlink:href="#m50fb76efb7" y="233.395806"/>
      </g>
     </g>
     <g id="text_12">
      <!-- 12.0 -->
      <g transform="translate(312.795858 261.512887)rotate(-45)scale(0.1 -0.1)">
       <use xlink:href="#DejaVuSans-31"/>
       <use x="63.623047" xlink:href="#DejaVuSans-32"/>
       <use x="127.246094" xlink:href="#DejaVuSans-2e"/>
       <use x="159.033203" xlink:href="#DejaVuSans-30"/>
      </g>
     </g>
    </g>
    <g id="text_13">
     <!-- Monat -->
     <g transform="translate(186.308594 274.581886)scale(0.1 -0.1)">
      <defs>
       <path d="M 628 4666 
L 1569 4666 
L 2759 1491 
L 3956 4666 
L 4897 4666 
L 4897 0 
L 4281 0 
L 4281 4097 
L 3078 897 
L 2444 897 
L 1241 4097 
L 1241 0 
L 628 0 
L 628 4666 
z
" id="DejaVuSans-4d" transform="scale(0.015625)"/>
       <path d="M 1959 3097 
Q 1497 3097 1228 2736 
Q 959 2375 959 1747 
Q 959 1119 1226 758 
Q 1494 397 1959 397 
Q 2419 397 2687 759 
Q 2956 1122 2956 1747 
Q 2956 2369 2687 2733 
Q 2419 3097 1959 3097 
z
M 1959 3584 
Q 2709 3584 3137 3096 
Q 3566 2609 3566 1747 
Q 3566 888 3137 398 
Q 2709 -91 1959 -91 
Q 1206 -91 779 398 
Q 353 888 353 1747 
Q 353 2609 779 3096 
Q 1206 3584 1959 3584 
z
" id="DejaVuSans-6f" transform="scale(0.015625)"/>
       <path d="M 3513 2113 
L 3513 0 
L 2938 0 
L 2938 2094 
Q 2938 2591 2744 2837 
Q 2550 3084 2163 3084 
Q 1697 3084 1428 2787 
Q 1159 2491 1159 1978 
L 1159 0 
L 581 0 
L 581 3500 
L 1159 3500 
L 1159 2956 
Q 1366 3272 1645 3428 
Q 1925 3584 2291 3584 
Q 2894 3584 3203 3211 
Q 3513 2838 3513 2113 
z
" id="DejaVuSans-6e" transform="scale(0.015625)"/>
       <path d="M 2194 1759 
Q 1497 1759 1228 1600 
Q 959 1441 959 1056 
Q 959 750 1161 570 
Q 1363 391 1709 391 
Q 2188 391 2477 730 
Q 2766 1069 2766 1631 
L 2766 1759 
L 2194 1759 
z
M 3341 1997 
L 3341 0 
L 2766 0 
L 2766 531 
Q 2569 213 2275 61 
Q 1981 -91 1556 -91 
Q 1019 -91 701 211 
Q 384 513 384 1019 
Q 384 1609 779 1909 
Q 1175 2209 1959 2209 
L 2766 2209 
L 2766 2266 
Q 2766 2663 2505 2880 
Q 2244 3097 1772 3097 
Q 1472 3097 1187 3025 
Q 903 2953 641 2809 
L 641 3341 
Q 956 3463 1253 3523 
Q 1550 3584 1831 3584 
Q 2591 3584 2966 3190 
Q 3341 2797 3341 1997 
z
" id="DejaVuSans-61" transform="scale(0.015625)"/>
       <path d="M 1172 4494 
L 1172 3500 
L 2356 3500 
L 2356 3053 
L 1172 3053 
L 1172 1153 
Q 1172 725 1289 603 
Q 1406 481 1766 481 
L 2356 481 
L 2356 0 
L 1766 0 
Q 1100 0 847 248 
Q 594 497 594 1153 
L 594 3053 
L 172 3053 
L 172 3500 
L 594 3500 
L 594 4494 
L 1172 4494 
z
" id="DejaVuSans-74" transform="scale(0.015625)"/>
      </defs>
      <use xlink:href="#DejaVuSans-4d"/>
      <use x="86.279297" xlink:href="#DejaVuSans-6f"/>
      <use x="147.460938" xlink:href="#DejaVuSans-6e"/>
      <use x="210.839844" xlink:href="#DejaVuSans-61"/>
      <use x="272.119141" xlink:href="#DejaVuSans-74"/>
     </g>
    </g>
   </g>
   <g id="matplotlib.axis_2">
    <g id="ytick_1">
     <g id="line2d_13">
      <defs>
       <path d="M 0 0 
L -3.5 0 
" id="mc80185d90b" style="stroke:#000000;stroke-width:0.8;"/>
      </defs>
      <g>
       <use style="stroke:#000000;stroke-width:0.8;" x="50.675" xlink:href="#mc80185d90b" y="233.395806"/>
      </g>
     </g>
     <g id="text_14">
      <!-- 0 -->
      <g transform="translate(37.3125 237.195025)scale(0.1 -0.1)">
       <use xlink:href="#DejaVuSans-30"/>
      </g>
     </g>
    </g>
    <g id="ytick_2">
     <g id="line2d_14">
      <g>
       <use style="stroke:#000000;stroke-width:0.8;" x="50.675" xlink:href="#mc80185d90b" y="191.173079"/>
      </g>
     </g>
     <g id="text_15">
      <!-- 100 -->
      <g transform="translate(24.5875 194.972297)scale(0.1 -0.1)">
       <use xlink:href="#DejaVuSans-31"/>
       <use x="63.623047" xlink:href="#DejaVuSans-30"/>
       <use x="127.246094" xlink:href="#DejaVuSans-30"/>
      </g>
     </g>
    </g>
    <g id="ytick_3">
     <g id="line2d_15">
      <g>
       <use style="stroke:#000000;stroke-width:0.8;" x="50.675" xlink:href="#mc80185d90b" y="148.950351"/>
      </g>
     </g>
     <g id="text_16">
      <!-- 200 -->
      <g transform="translate(24.5875 152.74957)scale(0.1 -0.1)">
       <use xlink:href="#DejaVuSans-32"/>
       <use x="63.623047" xlink:href="#DejaVuSans-30"/>
       <use x="127.246094" xlink:href="#DejaVuSans-30"/>
      </g>
     </g>
    </g>
    <g id="ytick_4">
     <g id="line2d_16">
      <g>
       <use style="stroke:#000000;stroke-width:0.8;" x="50.675" xlink:href="#mc80185d90b" y="106.727623"/>
      </g>
     </g>
     <g id="text_17">
      <!-- 300 -->
      <g transform="translate(24.5875 110.526842)scale(0.1 -0.1)">
       <use xlink:href="#DejaVuSans-33"/>
       <use x="63.623047" xlink:href="#DejaVuSans-30"/>
       <use x="127.246094" xlink:href="#DejaVuSans-30"/>
      </g>
     </g>
    </g>
    <g id="ytick_5">
     <g id="line2d_17">
      <g>
       <use style="stroke:#000000;stroke-width:0.8;" x="50.675" xlink:href="#mc80185d90b" y="64.504896"/>
      </g>
     </g>
     <g id="text_18">
      <!-- 400 -->
      <g transform="translate(24.5875 68.304115)scale(0.1 -0.1)">
       <use xlink:href="#DejaVuSans-34"/>
       <use x="63.623047" xlink:href="#DejaVuSans-30"/>
       <use x="127.246094" xlink:href="#DejaVuSans-30"/>
      </g>
     </g>
    </g>
    <g id="text_19">
     <!-- Anzahl -->
     <g transform="translate(18.507813 146.933059)rotate(-90)scale(0.1 -0.1)">
      <defs>
       <path d="M 2188 4044 
L 1331 1722 
L 3047 1722 
L 2188 4044 
z
M 1831 4666 
L 2547 4666 
L 4325 0 
L 3669 0 
L 3244 1197 
L 1141 1197 
L 716 0 
L 50 0 
L 1831 4666 
z
" id="DejaVuSans-41" transform="scale(0.015625)"/>
       <path d="M 353 3500 
L 3084 3500 
L 3084 2975 
L 922 459 
L 3084 459 
L 3084 0 
L 275 0 
L 275 525 
L 2438 3041 
L 353 3041 
L 353 3500 
z
" id="DejaVuSans-7a" transform="scale(0.015625)"/>
       <path d="M 3513 2113 
L 3513 0 
L 2938 0 
L 2938 2094 
Q 2938 2591 2744 2837 
Q 2550 3084 2163 3084 
Q 1697 3084 1428 2787 
Q 1159 2491 1159 1978 
L 1159 0 
L 581 0 
L 581 4863 
L 1159 4863 
L 1159 2956 
Q 1366 3272 1645 3428 
Q 1925 3584 2291 3584 
Q 2894 3584 3203 3211 
Q 3513 2838 3513 2113 
z
" id="DejaVuSans-68" transform="scale(0.015625)"/>
       <path d="M 603 4863 
L 1178 4863 
L 1178 0 
L 603 0 
L 603 4863 
z
" id="DejaVuSans-6c" transform="scale(0.015625)"/>
      </defs>
      <use xlink:href="#DejaVuSans-41"/>
      <use x="68.408203" xlink:href="#DejaVuSans-6e"/>
      <use x="131.787109" xlink:href="#DejaVuSans-7a"/>
      <use x="184.277344" xlink:href="#DejaVuSans-61"/>
      <use x="245.556641" xlink:href="#DejaVuSans-68"/>
      <use x="308.935547" xlink:href="#DejaVuSans-6c"/>
     </g>
    </g>
   </g>
   <g id="patch_159">
    <path d="M 50.675 233.395806 
L 50.675 26.8 
" style="fill:none;stroke:#000000;stroke-linecap:square;stroke-linejoin:miter;stroke-width:0.8;"/>
   </g>
   <g id="patch_160">
    <path d="M 353.075 233.395806 
L 353.075 26.8 
" style="fill:none;stroke:#000000;stroke-linecap:square;stroke-linejoin:miter;stroke-width:0.8;"/>
   </g>
   <g id="patch_161">
    <path d="M 50.675 233.395806 
L 353.075 233.395806 
" style="fill:none;stroke:#000000;stroke-linecap:square;stroke-linejoin:miter;stroke-width:0.8;"/>
   </g>
   <g id="patch_162">
    <path d="M 50.675 26.8 
L 353.075 26.8 
" style="fill:none;stroke:#000000;stroke-linecap:square;stroke-linejoin:miter;stroke-width:0.8;"/>
   </g>
   <g id="text_20">
    <!-- Gesetzstarts Monat -->
    <g transform="translate(143.529688 20.8)scale(0.12 -0.12)">
     <defs>
      <path d="M 3809 666 
L 3809 1919 
L 2778 1919 
L 2778 2438 
L 4434 2438 
L 4434 434 
Q 4069 175 3628 42 
Q 3188 -91 2688 -91 
Q 1594 -91 976 548 
Q 359 1188 359 2328 
Q 359 3472 976 4111 
Q 1594 4750 2688 4750 
Q 3144 4750 3555 4637 
Q 3966 4525 4313 4306 
L 4313 3634 
Q 3963 3931 3569 4081 
Q 3175 4231 2741 4231 
Q 1884 4231 1454 3753 
Q 1025 3275 1025 2328 
Q 1025 1384 1454 906 
Q 1884 428 2741 428 
Q 3075 428 3337 486 
Q 3600 544 3809 666 
z
" id="DejaVuSans-47" transform="scale(0.015625)"/>
      <path d="M 3597 1894 
L 3597 1613 
L 953 1613 
Q 991 1019 1311 708 
Q 1631 397 2203 397 
Q 2534 397 2845 478 
Q 3156 559 3463 722 
L 3463 178 
Q 3153 47 2828 -22 
Q 2503 -91 2169 -91 
Q 1331 -91 842 396 
Q 353 884 353 1716 
Q 353 2575 817 3079 
Q 1281 3584 2069 3584 
Q 2775 3584 3186 3129 
Q 3597 2675 3597 1894 
z
M 3022 2063 
Q 3016 2534 2758 2815 
Q 2500 3097 2075 3097 
Q 1594 3097 1305 2825 
Q 1016 2553 972 2059 
L 3022 2063 
z
" id="DejaVuSans-65" transform="scale(0.015625)"/>
      <path d="M 2834 3397 
L 2834 2853 
Q 2591 2978 2328 3040 
Q 2066 3103 1784 3103 
Q 1356 3103 1142 2972 
Q 928 2841 928 2578 
Q 928 2378 1081 2264 
Q 1234 2150 1697 2047 
L 1894 2003 
Q 2506 1872 2764 1633 
Q 3022 1394 3022 966 
Q 3022 478 2636 193 
Q 2250 -91 1575 -91 
Q 1294 -91 989 -36 
Q 684 19 347 128 
L 347 722 
Q 666 556 975 473 
Q 1284 391 1588 391 
Q 1994 391 2212 530 
Q 2431 669 2431 922 
Q 2431 1156 2273 1281 
Q 2116 1406 1581 1522 
L 1381 1569 
Q 847 1681 609 1914 
Q 372 2147 372 2553 
Q 372 3047 722 3315 
Q 1072 3584 1716 3584 
Q 2034 3584 2315 3537 
Q 2597 3491 2834 3397 
z
" id="DejaVuSans-73" transform="scale(0.015625)"/>
      <path d="M 2631 2963 
Q 2534 3019 2420 3045 
Q 2306 3072 2169 3072 
Q 1681 3072 1420 2755 
Q 1159 2438 1159 1844 
L 1159 0 
L 581 0 
L 581 3500 
L 1159 3500 
L 1159 2956 
Q 1341 3275 1631 3429 
Q 1922 3584 2338 3584 
Q 2397 3584 2469 3576 
Q 2541 3569 2628 3553 
L 2631 2963 
z
" id="DejaVuSans-72" transform="scale(0.015625)"/>
      <path id="DejaVuSans-20" transform="scale(0.015625)"/>
     </defs>
     <use xlink:href="#DejaVuSans-47"/>
     <use x="77.490234" xlink:href="#DejaVuSans-65"/>
     <use x="139.013672" xlink:href="#DejaVuSans-73"/>
     <use x="191.113281" xlink:href="#DejaVuSans-65"/>
     <use x="252.636719" xlink:href="#DejaVuSans-74"/>
     <use x="291.845703" xlink:href="#DejaVuSans-7a"/>
     <use x="344.335938" xlink:href="#DejaVuSans-73"/>
     <use x="396.435547" xlink:href="#DejaVuSans-74"/>
     <use x="435.644531" xlink:href="#DejaVuSans-61"/>
     <use x="496.923828" xlink:href="#DejaVuSans-72"/>
     <use x="538.037109" xlink:href="#DejaVuSans-74"/>
     <use x="577.246094" xlink:href="#DejaVuSans-73"/>
     <use x="629.345703" xlink:href="#DejaVuSans-20"/>
     <use x="661.132812" xlink:href="#DejaVuSans-4d"/>
     <use x="747.412109" xlink:href="#DejaVuSans-6f"/>
     <use x="808.59375" xlink:href="#DejaVuSans-6e"/>
     <use x="871.972656" xlink:href="#DejaVuSans-61"/>
     <use x="933.251953" xlink:href="#DejaVuSans-74"/>
    </g>
   </g>
   <g id="legend_1">
    <g id="patch_163">
     <path d="M 360.075 227.005716 
L 419.253125 227.005716 
Q 421.253125 227.005716 421.253125 225.005716 
L 421.253125 35.190091 
Q 421.253125 33.190091 419.253125 33.190091 
L 360.075 33.190091 
Q 358.075 33.190091 358.075 35.190091 
L 358.075 225.005716 
Q 358.075 227.005716 360.075 227.005716 
z
" style="fill:#ffffff;opacity:0.8;stroke:#cccccc;stroke-linejoin:miter;"/>
    </g>
    <g id="patch_164">
     <path d="M 362.075 44.788528 
L 382.075 44.788528 
L 382.075 37.788528 
L 362.075 37.788528 
z
" style="fill:#ababab;"/>
    </g>
    <g id="text_21">
     <!-- BK -->
     <g transform="translate(390.075 44.788528)scale(0.1 -0.1)">
      <defs>
       <path d="M 1259 2228 
L 1259 519 
L 2272 519 
Q 2781 519 3026 730 
Q 3272 941 3272 1375 
Q 3272 1813 3026 2020 
Q 2781 2228 2272 2228 
L 1259 2228 
z
M 1259 4147 
L 1259 2741 
L 2194 2741 
Q 2656 2741 2882 2914 
Q 3109 3088 3109 3444 
Q 3109 3797 2882 3972 
Q 2656 4147 2194 4147 
L 1259 4147 
z
M 628 4666 
L 2241 4666 
Q 2963 4666 3353 4366 
Q 3744 4066 3744 3513 
Q 3744 3084 3544 2831 
Q 3344 2578 2956 2516 
Q 3422 2416 3680 2098 
Q 3938 1781 3938 1306 
Q 3938 681 3513 340 
Q 3088 0 2303 0 
L 628 0 
L 628 4666 
z
" id="DejaVuSans-42" transform="scale(0.015625)"/>
       <path d="M 628 4666 
L 1259 4666 
L 1259 2694 
L 3353 4666 
L 4166 4666 
L 1850 2491 
L 4331 0 
L 3500 0 
L 1259 2247 
L 1259 0 
L 628 0 
L 628 4666 
z
" id="DejaVuSans-4b" transform="scale(0.015625)"/>
      </defs>
      <use xlink:href="#DejaVuSans-42"/>
      <use x="68.603516" xlink:href="#DejaVuSans-4b"/>
     </g>
    </g>
    <g id="patch_165">
     <path d="M 362.075 59.466653 
L 382.075 59.466653 
L 382.075 52.466653 
L 362.075 52.466653 
z
" style="fill:#ff800e;"/>
    </g>
    <g id="text_22">
     <!-- EDA -->
     <g transform="translate(390.075 59.466653)scale(0.1 -0.1)">
      <defs>
       <path d="M 628 4666 
L 3578 4666 
L 3578 4134 
L 1259 4134 
L 1259 2753 
L 3481 2753 
L 3481 2222 
L 1259 2222 
L 1259 531 
L 3634 531 
L 3634 0 
L 628 0 
L 628 4666 
z
" id="DejaVuSans-45" transform="scale(0.015625)"/>
       <path d="M 1259 4147 
L 1259 519 
L 2022 519 
Q 2988 519 3436 956 
Q 3884 1394 3884 2338 
Q 3884 3275 3436 3711 
Q 2988 4147 2022 4147 
L 1259 4147 
z
M 628 4666 
L 1925 4666 
Q 3281 4666 3915 4102 
Q 4550 3538 4550 2338 
Q 4550 1131 3912 565 
Q 3275 0 1925 0 
L 628 0 
L 628 4666 
z
" id="DejaVuSans-44" transform="scale(0.015625)"/>
      </defs>
      <use xlink:href="#DejaVuSans-45"/>
      <use x="63.183594" xlink:href="#DejaVuSans-44"/>
      <use x="138.435547" xlink:href="#DejaVuSans-41"/>
     </g>
    </g>
    <g id="patch_166">
     <path d="M 362.075 74.144778 
L 382.075 74.144778 
L 382.075 67.144778 
L 362.075 67.144778 
z
" style="fill:#006ba4;"/>
    </g>
    <g id="text_23">
     <!-- EDI -->
     <g transform="translate(390.075 74.144778)scale(0.1 -0.1)">
      <defs>
       <path d="M 628 4666 
L 1259 4666 
L 1259 0 
L 628 0 
L 628 4666 
z
" id="DejaVuSans-49" transform="scale(0.015625)"/>
      </defs>
      <use xlink:href="#DejaVuSans-45"/>
      <use x="63.183594" xlink:href="#DejaVuSans-44"/>
      <use x="140.185547" xlink:href="#DejaVuSans-49"/>
     </g>
    </g>
    <g id="patch_167">
     <path d="M 362.075 88.822903 
L 382.075 88.822903 
L 382.075 81.822903 
L 362.075 81.822903 
z
" style="fill:#cfcfcf;"/>
    </g>
    <g id="text_24">
     <!-- EFD -->
     <g transform="translate(390.075 88.822903)scale(0.1 -0.1)">
      <defs>
       <path d="M 628 4666 
L 3309 4666 
L 3309 4134 
L 1259 4134 
L 1259 2759 
L 3109 2759 
L 3109 2228 
L 1259 2228 
L 1259 0 
L 628 0 
L 628 4666 
z
" id="DejaVuSans-46" transform="scale(0.015625)"/>
      </defs>
      <use xlink:href="#DejaVuSans-45"/>
      <use x="63.183594" xlink:href="#DejaVuSans-46"/>
      <use x="120.703125" xlink:href="#DejaVuSans-44"/>
     </g>
    </g>
    <g id="patch_168">
     <path d="M 362.075 103.501028 
L 382.075 103.501028 
L 382.075 96.501028 
L 362.075 96.501028 
z
" style="fill:#ffbc79;"/>
    </g>
    <g id="text_25">
     <!-- EJPD -->
     <g transform="translate(390.075 103.501028)scale(0.1 -0.1)">
      <defs>
       <path d="M 628 4666 
L 1259 4666 
L 1259 325 
Q 1259 -519 939 -900 
Q 619 -1281 -91 -1281 
L -331 -1281 
L -331 -750 
L -134 -750 
Q 284 -750 456 -515 
Q 628 -281 628 325 
L 628 4666 
z
" id="DejaVuSans-4a" transform="scale(0.015625)"/>
       <path d="M 1259 4147 
L 1259 2394 
L 2053 2394 
Q 2494 2394 2734 2622 
Q 2975 2850 2975 3272 
Q 2975 3691 2734 3919 
Q 2494 4147 2053 4147 
L 1259 4147 
z
M 628 4666 
L 2053 4666 
Q 2838 4666 3239 4311 
Q 3641 3956 3641 3272 
Q 3641 2581 3239 2228 
Q 2838 1875 2053 1875 
L 1259 1875 
L 1259 0 
L 628 0 
L 628 4666 
z
" id="DejaVuSans-50" transform="scale(0.015625)"/>
      </defs>
      <use xlink:href="#DejaVuSans-45"/>
      <use x="63.183594" xlink:href="#DejaVuSans-4a"/>
      <use x="92.675781" xlink:href="#DejaVuSans-50"/>
      <use x="152.978516" xlink:href="#DejaVuSans-44"/>
     </g>
    </g>
    <g id="patch_169">
     <path d="M 362.075 118.179153 
L 382.075 118.179153 
L 382.075 111.179153 
L 362.075 111.179153 
z
" style="fill:#a2c8ec;"/>
    </g>
    <g id="text_26">
     <!-- EMD -->
     <g transform="translate(390.075 118.179153)scale(0.1 -0.1)">
      <use xlink:href="#DejaVuSans-45"/>
      <use x="63.183594" xlink:href="#DejaVuSans-4d"/>
      <use x="149.462891" xlink:href="#DejaVuSans-44"/>
     </g>
    </g>
    <g id="patch_170">
     <path d="M 362.075 132.857278 
L 382.075 132.857278 
L 382.075 125.857278 
L 362.075 125.857278 
z
" style="fill:#898989;"/>
    </g>
    <g id="text_27">
     <!-- EVD -->
     <g transform="translate(390.075 132.857278)scale(0.1 -0.1)">
      <defs>
       <path d="M 1831 0 
L 50 4666 
L 709 4666 
L 2188 738 
L 3669 4666 
L 4325 4666 
L 2547 0 
L 1831 0 
z
" id="DejaVuSans-56" transform="scale(0.015625)"/>
      </defs>
      <use xlink:href="#DejaVuSans-45"/>
      <use x="63.183594" xlink:href="#DejaVuSans-56"/>
      <use x="131.591797" xlink:href="#DejaVuSans-44"/>
     </g>
    </g>
    <g id="patch_171">
     <path d="M 362.075 147.535403 
L 382.075 147.535403 
L 382.075 140.535403 
L 362.075 140.535403 
z
" style="fill:#c85200;"/>
    </g>
    <g id="text_28">
     <!-- EVED -->
     <g transform="translate(390.075 147.535403)scale(0.1 -0.1)">
      <use xlink:href="#DejaVuSans-45"/>
      <use x="63.183594" xlink:href="#DejaVuSans-56"/>
      <use x="131.591797" xlink:href="#DejaVuSans-45"/>
      <use x="194.775391" xlink:href="#DejaVuSans-44"/>
     </g>
    </g>
    <g id="patch_172">
     <path d="M 362.075 162.213528 
L 382.075 162.213528 
L 382.075 155.213528 
L 362.075 155.213528 
z
" style="fill:#5f9ed1;"/>
    </g>
    <g id="text_29">
     <!-- Parl. -->
     <g transform="translate(390.075 162.213528)scale(0.1 -0.1)">
      <use xlink:href="#DejaVuSans-50"/>
      <use x="55.802734" xlink:href="#DejaVuSans-61"/>
      <use x="117.082031" xlink:href="#DejaVuSans-72"/>
      <use x="158.195312" xlink:href="#DejaVuSans-6c"/>
      <use x="185.978516" xlink:href="#DejaVuSans-2e"/>
     </g>
    </g>
    <g id="patch_173">
     <path d="M 362.075 176.891653 
L 382.075 176.891653 
L 382.075 169.891653 
L 362.075 169.891653 
z
" style="fill:#595959;"/>
    </g>
    <g id="text_30">
     <!-- UVEK -->
     <g transform="translate(390.075 176.891653)scale(0.1 -0.1)">
      <defs>
       <path d="M 556 4666 
L 1191 4666 
L 1191 1831 
Q 1191 1081 1462 751 
Q 1734 422 2344 422 
Q 2950 422 3222 751 
Q 3494 1081 3494 1831 
L 3494 4666 
L 4128 4666 
L 4128 1753 
Q 4128 841 3676 375 
Q 3225 -91 2344 -91 
Q 1459 -91 1007 375 
Q 556 841 556 1753 
L 556 4666 
z
" id="DejaVuSans-55" transform="scale(0.015625)"/>
      </defs>
      <use xlink:href="#DejaVuSans-55"/>
      <use x="73.193359" xlink:href="#DejaVuSans-56"/>
      <use x="141.601562" xlink:href="#DejaVuSans-45"/>
      <use x="204.785156" xlink:href="#DejaVuSans-4b"/>
     </g>
    </g>
    <g id="patch_174">
     <path d="M 362.075 191.569778 
L 382.075 191.569778 
L 382.075 184.569778 
L 362.075 184.569778 
z
" style="fill:#ababab;"/>
    </g>
    <g id="text_31">
     <!-- VBS -->
     <g transform="translate(390.075 191.569778)scale(0.1 -0.1)">
      <defs>
       <path d="M 3425 4513 
L 3425 3897 
Q 3066 4069 2747 4153 
Q 2428 4238 2131 4238 
Q 1616 4238 1336 4038 
Q 1056 3838 1056 3469 
Q 1056 3159 1242 3001 
Q 1428 2844 1947 2747 
L 2328 2669 
Q 3034 2534 3370 2195 
Q 3706 1856 3706 1288 
Q 3706 609 3251 259 
Q 2797 -91 1919 -91 
Q 1588 -91 1214 -16 
Q 841 59 441 206 
L 441 856 
Q 825 641 1194 531 
Q 1563 422 1919 422 
Q 2459 422 2753 634 
Q 3047 847 3047 1241 
Q 3047 1584 2836 1778 
Q 2625 1972 2144 2069 
L 1759 2144 
Q 1053 2284 737 2584 
Q 422 2884 422 3419 
Q 422 4038 858 4394 
Q 1294 4750 2059 4750 
Q 2388 4750 2728 4690 
Q 3069 4631 3425 4513 
z
" id="DejaVuSans-53" transform="scale(0.015625)"/>
      </defs>
      <use xlink:href="#DejaVuSans-56"/>
      <use x="68.408203" xlink:href="#DejaVuSans-42"/>
      <use x="135.261719" xlink:href="#DejaVuSans-53"/>
     </g>
    </g>
    <g id="patch_175">
     <path d="M 362.075 206.247903 
L 382.075 206.247903 
L 382.075 199.247903 
L 362.075 199.247903 
z
" style="fill:#ff800e;"/>
    </g>
    <g id="text_32">
     <!-- WBF -->
     <g transform="translate(390.075 206.247903)scale(0.1 -0.1)">
      <defs>
       <path d="M 213 4666 
L 850 4666 
L 1831 722 
L 2809 4666 
L 3519 4666 
L 4500 722 
L 5478 4666 
L 6119 4666 
L 4947 0 
L 4153 0 
L 3169 4050 
L 2175 0 
L 1381 0 
L 213 4666 
z
" id="DejaVuSans-57" transform="scale(0.015625)"/>
      </defs>
      <use xlink:href="#DejaVuSans-57"/>
      <use x="98.876953" xlink:href="#DejaVuSans-42"/>
      <use x="167.480469" xlink:href="#DejaVuSans-46"/>
     </g>
    </g>
    <g id="patch_176">
     <path d="M 362.075 220.926028 
L 382.075 220.926028 
L 382.075 213.926028 
L 362.075 213.926028 
z
" style="fill:#006ba4;"/>
    </g>
    <g id="text_33">
     <!-- other -->
     <g transform="translate(390.075 220.926028)scale(0.1 -0.1)">
      <use xlink:href="#DejaVuSans-6f"/>
      <use x="61.181641" xlink:href="#DejaVuSans-74"/>
      <use x="100.390625" xlink:href="#DejaVuSans-68"/>
      <use x="163.769531" xlink:href="#DejaVuSans-65"/>
      <use x="225.292969" xlink:href="#DejaVuSans-72"/>
     </g>
    </g>
   </g>
  </g>
 </g>
 <defs>
  <clipPath id="pde8a312751">
   <rect height="206.595806" width="302.4" x="50.675" y="26.8"/>
  </clipPath>
 </defs>
</svg>
