<?xml version="1.0" encoding="utf-8" standalone="no"?>
<!DOCTYPE svg PUBLIC "-//W3C//DTD SVG 1.1//EN"
  "http://www.w3.org/Graphics/SVG/1.1/DTD/svg11.dtd">
<svg height="288pt" version="1.1" viewBox="0 0 432 288" width="432pt" xmlns="http://www.w3.org/2000/svg" xmlns:xlink="http://www.w3.org/1999/xlink">
 <metadata>
  <rdf:RDF xmlns:cc="http://creativecommons.org/ns#" xmlns:dc="http://purl.org/dc/elements/1.1/" xmlns:rdf="http://www.w3.org/1999/02/22-rdf-syntax-ns#">
   <cc:Work>
    <dc:type rdf:resource="http://purl.org/dc/dcmitype/StillImage"/>
    <dc:date>2021-11-26T10:34:31.788575</dc:date>
    <dc:format>image/svg+xml</dc:format>
    <dc:creator>
     <cc:Agent>
      <dc:title>Matplotlib v3.4.2, https://matplotlib.org/</dc:title>
     </cc:Agent>
    </dc:creator>
   </cc:Work>
  </rdf:RDF>
 </metadata>
 <defs>
  <style type="text/css">*{stroke-linecap:butt;stroke-linejoin:round;}</style>
 </defs>
 <g id="figure_1">
  <g id="patch_1">
   <path d="M 0 288 
L 432 288 
L 432 0 
L 0 0 
z
" style="fill:none;"/>
  </g>
  <g id="axes_1">
   <g id="patch_2">
    <path d="M 57.676269 158.318744 
L 353.075 158.318744 
L 353.075 26.8 
L 57.676269 26.8 
z
" style="fill:#ffffff;"/>
   </g>
   <g id="patch_3">
    <path clip-path="url(#p0b666294fe)" d="M 71.103484 158.318744 
L 108.144078 158.318744 
L 108.144078 158.318744 
L 71.103484 158.318744 
z
" style="fill:#006ba4;"/>
   </g>
   <g id="patch_4">
    <path clip-path="url(#p0b666294fe)" d="M 117.404226 158.318744 
L 154.444819 158.318744 
L 154.444819 158.318744 
L 117.404226 158.318744 
z
" style="fill:#006ba4;"/>
   </g>
   <g id="patch_5">
    <path clip-path="url(#p0b666294fe)" d="M 163.704967 158.318744 
L 200.745561 158.318744 
L 200.745561 158.318744 
L 163.704967 158.318744 
z
" style="fill:#006ba4;"/>
   </g>
   <g id="patch_6">
    <path clip-path="url(#p0b666294fe)" d="M 210.005709 158.318744 
L 247.046302 158.318744 
L 247.046302 158.087217 
L 210.005709 158.087217 
z
" style="fill:#006ba4;"/>
   </g>
   <g id="patch_7">
    <path clip-path="url(#p0b666294fe)" d="M 256.30645 158.318744 
L 293.347043 158.318744 
L 293.347043 158.318744 
L 256.30645 158.318744 
z
" style="fill:#006ba4;"/>
   </g>
   <g id="patch_8">
    <path clip-path="url(#p0b666294fe)" d="M 302.607192 158.318744 
L 339.647785 158.318744 
L 339.647785 158.318744 
L 302.607192 158.318744 
z
" style="fill:#006ba4;"/>
   </g>
   <g id="patch_9">
    <path clip-path="url(#p0b666294fe)" d="M 71.103484 158.318744 
L 108.144078 158.318744 
L 108.144078 158.318744 
L 71.103484 158.318744 
z
" style="fill:#ff800e;"/>
   </g>
   <g id="patch_10">
    <path clip-path="url(#p0b666294fe)" d="M 117.404226 158.318744 
L 154.444819 158.318744 
L 154.444819 151.835996 
L 117.404226 151.835996 
z
" style="fill:#ff800e;"/>
   </g>
   <g id="patch_11">
    <path clip-path="url(#p0b666294fe)" d="M 163.704967 158.318744 
L 200.745561 158.318744 
L 200.745561 158.318744 
L 163.704967 158.318744 
z
" style="fill:#ff800e;"/>
   </g>
   <g id="patch_12">
    <path clip-path="url(#p0b666294fe)" d="M 210.005709 158.087217 
L 247.046302 158.087217 
L 247.046302 153.456683 
L 210.005709 153.456683 
z
" style="fill:#ff800e;"/>
   </g>
   <g id="patch_13">
    <path clip-path="url(#p0b666294fe)" d="M 256.30645 158.318744 
L 293.347043 158.318744 
L 293.347043 155.887713 
L 256.30645 155.887713 
z
" style="fill:#ff800e;"/>
   </g>
   <g id="patch_14">
    <path clip-path="url(#p0b666294fe)" d="M 302.607192 158.318744 
L 339.647785 158.318744 
L 339.647785 158.318744 
L 302.607192 158.318744 
z
" style="fill:#ff800e;"/>
   </g>
   <g id="patch_15">
    <path clip-path="url(#p0b666294fe)" d="M 71.103484 158.318744 
L 108.144078 158.318744 
L 108.144078 158.318744 
L 71.103484 158.318744 
z
" style="fill:#ababab;"/>
   </g>
   <g id="patch_16">
    <path clip-path="url(#p0b666294fe)" d="M 117.404226 151.835996 
L 154.444819 151.835996 
L 154.444819 147.784279 
L 117.404226 147.784279 
z
" style="fill:#ababab;"/>
   </g>
   <g id="patch_17">
    <path clip-path="url(#p0b666294fe)" d="M 163.704967 158.318744 
L 200.745561 158.318744 
L 200.745561 157.971454 
L 163.704967 157.971454 
z
" style="fill:#ababab;"/>
   </g>
   <g id="patch_18">
    <path clip-path="url(#p0b666294fe)" d="M 210.005709 153.456683 
L 247.046302 153.456683 
L 247.046302 151.835996 
L 210.005709 151.835996 
z
" style="fill:#ababab;"/>
   </g>
   <g id="patch_19">
    <path clip-path="url(#p0b666294fe)" d="M 256.30645 155.887713 
L 293.347043 155.887713 
L 293.347043 154.961607 
L 256.30645 154.961607 
z
" style="fill:#ababab;"/>
   </g>
   <g id="patch_20">
    <path clip-path="url(#p0b666294fe)" d="M 302.607192 158.318744 
L 339.647785 158.318744 
L 339.647785 158.318744 
L 302.607192 158.318744 
z
" style="fill:#ababab;"/>
   </g>
   <g id="patch_21">
    <path clip-path="url(#p0b666294fe)" d="M 71.103484 158.318744 
L 108.144078 158.318744 
L 108.144078 158.087217 
L 71.103484 158.087217 
z
" style="fill:#595959;"/>
   </g>
   <g id="patch_22">
    <path clip-path="url(#p0b666294fe)" d="M 117.404226 147.784279 
L 154.444819 147.784279 
L 154.444819 132.040463 
L 117.404226 132.040463 
z
" style="fill:#595959;"/>
   </g>
   <g id="patch_23">
    <path clip-path="url(#p0b666294fe)" d="M 163.704967 157.971454 
L 200.745561 157.971454 
L 200.745561 156.11924 
L 163.704967 156.11924 
z
" style="fill:#595959;"/>
   </g>
   <g id="patch_24">
    <path clip-path="url(#p0b666294fe)" d="M 210.005709 151.835996 
L 247.046302 151.835996 
L 247.046302 134.239967 
L 210.005709 134.239967 
z
" style="fill:#595959;"/>
   </g>
   <g id="patch_25">
    <path clip-path="url(#p0b666294fe)" d="M 256.30645 154.961607 
L 293.347043 154.961607 
L 293.347043 142.459165 
L 256.30645 142.459165 
z
" style="fill:#595959;"/>
   </g>
   <g id="patch_26">
    <path clip-path="url(#p0b666294fe)" d="M 302.607192 158.318744 
L 339.647785 158.318744 
L 339.647785 158.087217 
L 302.607192 158.087217 
z
" style="fill:#595959;"/>
   </g>
   <g id="patch_27">
    <path clip-path="url(#p0b666294fe)" d="M 71.103484 158.087217 
L 108.144078 158.087217 
L 108.144078 158.087217 
L 71.103484 158.087217 
z
" style="fill:#5f9ed1;"/>
   </g>
   <g id="patch_28">
    <path clip-path="url(#p0b666294fe)" d="M 117.404226 132.040463 
L 154.444819 132.040463 
L 154.444819 132.040463 
L 117.404226 132.040463 
z
" style="fill:#5f9ed1;"/>
   </g>
   <g id="patch_29">
    <path clip-path="url(#p0b666294fe)" d="M 163.704967 156.11924 
L 200.745561 156.11924 
L 200.745561 152.99363 
L 163.704967 152.99363 
z
" style="fill:#5f9ed1;"/>
   </g>
   <g id="patch_30">
    <path clip-path="url(#p0b666294fe)" d="M 210.005709 134.239967 
L 247.046302 134.239967 
L 247.046302 134.124203 
L 210.005709 134.124203 
z
" style="fill:#5f9ed1;"/>
   </g>
   <g id="patch_31">
    <path clip-path="url(#p0b666294fe)" d="M 256.30645 142.459165 
L 293.347043 142.459165 
L 293.347043 142.459165 
L 256.30645 142.459165 
z
" style="fill:#5f9ed1;"/>
   </g>
   <g id="patch_32">
    <path clip-path="url(#p0b666294fe)" d="M 302.607192 158.087217 
L 339.647785 158.087217 
L 339.647785 153.803973 
L 302.607192 153.803973 
z
" style="fill:#5f9ed1;"/>
   </g>
   <g id="patch_33">
    <path clip-path="url(#p0b666294fe)" d="M 71.103484 158.087217 
L 108.144078 158.087217 
L 108.144078 158.087217 
L 71.103484 158.087217 
z
" style="fill:#c85200;"/>
   </g>
   <g id="patch_34">
    <path clip-path="url(#p0b666294fe)" d="M 117.404226 132.040463 
L 154.444819 132.040463 
L 154.444819 130.072486 
L 117.404226 130.072486 
z
" style="fill:#c85200;"/>
   </g>
   <g id="patch_35">
    <path clip-path="url(#p0b666294fe)" d="M 163.704967 152.99363 
L 200.745561 152.99363 
L 200.745561 152.99363 
L 163.704967 152.99363 
z
" style="fill:#c85200;"/>
   </g>
   <g id="patch_36">
    <path clip-path="url(#p0b666294fe)" d="M 210.005709 134.124203 
L 247.046302 134.124203 
L 247.046302 134.124203 
L 210.005709 134.124203 
z
" style="fill:#c85200;"/>
   </g>
   <g id="patch_37">
    <path clip-path="url(#p0b666294fe)" d="M 256.30645 142.459165 
L 293.347043 142.459165 
L 293.347043 142.459165 
L 256.30645 142.459165 
z
" style="fill:#c85200;"/>
   </g>
   <g id="patch_38">
    <path clip-path="url(#p0b666294fe)" d="M 302.607192 153.803973 
L 339.647785 153.803973 
L 339.647785 153.803973 
L 302.607192 153.803973 
z
" style="fill:#c85200;"/>
   </g>
   <g id="patch_39">
    <path clip-path="url(#p0b666294fe)" d="M 71.103484 158.087217 
L 108.144078 158.087217 
L 108.144078 158.087217 
L 71.103484 158.087217 
z
" style="fill:#898989;"/>
   </g>
   <g id="patch_40">
    <path clip-path="url(#p0b666294fe)" d="M 117.404226 130.072486 
L 154.444819 130.072486 
L 154.444819 118.148861 
L 117.404226 118.148861 
z
" style="fill:#898989;"/>
   </g>
   <g id="patch_41">
    <path clip-path="url(#p0b666294fe)" d="M 163.704967 152.99363 
L 200.745561 152.99363 
L 200.745561 152.64634 
L 163.704967 152.64634 
z
" style="fill:#898989;"/>
   </g>
   <g id="patch_42">
    <path clip-path="url(#p0b666294fe)" d="M 210.005709 134.124203 
L 247.046302 134.124203 
L 247.046302 130.419776 
L 210.005709 130.419776 
z
" style="fill:#898989;"/>
   </g>
   <g id="patch_43">
    <path clip-path="url(#p0b666294fe)" d="M 256.30645 142.459165 
L 293.347043 142.459165 
L 293.347043 134.471493 
L 256.30645 134.471493 
z
" style="fill:#898989;"/>
   </g>
   <g id="patch_44">
    <path clip-path="url(#p0b666294fe)" d="M 302.607192 153.803973 
L 339.647785 153.803973 
L 339.647785 153.803973 
L 302.607192 153.803973 
z
" style="fill:#898989;"/>
   </g>
   <g id="patch_45">
    <path clip-path="url(#p0b666294fe)" d="M 71.103484 158.087217 
L 108.144078 158.087217 
L 108.144078 158.087217 
L 71.103484 158.087217 
z
" style="fill:#a2c8ec;"/>
   </g>
   <g id="patch_46">
    <path clip-path="url(#p0b666294fe)" d="M 117.404226 118.148861 
L 154.444819 118.148861 
L 154.444819 117.338517 
L 117.404226 117.338517 
z
" style="fill:#a2c8ec;"/>
   </g>
   <g id="patch_47">
    <path clip-path="url(#p0b666294fe)" d="M 163.704967 152.64634 
L 200.745561 152.64634 
L 200.745561 152.64634 
L 163.704967 152.64634 
z
" style="fill:#a2c8ec;"/>
   </g>
   <g id="patch_48">
    <path clip-path="url(#p0b666294fe)" d="M 210.005709 130.419776 
L 247.046302 130.419776 
L 247.046302 130.419776 
L 210.005709 130.419776 
z
" style="fill:#a2c8ec;"/>
   </g>
   <g id="patch_49">
    <path clip-path="url(#p0b666294fe)" d="M 256.30645 134.471493 
L 293.347043 134.471493 
L 293.347043 134.471493 
L 256.30645 134.471493 
z
" style="fill:#a2c8ec;"/>
   </g>
   <g id="patch_50">
    <path clip-path="url(#p0b666294fe)" d="M 302.607192 153.803973 
L 339.647785 153.803973 
L 339.647785 153.803973 
L 302.607192 153.803973 
z
" style="fill:#a2c8ec;"/>
   </g>
   <g id="patch_51">
    <path clip-path="url(#p0b666294fe)" d="M 71.103484 158.087217 
L 108.144078 158.087217 
L 108.144078 157.392637 
L 71.103484 157.392637 
z
" style="fill:#ffbc79;"/>
   </g>
   <g id="patch_52">
    <path clip-path="url(#p0b666294fe)" d="M 117.404226 117.338517 
L 154.444819 117.338517 
L 154.444819 80.062718 
L 117.404226 80.062718 
z
" style="fill:#ffbc79;"/>
   </g>
   <g id="patch_53">
    <path clip-path="url(#p0b666294fe)" d="M 163.704967 152.64634 
L 200.745561 152.64634 
L 200.745561 150.215309 
L 163.704967 150.215309 
z
" style="fill:#ffbc79;"/>
   </g>
   <g id="patch_54">
    <path clip-path="url(#p0b666294fe)" d="M 210.005709 130.419776 
L 247.046302 130.419776 
L 247.046302 125.094662 
L 210.005709 125.094662 
z
" style="fill:#ffbc79;"/>
   </g>
   <g id="patch_55">
    <path clip-path="url(#p0b666294fe)" d="M 256.30645 134.471493 
L 293.347043 134.471493 
L 293.347043 132.27199 
L 256.30645 132.27199 
z
" style="fill:#ffbc79;"/>
   </g>
   <g id="patch_56">
    <path clip-path="url(#p0b666294fe)" d="M 302.607192 153.803973 
L 339.647785 153.803973 
L 339.647785 153.803973 
L 302.607192 153.803973 
z
" style="fill:#ffbc79;"/>
   </g>
   <g id="patch_57">
    <path clip-path="url(#p0b666294fe)" d="M 71.103484 157.392637 
L 108.144078 157.392637 
L 108.144078 156.929584 
L 71.103484 156.929584 
z
" style="fill:#cfcfcf;"/>
   </g>
   <g id="patch_58">
    <path clip-path="url(#p0b666294fe)" d="M 117.404226 80.062718 
L 154.444819 80.062718 
L 154.444819 59.225315 
L 117.404226 59.225315 
z
" style="fill:#cfcfcf;"/>
   </g>
   <g id="patch_59">
    <path clip-path="url(#p0b666294fe)" d="M 163.704967 150.215309 
L 200.745561 150.215309 
L 200.745561 149.520729 
L 163.704967 149.520729 
z
" style="fill:#cfcfcf;"/>
   </g>
   <g id="patch_60">
    <path clip-path="url(#p0b666294fe)" d="M 210.005709 125.094662 
L 247.046302 125.094662 
L 247.046302 119.074968 
L 210.005709 119.074968 
z
" style="fill:#cfcfcf;"/>
   </g>
   <g id="patch_61">
    <path clip-path="url(#p0b666294fe)" d="M 256.30645 132.27199 
L 293.347043 132.27199 
L 293.347043 127.872982 
L 256.30645 127.872982 
z
" style="fill:#cfcfcf;"/>
   </g>
   <g id="patch_62">
    <path clip-path="url(#p0b666294fe)" d="M 302.607192 153.803973 
L 339.647785 153.803973 
L 339.647785 153.803973 
L 302.607192 153.803973 
z
" style="fill:#cfcfcf;"/>
   </g>
   <g id="patch_63">
    <path clip-path="url(#p0b666294fe)" d="M 71.103484 156.929584 
L 108.144078 156.929584 
L 108.144078 156.929584 
L 71.103484 156.929584 
z
" style="fill:#006ba4;"/>
   </g>
   <g id="patch_64">
    <path clip-path="url(#p0b666294fe)" d="M 117.404226 59.225315 
L 154.444819 59.225315 
L 154.444819 38.272148 
L 117.404226 38.272148 
z
" style="fill:#006ba4;"/>
   </g>
   <g id="patch_65">
    <path clip-path="url(#p0b666294fe)" d="M 163.704967 149.520729 
L 200.745561 149.520729 
L 200.745561 149.057676 
L 163.704967 149.057676 
z
" style="fill:#006ba4;"/>
   </g>
   <g id="patch_66">
    <path clip-path="url(#p0b666294fe)" d="M 210.005709 119.074968 
L 247.046302 119.074968 
L 247.046302 106.109472 
L 210.005709 106.109472 
z
" style="fill:#006ba4;"/>
   </g>
   <g id="patch_67">
    <path clip-path="url(#p0b666294fe)" d="M 256.30645 127.872982 
L 293.347043 127.872982 
L 293.347043 123.242448 
L 256.30645 123.242448 
z
" style="fill:#006ba4;"/>
   </g>
   <g id="patch_68">
    <path clip-path="url(#p0b666294fe)" d="M 302.607192 153.803973 
L 339.647785 153.803973 
L 339.647785 153.803973 
L 302.607192 153.803973 
z
" style="fill:#006ba4;"/>
   </g>
   <g id="patch_69">
    <path clip-path="url(#p0b666294fe)" d="M 71.103484 156.929584 
L 108.144078 156.929584 
L 108.144078 156.929584 
L 71.103484 156.929584 
z
" style="fill:#ff800e;"/>
   </g>
   <g id="patch_70">
    <path clip-path="url(#p0b666294fe)" d="M 117.404226 38.272148 
L 154.444819 38.272148 
L 154.444819 34.799248 
L 117.404226 34.799248 
z
" style="fill:#ff800e;"/>
   </g>
   <g id="patch_71">
    <path clip-path="url(#p0b666294fe)" d="M 163.704967 149.057676 
L 200.745561 149.057676 
L 200.745561 148.941912 
L 163.704967 148.941912 
z
" style="fill:#ff800e;"/>
   </g>
   <g id="patch_72">
    <path clip-path="url(#p0b666294fe)" d="M 210.005709 106.109472 
L 247.046302 106.109472 
L 247.046302 105.762182 
L 210.005709 105.762182 
z
" style="fill:#ff800e;"/>
   </g>
   <g id="patch_73">
    <path clip-path="url(#p0b666294fe)" d="M 256.30645 123.242448 
L 293.347043 123.242448 
L 293.347043 123.242448 
L 256.30645 123.242448 
z
" style="fill:#ff800e;"/>
   </g>
   <g id="patch_74">
    <path clip-path="url(#p0b666294fe)" d="M 302.607192 153.803973 
L 339.647785 153.803973 
L 339.647785 153.803973 
L 302.607192 153.803973 
z
" style="fill:#ff800e;"/>
   </g>
   <g id="patch_75">
    <path clip-path="url(#p0b666294fe)" d="M 71.103484 156.929584 
L 108.144078 156.929584 
L 108.144078 156.929584 
L 71.103484 156.929584 
z
" style="fill:#ababab;"/>
   </g>
   <g id="patch_76">
    <path clip-path="url(#p0b666294fe)" d="M 117.404226 34.799248 
L 154.444819 34.799248 
L 154.444819 33.062797 
L 117.404226 33.062797 
z
" style="fill:#ababab;"/>
   </g>
   <g id="patch_77">
    <path clip-path="url(#p0b666294fe)" d="M 163.704967 148.941912 
L 200.745561 148.941912 
L 200.745561 148.826149 
L 163.704967 148.826149 
z
" style="fill:#ababab;"/>
   </g>
   <g id="patch_78">
    <path clip-path="url(#p0b666294fe)" d="M 210.005709 105.762182 
L 247.046302 105.762182 
L 247.046302 105.183365 
L 210.005709 105.183365 
z
" style="fill:#ababab;"/>
   </g>
   <g id="patch_79">
    <path clip-path="url(#p0b666294fe)" d="M 256.30645 123.242448 
L 293.347043 123.242448 
L 293.347043 123.126685 
L 256.30645 123.126685 
z
" style="fill:#ababab;"/>
   </g>
   <g id="patch_80">
    <path clip-path="url(#p0b666294fe)" d="M 302.607192 153.803973 
L 339.647785 153.803973 
L 339.647785 153.803973 
L 302.607192 153.803973 
z
" style="fill:#ababab;"/>
   </g>
   <g id="matplotlib.axis_1">
    <g id="xtick_1">
     <g id="line2d_1">
      <defs>
       <path d="M 0 0 
L 0 3.5 
" id="m112af4ca5a" style="stroke:#000000;stroke-width:0.8;"/>
      </defs>
      <g>
       <use style="stroke:#000000;stroke-width:0.8;" x="89.623781" xlink:href="#m112af4ca5a" y="158.318744"/>
      </g>
     </g>
     <g id="text_1">
      <!-- Behördenkommission -->
      <g transform="translate(11.994505 246.850365)rotate(-45)scale(0.1 -0.1)">
       <defs>
        <path d="M 1259 2228 
L 1259 519 
L 2272 519 
Q 2781 519 3026 730 
Q 3272 941 3272 1375 
Q 3272 1813 3026 2020 
Q 2781 2228 2272 2228 
L 1259 2228 
z
M 1259 4147 
L 1259 2741 
L 2194 2741 
Q 2656 2741 2882 2914 
Q 3109 3088 3109 3444 
Q 3109 3797 2882 3972 
Q 2656 4147 2194 4147 
L 1259 4147 
z
M 628 4666 
L 2241 4666 
Q 2963 4666 3353 4366 
Q 3744 4066 3744 3513 
Q 3744 3084 3544 2831 
Q 3344 2578 2956 2516 
Q 3422 2416 3680 2098 
Q 3938 1781 3938 1306 
Q 3938 681 3513 340 
Q 3088 0 2303 0 
L 628 0 
L 628 4666 
z
" id="DejaVuSans-42" transform="scale(0.015625)"/>
        <path d="M 3597 1894 
L 3597 1613 
L 953 1613 
Q 991 1019 1311 708 
Q 1631 397 2203 397 
Q 2534 397 2845 478 
Q 3156 559 3463 722 
L 3463 178 
Q 3153 47 2828 -22 
Q 2503 -91 2169 -91 
Q 1331 -91 842 396 
Q 353 884 353 1716 
Q 353 2575 817 3079 
Q 1281 3584 2069 3584 
Q 2775 3584 3186 3129 
Q 3597 2675 3597 1894 
z
M 3022 2063 
Q 3016 2534 2758 2815 
Q 2500 3097 2075 3097 
Q 1594 3097 1305 2825 
Q 1016 2553 972 2059 
L 3022 2063 
z
" id="DejaVuSans-65" transform="scale(0.015625)"/>
        <path d="M 3513 2113 
L 3513 0 
L 2938 0 
L 2938 2094 
Q 2938 2591 2744 2837 
Q 2550 3084 2163 3084 
Q 1697 3084 1428 2787 
Q 1159 2491 1159 1978 
L 1159 0 
L 581 0 
L 581 4863 
L 1159 4863 
L 1159 2956 
Q 1366 3272 1645 3428 
Q 1925 3584 2291 3584 
Q 2894 3584 3203 3211 
Q 3513 2838 3513 2113 
z
" id="DejaVuSans-68" transform="scale(0.015625)"/>
        <path d="M 1959 3097 
Q 1497 3097 1228 2736 
Q 959 2375 959 1747 
Q 959 1119 1226 758 
Q 1494 397 1959 397 
Q 2419 397 2687 759 
Q 2956 1122 2956 1747 
Q 2956 2369 2687 2733 
Q 2419 3097 1959 3097 
z
M 1959 3584 
Q 2709 3584 3137 3096 
Q 3566 2609 3566 1747 
Q 3566 888 3137 398 
Q 2709 -91 1959 -91 
Q 1206 -91 779 398 
Q 353 888 353 1747 
Q 353 2609 779 3096 
Q 1206 3584 1959 3584 
z
M 2254 4850 
L 2888 4850 
L 2888 4219 
L 2254 4219 
L 2254 4850 
z
M 1032 4850 
L 1666 4850 
L 1666 4219 
L 1032 4219 
L 1032 4850 
z
" id="DejaVuSans-f6" transform="scale(0.015625)"/>
        <path d="M 2631 2963 
Q 2534 3019 2420 3045 
Q 2306 3072 2169 3072 
Q 1681 3072 1420 2755 
Q 1159 2438 1159 1844 
L 1159 0 
L 581 0 
L 581 3500 
L 1159 3500 
L 1159 2956 
Q 1341 3275 1631 3429 
Q 1922 3584 2338 3584 
Q 2397 3584 2469 3576 
Q 2541 3569 2628 3553 
L 2631 2963 
z
" id="DejaVuSans-72" transform="scale(0.015625)"/>
        <path d="M 2906 2969 
L 2906 4863 
L 3481 4863 
L 3481 0 
L 2906 0 
L 2906 525 
Q 2725 213 2448 61 
Q 2172 -91 1784 -91 
Q 1150 -91 751 415 
Q 353 922 353 1747 
Q 353 2572 751 3078 
Q 1150 3584 1784 3584 
Q 2172 3584 2448 3432 
Q 2725 3281 2906 2969 
z
M 947 1747 
Q 947 1113 1208 752 
Q 1469 391 1925 391 
Q 2381 391 2643 752 
Q 2906 1113 2906 1747 
Q 2906 2381 2643 2742 
Q 2381 3103 1925 3103 
Q 1469 3103 1208 2742 
Q 947 2381 947 1747 
z
" id="DejaVuSans-64" transform="scale(0.015625)"/>
        <path d="M 3513 2113 
L 3513 0 
L 2938 0 
L 2938 2094 
Q 2938 2591 2744 2837 
Q 2550 3084 2163 3084 
Q 1697 3084 1428 2787 
Q 1159 2491 1159 1978 
L 1159 0 
L 581 0 
L 581 3500 
L 1159 3500 
L 1159 2956 
Q 1366 3272 1645 3428 
Q 1925 3584 2291 3584 
Q 2894 3584 3203 3211 
Q 3513 2838 3513 2113 
z
" id="DejaVuSans-6e" transform="scale(0.015625)"/>
        <path d="M 581 4863 
L 1159 4863 
L 1159 1991 
L 2875 3500 
L 3609 3500 
L 1753 1863 
L 3688 0 
L 2938 0 
L 1159 1709 
L 1159 0 
L 581 0 
L 581 4863 
z
" id="DejaVuSans-6b" transform="scale(0.015625)"/>
        <path d="M 1959 3097 
Q 1497 3097 1228 2736 
Q 959 2375 959 1747 
Q 959 1119 1226 758 
Q 1494 397 1959 397 
Q 2419 397 2687 759 
Q 2956 1122 2956 1747 
Q 2956 2369 2687 2733 
Q 2419 3097 1959 3097 
z
M 1959 3584 
Q 2709 3584 3137 3096 
Q 3566 2609 3566 1747 
Q 3566 888 3137 398 
Q 2709 -91 1959 -91 
Q 1206 -91 779 398 
Q 353 888 353 1747 
Q 353 2609 779 3096 
Q 1206 3584 1959 3584 
z
" id="DejaVuSans-6f" transform="scale(0.015625)"/>
        <path d="M 3328 2828 
Q 3544 3216 3844 3400 
Q 4144 3584 4550 3584 
Q 5097 3584 5394 3201 
Q 5691 2819 5691 2113 
L 5691 0 
L 5113 0 
L 5113 2094 
Q 5113 2597 4934 2840 
Q 4756 3084 4391 3084 
Q 3944 3084 3684 2787 
Q 3425 2491 3425 1978 
L 3425 0 
L 2847 0 
L 2847 2094 
Q 2847 2600 2669 2842 
Q 2491 3084 2119 3084 
Q 1678 3084 1418 2786 
Q 1159 2488 1159 1978 
L 1159 0 
L 581 0 
L 581 3500 
L 1159 3500 
L 1159 2956 
Q 1356 3278 1631 3431 
Q 1906 3584 2284 3584 
Q 2666 3584 2933 3390 
Q 3200 3197 3328 2828 
z
" id="DejaVuSans-6d" transform="scale(0.015625)"/>
        <path d="M 603 3500 
L 1178 3500 
L 1178 0 
L 603 0 
L 603 3500 
z
M 603 4863 
L 1178 4863 
L 1178 4134 
L 603 4134 
L 603 4863 
z
" id="DejaVuSans-69" transform="scale(0.015625)"/>
        <path d="M 2834 3397 
L 2834 2853 
Q 2591 2978 2328 3040 
Q 2066 3103 1784 3103 
Q 1356 3103 1142 2972 
Q 928 2841 928 2578 
Q 928 2378 1081 2264 
Q 1234 2150 1697 2047 
L 1894 2003 
Q 2506 1872 2764 1633 
Q 3022 1394 3022 966 
Q 3022 478 2636 193 
Q 2250 -91 1575 -91 
Q 1294 -91 989 -36 
Q 684 19 347 128 
L 347 722 
Q 666 556 975 473 
Q 1284 391 1588 391 
Q 1994 391 2212 530 
Q 2431 669 2431 922 
Q 2431 1156 2273 1281 
Q 2116 1406 1581 1522 
L 1381 1569 
Q 847 1681 609 1914 
Q 372 2147 372 2553 
Q 372 3047 722 3315 
Q 1072 3584 1716 3584 
Q 2034 3584 2315 3537 
Q 2597 3491 2834 3397 
z
" id="DejaVuSans-73" transform="scale(0.015625)"/>
       </defs>
       <use xlink:href="#DejaVuSans-42"/>
       <use x="68.603516" xlink:href="#DejaVuSans-65"/>
       <use x="130.126953" xlink:href="#DejaVuSans-68"/>
       <use x="193.505859" xlink:href="#DejaVuSans-f6"/>
       <use x="254.6875" xlink:href="#DejaVuSans-72"/>
       <use x="294.050781" xlink:href="#DejaVuSans-64"/>
       <use x="357.527344" xlink:href="#DejaVuSans-65"/>
       <use x="419.050781" xlink:href="#DejaVuSans-6e"/>
       <use x="482.429688" xlink:href="#DejaVuSans-6b"/>
       <use x="536.714844" xlink:href="#DejaVuSans-6f"/>
       <use x="597.896484" xlink:href="#DejaVuSans-6d"/>
       <use x="695.308594" xlink:href="#DejaVuSans-6d"/>
       <use x="792.720703" xlink:href="#DejaVuSans-69"/>
       <use x="820.503906" xlink:href="#DejaVuSans-73"/>
       <use x="872.603516" xlink:href="#DejaVuSans-73"/>
       <use x="924.703125" xlink:href="#DejaVuSans-69"/>
       <use x="952.486328" xlink:href="#DejaVuSans-6f"/>
       <use x="1013.667969" xlink:href="#DejaVuSans-6e"/>
      </g>
     </g>
    </g>
    <g id="xtick_2">
     <g id="line2d_2">
      <g>
       <use style="stroke:#000000;stroke-width:0.8;" x="135.924522" xlink:href="#m112af4ca5a" y="158.318744"/>
      </g>
     </g>
     <g id="text_2">
      <!-- Bundesrat -->
      <g transform="translate(98.104253 207.041358)rotate(-45)scale(0.1 -0.1)">
       <defs>
        <path d="M 544 1381 
L 544 3500 
L 1119 3500 
L 1119 1403 
Q 1119 906 1312 657 
Q 1506 409 1894 409 
Q 2359 409 2629 706 
Q 2900 1003 2900 1516 
L 2900 3500 
L 3475 3500 
L 3475 0 
L 2900 0 
L 2900 538 
Q 2691 219 2414 64 
Q 2138 -91 1772 -91 
Q 1169 -91 856 284 
Q 544 659 544 1381 
z
M 1991 3584 
L 1991 3584 
z
" id="DejaVuSans-75" transform="scale(0.015625)"/>
        <path d="M 2194 1759 
Q 1497 1759 1228 1600 
Q 959 1441 959 1056 
Q 959 750 1161 570 
Q 1363 391 1709 391 
Q 2188 391 2477 730 
Q 2766 1069 2766 1631 
L 2766 1759 
L 2194 1759 
z
M 3341 1997 
L 3341 0 
L 2766 0 
L 2766 531 
Q 2569 213 2275 61 
Q 1981 -91 1556 -91 
Q 1019 -91 701 211 
Q 384 513 384 1019 
Q 384 1609 779 1909 
Q 1175 2209 1959 2209 
L 2766 2209 
L 2766 2266 
Q 2766 2663 2505 2880 
Q 2244 3097 1772 3097 
Q 1472 3097 1187 3025 
Q 903 2953 641 2809 
L 641 3341 
Q 956 3463 1253 3523 
Q 1550 3584 1831 3584 
Q 2591 3584 2966 3190 
Q 3341 2797 3341 1997 
z
" id="DejaVuSans-61" transform="scale(0.015625)"/>
        <path d="M 1172 4494 
L 1172 3500 
L 2356 3500 
L 2356 3053 
L 1172 3053 
L 1172 1153 
Q 1172 725 1289 603 
Q 1406 481 1766 481 
L 2356 481 
L 2356 0 
L 1766 0 
Q 1100 0 847 248 
Q 594 497 594 1153 
L 594 3053 
L 172 3053 
L 172 3500 
L 594 3500 
L 594 4494 
L 1172 4494 
z
" id="DejaVuSans-74" transform="scale(0.015625)"/>
       </defs>
       <use xlink:href="#DejaVuSans-42"/>
       <use x="68.603516" xlink:href="#DejaVuSans-75"/>
       <use x="131.982422" xlink:href="#DejaVuSans-6e"/>
       <use x="195.361328" xlink:href="#DejaVuSans-64"/>
       <use x="258.837891" xlink:href="#DejaVuSans-65"/>
       <use x="320.361328" xlink:href="#DejaVuSans-73"/>
       <use x="372.460938" xlink:href="#DejaVuSans-72"/>
       <use x="413.574219" xlink:href="#DejaVuSans-61"/>
       <use x="474.853516" xlink:href="#DejaVuSans-74"/>
      </g>
     </g>
    </g>
    <g id="xtick_3">
     <g id="line2d_3">
      <g>
       <use style="stroke:#000000;stroke-width:0.8;" x="182.225264" xlink:href="#m112af4ca5a" y="158.318744"/>
      </g>
     </g>
     <g id="text_3">
      <!-- Bundesversammlung -->
      <g transform="translate(105.766029 245.680325)rotate(-45)scale(0.1 -0.1)">
       <defs>
        <path d="M 191 3500 
L 800 3500 
L 1894 563 
L 2988 3500 
L 3597 3500 
L 2284 0 
L 1503 0 
L 191 3500 
z
" id="DejaVuSans-76" transform="scale(0.015625)"/>
        <path d="M 603 4863 
L 1178 4863 
L 1178 0 
L 603 0 
L 603 4863 
z
" id="DejaVuSans-6c" transform="scale(0.015625)"/>
        <path d="M 2906 1791 
Q 2906 2416 2648 2759 
Q 2391 3103 1925 3103 
Q 1463 3103 1205 2759 
Q 947 2416 947 1791 
Q 947 1169 1205 825 
Q 1463 481 1925 481 
Q 2391 481 2648 825 
Q 2906 1169 2906 1791 
z
M 3481 434 
Q 3481 -459 3084 -895 
Q 2688 -1331 1869 -1331 
Q 1566 -1331 1297 -1286 
Q 1028 -1241 775 -1147 
L 775 -588 
Q 1028 -725 1275 -790 
Q 1522 -856 1778 -856 
Q 2344 -856 2625 -561 
Q 2906 -266 2906 331 
L 2906 616 
Q 2728 306 2450 153 
Q 2172 0 1784 0 
Q 1141 0 747 490 
Q 353 981 353 1791 
Q 353 2603 747 3093 
Q 1141 3584 1784 3584 
Q 2172 3584 2450 3431 
Q 2728 3278 2906 2969 
L 2906 3500 
L 3481 3500 
L 3481 434 
z
" id="DejaVuSans-67" transform="scale(0.015625)"/>
       </defs>
       <use xlink:href="#DejaVuSans-42"/>
       <use x="68.603516" xlink:href="#DejaVuSans-75"/>
       <use x="131.982422" xlink:href="#DejaVuSans-6e"/>
       <use x="195.361328" xlink:href="#DejaVuSans-64"/>
       <use x="258.837891" xlink:href="#DejaVuSans-65"/>
       <use x="320.361328" xlink:href="#DejaVuSans-73"/>
       <use x="372.460938" xlink:href="#DejaVuSans-76"/>
       <use x="431.640625" xlink:href="#DejaVuSans-65"/>
       <use x="493.164062" xlink:href="#DejaVuSans-72"/>
       <use x="534.277344" xlink:href="#DejaVuSans-73"/>
       <use x="586.376953" xlink:href="#DejaVuSans-61"/>
       <use x="647.65625" xlink:href="#DejaVuSans-6d"/>
       <use x="745.068359" xlink:href="#DejaVuSans-6d"/>
       <use x="842.480469" xlink:href="#DejaVuSans-6c"/>
       <use x="870.263672" xlink:href="#DejaVuSans-75"/>
       <use x="933.642578" xlink:href="#DejaVuSans-6e"/>
       <use x="997.021484" xlink:href="#DejaVuSans-67"/>
      </g>
     </g>
    </g>
    <g id="xtick_4">
     <g id="line2d_4">
      <g>
       <use style="stroke:#000000;stroke-width:0.8;" x="228.526005" xlink:href="#m112af4ca5a" y="158.318744"/>
      </g>
     </g>
     <g id="text_4">
      <!-- Departement oder -->
      <g transform="translate(153.676985 236.152061)rotate(-45)scale(0.1 -0.1)">
       <defs>
        <path d="M 1259 4147 
L 1259 519 
L 2022 519 
Q 2988 519 3436 956 
Q 3884 1394 3884 2338 
Q 3884 3275 3436 3711 
Q 2988 4147 2022 4147 
L 1259 4147 
z
M 628 4666 
L 1925 4666 
Q 3281 4666 3915 4102 
Q 4550 3538 4550 2338 
Q 4550 1131 3912 565 
Q 3275 0 1925 0 
L 628 0 
L 628 4666 
z
" id="DejaVuSans-44" transform="scale(0.015625)"/>
        <path d="M 1159 525 
L 1159 -1331 
L 581 -1331 
L 581 3500 
L 1159 3500 
L 1159 2969 
Q 1341 3281 1617 3432 
Q 1894 3584 2278 3584 
Q 2916 3584 3314 3078 
Q 3713 2572 3713 1747 
Q 3713 922 3314 415 
Q 2916 -91 2278 -91 
Q 1894 -91 1617 61 
Q 1341 213 1159 525 
z
M 3116 1747 
Q 3116 2381 2855 2742 
Q 2594 3103 2138 3103 
Q 1681 3103 1420 2742 
Q 1159 2381 1159 1747 
Q 1159 1113 1420 752 
Q 1681 391 2138 391 
Q 2594 391 2855 752 
Q 3116 1113 3116 1747 
z
" id="DejaVuSans-70" transform="scale(0.015625)"/>
        <path id="DejaVuSans-20" transform="scale(0.015625)"/>
       </defs>
       <use xlink:href="#DejaVuSans-44"/>
       <use x="77.001953" xlink:href="#DejaVuSans-65"/>
       <use x="138.525391" xlink:href="#DejaVuSans-70"/>
       <use x="202.001953" xlink:href="#DejaVuSans-61"/>
       <use x="263.28125" xlink:href="#DejaVuSans-72"/>
       <use x="304.394531" xlink:href="#DejaVuSans-74"/>
       <use x="343.603516" xlink:href="#DejaVuSans-65"/>
       <use x="405.126953" xlink:href="#DejaVuSans-6d"/>
       <use x="502.539062" xlink:href="#DejaVuSans-65"/>
       <use x="564.0625" xlink:href="#DejaVuSans-6e"/>
       <use x="627.441406" xlink:href="#DejaVuSans-74"/>
       <use x="666.650391" xlink:href="#DejaVuSans-20"/>
       <use x="698.4375" xlink:href="#DejaVuSans-6f"/>
       <use x="759.619141" xlink:href="#DejaVuSans-64"/>
       <use x="823.095703" xlink:href="#DejaVuSans-65"/>
       <use x="884.619141" xlink:href="#DejaVuSans-72"/>
      </g>
      <!-- Bundeskanzlei -->
      <g transform="translate(175.941568 229.723576)rotate(-45)scale(0.1 -0.1)">
       <defs>
        <path d="M 353 3500 
L 3084 3500 
L 3084 2975 
L 922 459 
L 3084 459 
L 3084 0 
L 275 0 
L 275 525 
L 2438 3041 
L 353 3041 
L 353 3500 
z
" id="DejaVuSans-7a" transform="scale(0.015625)"/>
       </defs>
       <use xlink:href="#DejaVuSans-42"/>
       <use x="68.603516" xlink:href="#DejaVuSans-75"/>
       <use x="131.982422" xlink:href="#DejaVuSans-6e"/>
       <use x="195.361328" xlink:href="#DejaVuSans-64"/>
       <use x="258.837891" xlink:href="#DejaVuSans-65"/>
       <use x="320.361328" xlink:href="#DejaVuSans-73"/>
       <use x="372.460938" xlink:href="#DejaVuSans-6b"/>
       <use x="428.621094" xlink:href="#DejaVuSans-61"/>
       <use x="489.900391" xlink:href="#DejaVuSans-6e"/>
       <use x="553.279297" xlink:href="#DejaVuSans-7a"/>
       <use x="605.769531" xlink:href="#DejaVuSans-6c"/>
       <use x="633.552734" xlink:href="#DejaVuSans-65"/>
       <use x="695.076172" xlink:href="#DejaVuSans-69"/>
      </g>
     </g>
    </g>
    <g id="xtick_5">
     <g id="line2d_5">
      <g>
       <use style="stroke:#000000;stroke-width:0.8;" x="274.826747" xlink:href="#m112af4ca5a" y="158.318744"/>
      </g>
     </g>
     <g id="text_5">
      <!-- Einheit der -->
      <g transform="translate(211.125486 209.168203)rotate(-45)scale(0.1 -0.1)">
       <defs>
        <path d="M 628 4666 
L 3578 4666 
L 3578 4134 
L 1259 4134 
L 1259 2753 
L 3481 2753 
L 3481 2222 
L 1259 2222 
L 1259 531 
L 3634 531 
L 3634 0 
L 628 0 
L 628 4666 
z
" id="DejaVuSans-45" transform="scale(0.015625)"/>
       </defs>
       <use xlink:href="#DejaVuSans-45"/>
       <use x="63.183594" xlink:href="#DejaVuSans-69"/>
       <use x="90.966797" xlink:href="#DejaVuSans-6e"/>
       <use x="154.345703" xlink:href="#DejaVuSans-68"/>
       <use x="217.724609" xlink:href="#DejaVuSans-65"/>
       <use x="279.248047" xlink:href="#DejaVuSans-69"/>
       <use x="307.03125" xlink:href="#DejaVuSans-74"/>
       <use x="346.240234" xlink:href="#DejaVuSans-20"/>
       <use x="378.027344" xlink:href="#DejaVuSans-64"/>
       <use x="441.503906" xlink:href="#DejaVuSans-65"/>
       <use x="503.027344" xlink:href="#DejaVuSans-72"/>
      </g>
      <!-- zentralen oder -->
      <g transform="translate(205.847155 230.282633)rotate(-45)scale(0.1 -0.1)">
       <use xlink:href="#DejaVuSans-7a"/>
       <use x="52.490234" xlink:href="#DejaVuSans-65"/>
       <use x="114.013672" xlink:href="#DejaVuSans-6e"/>
       <use x="177.392578" xlink:href="#DejaVuSans-74"/>
       <use x="216.601562" xlink:href="#DejaVuSans-72"/>
       <use x="257.714844" xlink:href="#DejaVuSans-61"/>
       <use x="318.994141" xlink:href="#DejaVuSans-6c"/>
       <use x="346.777344" xlink:href="#DejaVuSans-65"/>
       <use x="408.300781" xlink:href="#DejaVuSans-6e"/>
       <use x="471.679688" xlink:href="#DejaVuSans-20"/>
       <use x="503.466797" xlink:href="#DejaVuSans-6f"/>
       <use x="564.648438" xlink:href="#DejaVuSans-64"/>
       <use x="628.125" xlink:href="#DejaVuSans-65"/>
       <use x="689.648438" xlink:href="#DejaVuSans-72"/>
      </g>
      <!-- dezentralen -->
      <g transform="translate(223.245959 228.719927)rotate(-45)scale(0.1 -0.1)">
       <use xlink:href="#DejaVuSans-64"/>
       <use x="63.476562" xlink:href="#DejaVuSans-65"/>
       <use x="125" xlink:href="#DejaVuSans-7a"/>
       <use x="177.490234" xlink:href="#DejaVuSans-65"/>
       <use x="239.013672" xlink:href="#DejaVuSans-6e"/>
       <use x="302.392578" xlink:href="#DejaVuSans-74"/>
       <use x="341.601562" xlink:href="#DejaVuSans-72"/>
       <use x="382.714844" xlink:href="#DejaVuSans-61"/>
       <use x="443.994141" xlink:href="#DejaVuSans-6c"/>
       <use x="471.777344" xlink:href="#DejaVuSans-65"/>
       <use x="533.300781" xlink:href="#DejaVuSans-6e"/>
      </g>
      <!-- Bundesverwaltung -->
      <g transform="translate(207.271533 260.530451)rotate(-45)scale(0.1 -0.1)">
       <defs>
        <path d="M 269 3500 
L 844 3500 
L 1563 769 
L 2278 3500 
L 2956 3500 
L 3675 769 
L 4391 3500 
L 4966 3500 
L 4050 0 
L 3372 0 
L 2619 2869 
L 1863 0 
L 1184 0 
L 269 3500 
z
" id="DejaVuSans-77" transform="scale(0.015625)"/>
       </defs>
       <use xlink:href="#DejaVuSans-42"/>
       <use x="68.603516" xlink:href="#DejaVuSans-75"/>
       <use x="131.982422" xlink:href="#DejaVuSans-6e"/>
       <use x="195.361328" xlink:href="#DejaVuSans-64"/>
       <use x="258.837891" xlink:href="#DejaVuSans-65"/>
       <use x="320.361328" xlink:href="#DejaVuSans-73"/>
       <use x="372.460938" xlink:href="#DejaVuSans-76"/>
       <use x="431.640625" xlink:href="#DejaVuSans-65"/>
       <use x="493.164062" xlink:href="#DejaVuSans-72"/>
       <use x="534.277344" xlink:href="#DejaVuSans-77"/>
       <use x="616.064453" xlink:href="#DejaVuSans-61"/>
       <use x="677.34375" xlink:href="#DejaVuSans-6c"/>
       <use x="705.126953" xlink:href="#DejaVuSans-74"/>
       <use x="744.335938" xlink:href="#DejaVuSans-75"/>
       <use x="807.714844" xlink:href="#DejaVuSans-6e"/>
       <use x="871.09375" xlink:href="#DejaVuSans-67"/>
      </g>
     </g>
    </g>
    <g id="xtick_6">
     <g id="line2d_6">
      <g>
       <use style="stroke:#000000;stroke-width:0.8;" x="321.127488" xlink:href="#m112af4ca5a" y="158.318744"/>
      </g>
     </g>
     <g id="text_6">
      <!-- Parlamentarische -->
      <g transform="translate(250.155402 232.275127)rotate(-45)scale(0.1 -0.1)">
       <defs>
        <path d="M 1259 4147 
L 1259 2394 
L 2053 2394 
Q 2494 2394 2734 2622 
Q 2975 2850 2975 3272 
Q 2975 3691 2734 3919 
Q 2494 4147 2053 4147 
L 1259 4147 
z
M 628 4666 
L 2053 4666 
Q 2838 4666 3239 4311 
Q 3641 3956 3641 3272 
Q 3641 2581 3239 2228 
Q 2838 1875 2053 1875 
L 1259 1875 
L 1259 0 
L 628 0 
L 628 4666 
z
" id="DejaVuSans-50" transform="scale(0.015625)"/>
        <path d="M 3122 3366 
L 3122 2828 
Q 2878 2963 2633 3030 
Q 2388 3097 2138 3097 
Q 1578 3097 1268 2742 
Q 959 2388 959 1747 
Q 959 1106 1268 751 
Q 1578 397 2138 397 
Q 2388 397 2633 464 
Q 2878 531 3122 666 
L 3122 134 
Q 2881 22 2623 -34 
Q 2366 -91 2075 -91 
Q 1284 -91 818 406 
Q 353 903 353 1747 
Q 353 2603 823 3093 
Q 1294 3584 2113 3584 
Q 2378 3584 2631 3529 
Q 2884 3475 3122 3366 
z
" id="DejaVuSans-63" transform="scale(0.015625)"/>
       </defs>
       <use xlink:href="#DejaVuSans-50"/>
       <use x="55.802734" xlink:href="#DejaVuSans-61"/>
       <use x="117.082031" xlink:href="#DejaVuSans-72"/>
       <use x="158.195312" xlink:href="#DejaVuSans-6c"/>
       <use x="185.978516" xlink:href="#DejaVuSans-61"/>
       <use x="247.257812" xlink:href="#DejaVuSans-6d"/>
       <use x="344.669922" xlink:href="#DejaVuSans-65"/>
       <use x="406.193359" xlink:href="#DejaVuSans-6e"/>
       <use x="469.572266" xlink:href="#DejaVuSans-74"/>
       <use x="508.78125" xlink:href="#DejaVuSans-61"/>
       <use x="570.060547" xlink:href="#DejaVuSans-72"/>
       <use x="611.173828" xlink:href="#DejaVuSans-69"/>
       <use x="638.957031" xlink:href="#DejaVuSans-73"/>
       <use x="691.056641" xlink:href="#DejaVuSans-63"/>
       <use x="746.037109" xlink:href="#DejaVuSans-68"/>
       <use x="809.416016" xlink:href="#DejaVuSans-65"/>
      </g>
      <!-- Kommissionen -->
      <g transform="translate(268.335338 229.931289)rotate(-45)scale(0.1 -0.1)">
       <defs>
        <path d="M 628 4666 
L 1259 4666 
L 1259 2694 
L 3353 4666 
L 4166 4666 
L 1850 2491 
L 4331 0 
L 3500 0 
L 1259 2247 
L 1259 0 
L 628 0 
L 628 4666 
z
" id="DejaVuSans-4b" transform="scale(0.015625)"/>
       </defs>
       <use xlink:href="#DejaVuSans-4b"/>
       <use x="60.576172" xlink:href="#DejaVuSans-6f"/>
       <use x="121.757812" xlink:href="#DejaVuSans-6d"/>
       <use x="219.169922" xlink:href="#DejaVuSans-6d"/>
       <use x="316.582031" xlink:href="#DejaVuSans-69"/>
       <use x="344.365234" xlink:href="#DejaVuSans-73"/>
       <use x="396.464844" xlink:href="#DejaVuSans-73"/>
       <use x="448.564453" xlink:href="#DejaVuSans-69"/>
       <use x="476.347656" xlink:href="#DejaVuSans-6f"/>
       <use x="537.529297" xlink:href="#DejaVuSans-6e"/>
       <use x="600.908203" xlink:href="#DejaVuSans-65"/>
       <use x="662.431641" xlink:href="#DejaVuSans-6e"/>
      </g>
     </g>
    </g>
    <g id="text_7">
     <!-- Behoerde -->
     <g transform="translate(181.345166 273.59945)scale(0.1 -0.1)">
      <use xlink:href="#DejaVuSans-42"/>
      <use x="68.603516" xlink:href="#DejaVuSans-65"/>
      <use x="130.126953" xlink:href="#DejaVuSans-68"/>
      <use x="193.505859" xlink:href="#DejaVuSans-6f"/>
      <use x="254.6875" xlink:href="#DejaVuSans-65"/>
      <use x="316.210938" xlink:href="#DejaVuSans-72"/>
      <use x="355.574219" xlink:href="#DejaVuSans-64"/>
      <use x="419.050781" xlink:href="#DejaVuSans-65"/>
     </g>
    </g>
   </g>
   <g id="matplotlib.axis_2">
    <g id="ytick_1">
     <g id="line2d_7">
      <defs>
       <path d="M 0 0 
L -3.5 0 
" id="me10a79674a" style="stroke:#000000;stroke-width:0.8;"/>
      </defs>
      <g>
       <use style="stroke:#000000;stroke-width:0.8;" x="57.676269" xlink:href="#me10a79674a" y="158.318744"/>
      </g>
     </g>
     <g id="text_8">
      <!-- 0 -->
      <g transform="translate(44.313769 162.117963)scale(0.1 -0.1)">
       <defs>
        <path d="M 2034 4250 
Q 1547 4250 1301 3770 
Q 1056 3291 1056 2328 
Q 1056 1369 1301 889 
Q 1547 409 2034 409 
Q 2525 409 2770 889 
Q 3016 1369 3016 2328 
Q 3016 3291 2770 3770 
Q 2525 4250 2034 4250 
z
M 2034 4750 
Q 2819 4750 3233 4129 
Q 3647 3509 3647 2328 
Q 3647 1150 3233 529 
Q 2819 -91 2034 -91 
Q 1250 -91 836 529 
Q 422 1150 422 2328 
Q 422 3509 836 4129 
Q 1250 4750 2034 4750 
z
" id="DejaVuSans-30" transform="scale(0.015625)"/>
       </defs>
       <use xlink:href="#DejaVuSans-30"/>
      </g>
     </g>
    </g>
    <g id="ytick_2">
     <g id="line2d_8">
      <g>
       <use style="stroke:#000000;stroke-width:0.8;" x="57.676269" xlink:href="#me10a79674a" y="135.166073"/>
      </g>
     </g>
     <g id="text_9">
      <!-- 200 -->
      <g transform="translate(31.588769 138.965292)scale(0.1 -0.1)">
       <defs>
        <path d="M 1228 531 
L 3431 531 
L 3431 0 
L 469 0 
L 469 531 
Q 828 903 1448 1529 
Q 2069 2156 2228 2338 
Q 2531 2678 2651 2914 
Q 2772 3150 2772 3378 
Q 2772 3750 2511 3984 
Q 2250 4219 1831 4219 
Q 1534 4219 1204 4116 
Q 875 4013 500 3803 
L 500 4441 
Q 881 4594 1212 4672 
Q 1544 4750 1819 4750 
Q 2544 4750 2975 4387 
Q 3406 4025 3406 3419 
Q 3406 3131 3298 2873 
Q 3191 2616 2906 2266 
Q 2828 2175 2409 1742 
Q 1991 1309 1228 531 
z
" id="DejaVuSans-32" transform="scale(0.015625)"/>
       </defs>
       <use xlink:href="#DejaVuSans-32"/>
       <use x="63.623047" xlink:href="#DejaVuSans-30"/>
       <use x="127.246094" xlink:href="#DejaVuSans-30"/>
      </g>
     </g>
    </g>
    <g id="ytick_3">
     <g id="line2d_9">
      <g>
       <use style="stroke:#000000;stroke-width:0.8;" x="57.676269" xlink:href="#me10a79674a" y="112.013403"/>
      </g>
     </g>
     <g id="text_10">
      <!-- 400 -->
      <g transform="translate(31.588769 115.812622)scale(0.1 -0.1)">
       <defs>
        <path d="M 2419 4116 
L 825 1625 
L 2419 1625 
L 2419 4116 
z
M 2253 4666 
L 3047 4666 
L 3047 1625 
L 3713 1625 
L 3713 1100 
L 3047 1100 
L 3047 0 
L 2419 0 
L 2419 1100 
L 313 1100 
L 313 1709 
L 2253 4666 
z
" id="DejaVuSans-34" transform="scale(0.015625)"/>
       </defs>
       <use xlink:href="#DejaVuSans-34"/>
       <use x="63.623047" xlink:href="#DejaVuSans-30"/>
       <use x="127.246094" xlink:href="#DejaVuSans-30"/>
      </g>
     </g>
    </g>
    <g id="ytick_4">
     <g id="line2d_10">
      <g>
       <use style="stroke:#000000;stroke-width:0.8;" x="57.676269" xlink:href="#me10a79674a" y="88.860733"/>
      </g>
     </g>
     <g id="text_11">
      <!-- 600 -->
      <g transform="translate(31.588769 92.659952)scale(0.1 -0.1)">
       <defs>
        <path d="M 2113 2584 
Q 1688 2584 1439 2293 
Q 1191 2003 1191 1497 
Q 1191 994 1439 701 
Q 1688 409 2113 409 
Q 2538 409 2786 701 
Q 3034 994 3034 1497 
Q 3034 2003 2786 2293 
Q 2538 2584 2113 2584 
z
M 3366 4563 
L 3366 3988 
Q 3128 4100 2886 4159 
Q 2644 4219 2406 4219 
Q 1781 4219 1451 3797 
Q 1122 3375 1075 2522 
Q 1259 2794 1537 2939 
Q 1816 3084 2150 3084 
Q 2853 3084 3261 2657 
Q 3669 2231 3669 1497 
Q 3669 778 3244 343 
Q 2819 -91 2113 -91 
Q 1303 -91 875 529 
Q 447 1150 447 2328 
Q 447 3434 972 4092 
Q 1497 4750 2381 4750 
Q 2619 4750 2861 4703 
Q 3103 4656 3366 4563 
z
" id="DejaVuSans-36" transform="scale(0.015625)"/>
       </defs>
       <use xlink:href="#DejaVuSans-36"/>
       <use x="63.623047" xlink:href="#DejaVuSans-30"/>
       <use x="127.246094" xlink:href="#DejaVuSans-30"/>
      </g>
     </g>
    </g>
    <g id="ytick_5">
     <g id="line2d_11">
      <g>
       <use style="stroke:#000000;stroke-width:0.8;" x="57.676269" xlink:href="#me10a79674a" y="65.708062"/>
      </g>
     </g>
     <g id="text_12">
      <!-- 800 -->
      <g transform="translate(31.588769 69.507281)scale(0.1 -0.1)">
       <defs>
        <path d="M 2034 2216 
Q 1584 2216 1326 1975 
Q 1069 1734 1069 1313 
Q 1069 891 1326 650 
Q 1584 409 2034 409 
Q 2484 409 2743 651 
Q 3003 894 3003 1313 
Q 3003 1734 2745 1975 
Q 2488 2216 2034 2216 
z
M 1403 2484 
Q 997 2584 770 2862 
Q 544 3141 544 3541 
Q 544 4100 942 4425 
Q 1341 4750 2034 4750 
Q 2731 4750 3128 4425 
Q 3525 4100 3525 3541 
Q 3525 3141 3298 2862 
Q 3072 2584 2669 2484 
Q 3125 2378 3379 2068 
Q 3634 1759 3634 1313 
Q 3634 634 3220 271 
Q 2806 -91 2034 -91 
Q 1263 -91 848 271 
Q 434 634 434 1313 
Q 434 1759 690 2068 
Q 947 2378 1403 2484 
z
M 1172 3481 
Q 1172 3119 1398 2916 
Q 1625 2713 2034 2713 
Q 2441 2713 2670 2916 
Q 2900 3119 2900 3481 
Q 2900 3844 2670 4047 
Q 2441 4250 2034 4250 
Q 1625 4250 1398 4047 
Q 1172 3844 1172 3481 
z
" id="DejaVuSans-38" transform="scale(0.015625)"/>
       </defs>
       <use xlink:href="#DejaVuSans-38"/>
       <use x="63.623047" xlink:href="#DejaVuSans-30"/>
       <use x="127.246094" xlink:href="#DejaVuSans-30"/>
      </g>
     </g>
    </g>
    <g id="ytick_6">
     <g id="line2d_12">
      <g>
       <use style="stroke:#000000;stroke-width:0.8;" x="57.676269" xlink:href="#me10a79674a" y="42.555392"/>
      </g>
     </g>
     <g id="text_13">
      <!-- 1000 -->
      <g transform="translate(25.226269 46.354611)scale(0.1 -0.1)">
       <defs>
        <path d="M 794 531 
L 1825 531 
L 1825 4091 
L 703 3866 
L 703 4441 
L 1819 4666 
L 2450 4666 
L 2450 531 
L 3481 531 
L 3481 0 
L 794 0 
L 794 531 
z
" id="DejaVuSans-31" transform="scale(0.015625)"/>
       </defs>
       <use xlink:href="#DejaVuSans-31"/>
       <use x="63.623047" xlink:href="#DejaVuSans-30"/>
       <use x="127.246094" xlink:href="#DejaVuSans-30"/>
       <use x="190.869141" xlink:href="#DejaVuSans-30"/>
      </g>
     </g>
    </g>
    <g id="text_14">
     <!-- Anzahl -->
     <g transform="translate(19.146582 109.394528)rotate(-90)scale(0.1 -0.1)">
      <defs>
       <path d="M 2188 4044 
L 1331 1722 
L 3047 1722 
L 2188 4044 
z
M 1831 4666 
L 2547 4666 
L 4325 0 
L 3669 0 
L 3244 1197 
L 1141 1197 
L 716 0 
L 50 0 
L 1831 4666 
z
" id="DejaVuSans-41" transform="scale(0.015625)"/>
      </defs>
      <use xlink:href="#DejaVuSans-41"/>
      <use x="68.408203" xlink:href="#DejaVuSans-6e"/>
      <use x="131.787109" xlink:href="#DejaVuSans-7a"/>
      <use x="184.277344" xlink:href="#DejaVuSans-61"/>
      <use x="245.556641" xlink:href="#DejaVuSans-68"/>
      <use x="308.935547" xlink:href="#DejaVuSans-6c"/>
     </g>
    </g>
   </g>
   <g id="patch_81">
    <path d="M 57.676269 158.318744 
L 57.676269 26.8 
" style="fill:none;stroke:#000000;stroke-linecap:square;stroke-linejoin:miter;stroke-width:0.8;"/>
   </g>
   <g id="patch_82">
    <path d="M 353.075 158.318744 
L 353.075 26.8 
" style="fill:none;stroke:#000000;stroke-linecap:square;stroke-linejoin:miter;stroke-width:0.8;"/>
   </g>
   <g id="patch_83">
    <path d="M 57.676269 158.318744 
L 353.075 158.318744 
" style="fill:none;stroke:#000000;stroke-linecap:square;stroke-linejoin:miter;stroke-width:0.8;"/>
   </g>
   <g id="patch_84">
    <path d="M 57.676269 26.8 
L 353.075 26.8 
" style="fill:none;stroke:#000000;stroke-linecap:square;stroke-linejoin:miter;stroke-width:0.8;"/>
   </g>
   <g id="text_15">
    <!-- Vernehmlassungen pro Behoerde -->
    <g transform="translate(105.575947 20.8)scale(0.12 -0.12)">
     <defs>
      <path d="M 1831 0 
L 50 4666 
L 709 4666 
L 2188 738 
L 3669 4666 
L 4325 4666 
L 2547 0 
L 1831 0 
z
" id="DejaVuSans-56" transform="scale(0.015625)"/>
     </defs>
     <use xlink:href="#DejaVuSans-56"/>
     <use x="60.658203" xlink:href="#DejaVuSans-65"/>
     <use x="122.181641" xlink:href="#DejaVuSans-72"/>
     <use x="161.544922" xlink:href="#DejaVuSans-6e"/>
     <use x="224.923828" xlink:href="#DejaVuSans-65"/>
     <use x="286.447266" xlink:href="#DejaVuSans-68"/>
     <use x="349.826172" xlink:href="#DejaVuSans-6d"/>
     <use x="447.238281" xlink:href="#DejaVuSans-6c"/>
     <use x="475.021484" xlink:href="#DejaVuSans-61"/>
     <use x="536.300781" xlink:href="#DejaVuSans-73"/>
     <use x="588.400391" xlink:href="#DejaVuSans-73"/>
     <use x="640.5" xlink:href="#DejaVuSans-75"/>
     <use x="703.878906" xlink:href="#DejaVuSans-6e"/>
     <use x="767.257812" xlink:href="#DejaVuSans-67"/>
     <use x="830.734375" xlink:href="#DejaVuSans-65"/>
     <use x="892.257812" xlink:href="#DejaVuSans-6e"/>
     <use x="955.636719" xlink:href="#DejaVuSans-20"/>
     <use x="987.423828" xlink:href="#DejaVuSans-70"/>
     <use x="1050.900391" xlink:href="#DejaVuSans-72"/>
     <use x="1089.763672" xlink:href="#DejaVuSans-6f"/>
     <use x="1150.945312" xlink:href="#DejaVuSans-20"/>
     <use x="1182.732422" xlink:href="#DejaVuSans-42"/>
     <use x="1251.335938" xlink:href="#DejaVuSans-65"/>
     <use x="1312.859375" xlink:href="#DejaVuSans-68"/>
     <use x="1376.238281" xlink:href="#DejaVuSans-6f"/>
     <use x="1437.419922" xlink:href="#DejaVuSans-65"/>
     <use x="1498.943359" xlink:href="#DejaVuSans-72"/>
     <use x="1538.306641" xlink:href="#DejaVuSans-64"/>
     <use x="1601.783203" xlink:href="#DejaVuSans-65"/>
    </g>
   </g>
   <g id="legend_1">
    <g id="patch_85">
     <path d="M 360.075 189.467184 
L 419.253125 189.467184 
Q 421.253125 189.467184 421.253125 187.467184 
L 421.253125 -2.348441 
Q 421.253125 -4.348441 419.253125 -4.348441 
L 360.075 -4.348441 
Q 358.075 -4.348441 358.075 -2.348441 
L 358.075 187.467184 
Q 358.075 189.467184 360.075 189.467184 
z
" style="fill:#ffffff;opacity:0.8;stroke:#cccccc;stroke-linejoin:miter;"/>
    </g>
    <g id="patch_86">
     <path d="M 362.075 7.249997 
L 382.075 7.249997 
L 382.075 0.249997 
L 362.075 0.249997 
z
" style="fill:#ababab;"/>
    </g>
    <g id="text_16">
     <!-- BK -->
     <g transform="translate(390.075 7.249997)scale(0.1 -0.1)">
      <use xlink:href="#DejaVuSans-42"/>
      <use x="68.603516" xlink:href="#DejaVuSans-4b"/>
     </g>
    </g>
    <g id="patch_87">
     <path d="M 362.075 21.928122 
L 382.075 21.928122 
L 382.075 14.928122 
L 362.075 14.928122 
z
" style="fill:#ff800e;"/>
    </g>
    <g id="text_17">
     <!-- EDA -->
     <g transform="translate(390.075 21.928122)scale(0.1 -0.1)">
      <use xlink:href="#DejaVuSans-45"/>
      <use x="63.183594" xlink:href="#DejaVuSans-44"/>
      <use x="138.435547" xlink:href="#DejaVuSans-41"/>
     </g>
    </g>
    <g id="patch_88">
     <path d="M 362.075 36.606247 
L 382.075 36.606247 
L 382.075 29.606247 
L 362.075 29.606247 
z
" style="fill:#006ba4;"/>
    </g>
    <g id="text_18">
     <!-- EDI -->
     <g transform="translate(390.075 36.606247)scale(0.1 -0.1)">
      <defs>
       <path d="M 628 4666 
L 1259 4666 
L 1259 0 
L 628 0 
L 628 4666 
z
" id="DejaVuSans-49" transform="scale(0.015625)"/>
      </defs>
      <use xlink:href="#DejaVuSans-45"/>
      <use x="63.183594" xlink:href="#DejaVuSans-44"/>
      <use x="140.185547" xlink:href="#DejaVuSans-49"/>
     </g>
    </g>
    <g id="patch_89">
     <path d="M 362.075 51.284372 
L 382.075 51.284372 
L 382.075 44.284372 
L 362.075 44.284372 
z
" style="fill:#cfcfcf;"/>
    </g>
    <g id="text_19">
     <!-- EFD -->
     <g transform="translate(390.075 51.284372)scale(0.1 -0.1)">
      <defs>
       <path d="M 628 4666 
L 3309 4666 
L 3309 4134 
L 1259 4134 
L 1259 2759 
L 3109 2759 
L 3109 2228 
L 1259 2228 
L 1259 0 
L 628 0 
L 628 4666 
z
" id="DejaVuSans-46" transform="scale(0.015625)"/>
      </defs>
      <use xlink:href="#DejaVuSans-45"/>
      <use x="63.183594" xlink:href="#DejaVuSans-46"/>
      <use x="120.703125" xlink:href="#DejaVuSans-44"/>
     </g>
    </g>
    <g id="patch_90">
     <path d="M 362.075 65.962497 
L 382.075 65.962497 
L 382.075 58.962497 
L 362.075 58.962497 
z
" style="fill:#ffbc79;"/>
    </g>
    <g id="text_20">
     <!-- EJPD -->
     <g transform="translate(390.075 65.962497)scale(0.1 -0.1)">
      <defs>
       <path d="M 628 4666 
L 1259 4666 
L 1259 325 
Q 1259 -519 939 -900 
Q 619 -1281 -91 -1281 
L -331 -1281 
L -331 -750 
L -134 -750 
Q 284 -750 456 -515 
Q 628 -281 628 325 
L 628 4666 
z
" id="DejaVuSans-4a" transform="scale(0.015625)"/>
      </defs>
      <use xlink:href="#DejaVuSans-45"/>
      <use x="63.183594" xlink:href="#DejaVuSans-4a"/>
      <use x="92.675781" xlink:href="#DejaVuSans-50"/>
      <use x="152.978516" xlink:href="#DejaVuSans-44"/>
     </g>
    </g>
    <g id="patch_91">
     <path d="M 362.075 80.640622 
L 382.075 80.640622 
L 382.075 73.640622 
L 362.075 73.640622 
z
" style="fill:#a2c8ec;"/>
    </g>
    <g id="text_21">
     <!-- EMD -->
     <g transform="translate(390.075 80.640622)scale(0.1 -0.1)">
      <defs>
       <path d="M 628 4666 
L 1569 4666 
L 2759 1491 
L 3956 4666 
L 4897 4666 
L 4897 0 
L 4281 0 
L 4281 4097 
L 3078 897 
L 2444 897 
L 1241 4097 
L 1241 0 
L 628 0 
L 628 4666 
z
" id="DejaVuSans-4d" transform="scale(0.015625)"/>
      </defs>
      <use xlink:href="#DejaVuSans-45"/>
      <use x="63.183594" xlink:href="#DejaVuSans-4d"/>
      <use x="149.462891" xlink:href="#DejaVuSans-44"/>
     </g>
    </g>
    <g id="patch_92">
     <path d="M 362.075 95.318747 
L 382.075 95.318747 
L 382.075 88.318747 
L 362.075 88.318747 
z
" style="fill:#898989;"/>
    </g>
    <g id="text_22">
     <!-- EVD -->
     <g transform="translate(390.075 95.318747)scale(0.1 -0.1)">
      <use xlink:href="#DejaVuSans-45"/>
      <use x="63.183594" xlink:href="#DejaVuSans-56"/>
      <use x="131.591797" xlink:href="#DejaVuSans-44"/>
     </g>
    </g>
    <g id="patch_93">
     <path d="M 362.075 109.996872 
L 382.075 109.996872 
L 382.075 102.996872 
L 362.075 102.996872 
z
" style="fill:#c85200;"/>
    </g>
    <g id="text_23">
     <!-- EVED -->
     <g transform="translate(390.075 109.996872)scale(0.1 -0.1)">
      <use xlink:href="#DejaVuSans-45"/>
      <use x="63.183594" xlink:href="#DejaVuSans-56"/>
      <use x="131.591797" xlink:href="#DejaVuSans-45"/>
      <use x="194.775391" xlink:href="#DejaVuSans-44"/>
     </g>
    </g>
    <g id="patch_94">
     <path d="M 362.075 124.674997 
L 382.075 124.674997 
L 382.075 117.674997 
L 362.075 117.674997 
z
" style="fill:#5f9ed1;"/>
    </g>
    <g id="text_24">
     <!-- Parl. -->
     <g transform="translate(390.075 124.674997)scale(0.1 -0.1)">
      <defs>
       <path d="M 684 794 
L 1344 794 
L 1344 0 
L 684 0 
L 684 794 
z
" id="DejaVuSans-2e" transform="scale(0.015625)"/>
      </defs>
      <use xlink:href="#DejaVuSans-50"/>
      <use x="55.802734" xlink:href="#DejaVuSans-61"/>
      <use x="117.082031" xlink:href="#DejaVuSans-72"/>
      <use x="158.195312" xlink:href="#DejaVuSans-6c"/>
      <use x="185.978516" xlink:href="#DejaVuSans-2e"/>
     </g>
    </g>
    <g id="patch_95">
     <path d="M 362.075 139.353122 
L 382.075 139.353122 
L 382.075 132.353122 
L 362.075 132.353122 
z
" style="fill:#595959;"/>
    </g>
    <g id="text_25">
     <!-- UVEK -->
     <g transform="translate(390.075 139.353122)scale(0.1 -0.1)">
      <defs>
       <path d="M 556 4666 
L 1191 4666 
L 1191 1831 
Q 1191 1081 1462 751 
Q 1734 422 2344 422 
Q 2950 422 3222 751 
Q 3494 1081 3494 1831 
L 3494 4666 
L 4128 4666 
L 4128 1753 
Q 4128 841 3676 375 
Q 3225 -91 2344 -91 
Q 1459 -91 1007 375 
Q 556 841 556 1753 
L 556 4666 
z
" id="DejaVuSans-55" transform="scale(0.015625)"/>
      </defs>
      <use xlink:href="#DejaVuSans-55"/>
      <use x="73.193359" xlink:href="#DejaVuSans-56"/>
      <use x="141.601562" xlink:href="#DejaVuSans-45"/>
      <use x="204.785156" xlink:href="#DejaVuSans-4b"/>
     </g>
    </g>
    <g id="patch_96">
     <path d="M 362.075 154.031247 
L 382.075 154.031247 
L 382.075 147.031247 
L 362.075 147.031247 
z
" style="fill:#ababab;"/>
    </g>
    <g id="text_26">
     <!-- VBS -->
     <g transform="translate(390.075 154.031247)scale(0.1 -0.1)">
      <defs>
       <path d="M 3425 4513 
L 3425 3897 
Q 3066 4069 2747 4153 
Q 2428 4238 2131 4238 
Q 1616 4238 1336 4038 
Q 1056 3838 1056 3469 
Q 1056 3159 1242 3001 
Q 1428 2844 1947 2747 
L 2328 2669 
Q 3034 2534 3370 2195 
Q 3706 1856 3706 1288 
Q 3706 609 3251 259 
Q 2797 -91 1919 -91 
Q 1588 -91 1214 -16 
Q 841 59 441 206 
L 441 856 
Q 825 641 1194 531 
Q 1563 422 1919 422 
Q 2459 422 2753 634 
Q 3047 847 3047 1241 
Q 3047 1584 2836 1778 
Q 2625 1972 2144 2069 
L 1759 2144 
Q 1053 2284 737 2584 
Q 422 2884 422 3419 
Q 422 4038 858 4394 
Q 1294 4750 2059 4750 
Q 2388 4750 2728 4690 
Q 3069 4631 3425 4513 
z
" id="DejaVuSans-53" transform="scale(0.015625)"/>
      </defs>
      <use xlink:href="#DejaVuSans-56"/>
      <use x="68.408203" xlink:href="#DejaVuSans-42"/>
      <use x="135.261719" xlink:href="#DejaVuSans-53"/>
     </g>
    </g>
    <g id="patch_97">
     <path d="M 362.075 168.709372 
L 382.075 168.709372 
L 382.075 161.709372 
L 362.075 161.709372 
z
" style="fill:#ff800e;"/>
    </g>
    <g id="text_27">
     <!-- WBF -->
     <g transform="translate(390.075 168.709372)scale(0.1 -0.1)">
      <defs>
       <path d="M 213 4666 
L 850 4666 
L 1831 722 
L 2809 4666 
L 3519 4666 
L 4500 722 
L 5478 4666 
L 6119 4666 
L 4947 0 
L 4153 0 
L 3169 4050 
L 2175 0 
L 1381 0 
L 213 4666 
z
" id="DejaVuSans-57" transform="scale(0.015625)"/>
      </defs>
      <use xlink:href="#DejaVuSans-57"/>
      <use x="98.876953" xlink:href="#DejaVuSans-42"/>
      <use x="167.480469" xlink:href="#DejaVuSans-46"/>
     </g>
    </g>
    <g id="patch_98">
     <path d="M 362.075 183.387497 
L 382.075 183.387497 
L 382.075 176.387497 
L 362.075 176.387497 
z
" style="fill:#006ba4;"/>
    </g>
    <g id="text_28">
     <!-- other -->
     <g transform="translate(390.075 183.387497)scale(0.1 -0.1)">
      <use xlink:href="#DejaVuSans-6f"/>
      <use x="61.181641" xlink:href="#DejaVuSans-74"/>
      <use x="100.390625" xlink:href="#DejaVuSans-68"/>
      <use x="163.769531" xlink:href="#DejaVuSans-65"/>
      <use x="225.292969" xlink:href="#DejaVuSans-72"/>
     </g>
    </g>
   </g>
  </g>
 </g>
 <defs>
  <clipPath id="p0b666294fe">
   <rect height="131.518744" width="295.398731" x="57.676269" y="26.8"/>
  </clipPath>
 </defs>
</svg>
