<?xml version="1.0" encoding="utf-8" standalone="no"?>
<!DOCTYPE svg PUBLIC "-//W3C//DTD SVG 1.1//EN"
  "http://www.w3.org/Graphics/SVG/1.1/DTD/svg11.dtd">
<svg height="288pt" version="1.1" viewBox="0 0 432 288" width="432pt" xmlns="http://www.w3.org/2000/svg" xmlns:xlink="http://www.w3.org/1999/xlink">
 <metadata>
  <rdf:RDF xmlns:cc="http://creativecommons.org/ns#" xmlns:dc="http://purl.org/dc/elements/1.1/" xmlns:rdf="http://www.w3.org/1999/02/22-rdf-syntax-ns#">
   <cc:Work>
    <dc:type rdf:resource="http://purl.org/dc/dcmitype/StillImage"/>
    <dc:date>2021-11-19T19:39:36.915961</dc:date>
    <dc:format>image/svg+xml</dc:format>
    <dc:creator>
     <cc:Agent>
      <dc:title>Matplotlib v3.4.2, https://matplotlib.org/</dc:title>
     </cc:Agent>
    </dc:creator>
   </cc:Work>
  </rdf:RDF>
 </metadata>
 <defs>
  <style type="text/css">*{stroke-linecap:butt;stroke-linejoin:round;}</style>
 </defs>
 <g id="figure_1">
  <g id="patch_1">
   <path d="M 0 288 
L 432 288 
L 432 0 
L 0 0 
z
" style="fill:none;"/>
  </g>
  <g id="axes_1">
   <g id="patch_2">
    <path d="M 50.8 209.796117 
L 353.075 209.796117 
L 353.075 26.8 
L 50.8 26.8 
z
" style="fill:#ffffff;"/>
   </g>
   <g id="patch_3">
    <path clip-path="url(#pe759e8828a)" d="M 64.539773 209.796117 
L 86.972055 209.796117 
L 86.972055 209.796117 
L 64.539773 209.796117 
z
" style="fill:#006ba4;"/>
   </g>
   <g id="patch_4">
    <path clip-path="url(#pe759e8828a)" d="M 92.580125 209.796117 
L 115.012407 209.796117 
L 115.012407 209.796117 
L 92.580125 209.796117 
z
" style="fill:#006ba4;"/>
   </g>
   <g id="patch_5">
    <path clip-path="url(#pe759e8828a)" d="M 120.620478 209.796117 
L 143.05276 209.796117 
L 143.05276 208.641932 
L 120.620478 208.641932 
z
" style="fill:#006ba4;"/>
   </g>
   <g id="patch_6">
    <path clip-path="url(#pe759e8828a)" d="M 148.66083 209.796117 
L 171.093112 209.796117 
L 171.093112 209.796117 
L 148.66083 209.796117 
z
" style="fill:#006ba4;"/>
   </g>
   <g id="patch_7">
    <path clip-path="url(#pe759e8828a)" d="M 176.701183 209.796117 
L 199.133465 209.796117 
L 199.133465 209.796117 
L 176.701183 209.796117 
z
" style="fill:#006ba4;"/>
   </g>
   <g id="patch_8">
    <path clip-path="url(#pe759e8828a)" d="M 204.741535 209.796117 
L 227.173817 209.796117 
L 227.173817 209.796117 
L 204.741535 209.796117 
z
" style="fill:#006ba4;"/>
   </g>
   <g id="patch_9">
    <path clip-path="url(#pe759e8828a)" d="M 232.781888 209.796117 
L 255.21417 209.796117 
L 255.21417 209.796117 
L 232.781888 209.796117 
z
" style="fill:#006ba4;"/>
   </g>
   <g id="patch_10">
    <path clip-path="url(#pe759e8828a)" d="M 260.82224 209.796117 
L 283.254522 209.796117 
L 283.254522 209.796117 
L 260.82224 209.796117 
z
" style="fill:#006ba4;"/>
   </g>
   <g id="patch_11">
    <path clip-path="url(#pe759e8828a)" d="M 288.862593 209.796117 
L 311.294875 209.796117 
L 311.294875 209.796117 
L 288.862593 209.796117 
z
" style="fill:#006ba4;"/>
   </g>
   <g id="patch_12">
    <path clip-path="url(#pe759e8828a)" d="M 316.902945 209.796117 
L 339.335227 209.796117 
L 339.335227 209.796117 
L 316.902945 209.796117 
z
" style="fill:#006ba4;"/>
   </g>
   <g id="patch_13">
    <path clip-path="url(#pe759e8828a)" d="M 64.539773 209.796117 
L 86.972055 209.796117 
L 86.972055 197.100077 
L 64.539773 197.100077 
z
" style="fill:#ff800e;"/>
   </g>
   <g id="patch_14">
    <path clip-path="url(#pe759e8828a)" d="M 92.580125 209.796117 
L 115.012407 209.796117 
L 115.012407 194.791705 
L 92.580125 194.791705 
z
" style="fill:#ff800e;"/>
   </g>
   <g id="patch_15">
    <path clip-path="url(#pe759e8828a)" d="M 120.620478 208.641932 
L 143.05276 208.641932 
L 143.05276 193.63752 
L 120.620478 193.63752 
z
" style="fill:#ff800e;"/>
   </g>
   <g id="patch_16">
    <path clip-path="url(#pe759e8828a)" d="M 148.66083 209.796117 
L 171.093112 209.796117 
L 171.093112 199.408448 
L 148.66083 199.408448 
z
" style="fill:#ff800e;"/>
   </g>
   <g id="patch_17">
    <path clip-path="url(#pe759e8828a)" d="M 176.701183 209.796117 
L 199.133465 209.796117 
L 199.133465 202.871004 
L 176.701183 202.871004 
z
" style="fill:#ff800e;"/>
   </g>
   <g id="patch_18">
    <path clip-path="url(#pe759e8828a)" d="M 204.741535 209.796117 
L 227.173817 209.796117 
L 227.173817 200.562633 
L 204.741535 200.562633 
z
" style="fill:#ff800e;"/>
   </g>
   <g id="patch_19">
    <path clip-path="url(#pe759e8828a)" d="M 232.781888 209.796117 
L 255.21417 209.796117 
L 255.21417 202.871004 
L 232.781888 202.871004 
z
" style="fill:#ff800e;"/>
   </g>
   <g id="patch_20">
    <path clip-path="url(#pe759e8828a)" d="M 260.82224 209.796117 
L 283.254522 209.796117 
L 283.254522 205.179375 
L 260.82224 205.179375 
z
" style="fill:#ff800e;"/>
   </g>
   <g id="patch_21">
    <path clip-path="url(#pe759e8828a)" d="M 288.862593 209.796117 
L 311.294875 209.796117 
L 311.294875 209.796117 
L 288.862593 209.796117 
z
" style="fill:#ff800e;"/>
   </g>
   <g id="patch_22">
    <path clip-path="url(#pe759e8828a)" d="M 316.902945 209.796117 
L 339.335227 209.796117 
L 339.335227 209.796117 
L 316.902945 209.796117 
z
" style="fill:#ff800e;"/>
   </g>
   <g id="patch_23">
    <path clip-path="url(#pe759e8828a)" d="M 64.539773 197.100077 
L 86.972055 197.100077 
L 86.972055 195.945891 
L 64.539773 195.945891 
z
" style="fill:#ababab;"/>
   </g>
   <g id="patch_24">
    <path clip-path="url(#pe759e8828a)" d="M 92.580125 194.791705 
L 115.012407 194.791705 
L 115.012407 193.63752 
L 92.580125 193.63752 
z
" style="fill:#ababab;"/>
   </g>
   <g id="patch_25">
    <path clip-path="url(#pe759e8828a)" d="M 120.620478 193.63752 
L 143.05276 193.63752 
L 143.05276 190.174963 
L 120.620478 190.174963 
z
" style="fill:#ababab;"/>
   </g>
   <g id="patch_26">
    <path clip-path="url(#pe759e8828a)" d="M 148.66083 199.408448 
L 171.093112 199.408448 
L 171.093112 195.945891 
L 148.66083 195.945891 
z
" style="fill:#ababab;"/>
   </g>
   <g id="patch_27">
    <path clip-path="url(#pe759e8828a)" d="M 176.701183 202.871004 
L 199.133465 202.871004 
L 199.133465 199.408448 
L 176.701183 199.408448 
z
" style="fill:#ababab;"/>
   </g>
   <g id="patch_28">
    <path clip-path="url(#pe759e8828a)" d="M 204.741535 200.562633 
L 227.173817 200.562633 
L 227.173817 199.408448 
L 204.741535 199.408448 
z
" style="fill:#ababab;"/>
   </g>
   <g id="patch_29">
    <path clip-path="url(#pe759e8828a)" d="M 232.781888 202.871004 
L 255.21417 202.871004 
L 255.21417 197.100077 
L 232.781888 197.100077 
z
" style="fill:#ababab;"/>
   </g>
   <g id="patch_30">
    <path clip-path="url(#pe759e8828a)" d="M 260.82224 205.179375 
L 283.254522 205.179375 
L 283.254522 201.716819 
L 260.82224 201.716819 
z
" style="fill:#ababab;"/>
   </g>
   <g id="patch_31">
    <path clip-path="url(#pe759e8828a)" d="M 288.862593 209.796117 
L 311.294875 209.796117 
L 311.294875 204.02519 
L 288.862593 204.02519 
z
" style="fill:#ababab;"/>
   </g>
   <g id="patch_32">
    <path clip-path="url(#pe759e8828a)" d="M 316.902945 209.796117 
L 339.335227 209.796117 
L 339.335227 205.179375 
L 316.902945 205.179375 
z
" style="fill:#ababab;"/>
   </g>
   <g id="patch_33">
    <path clip-path="url(#pe759e8828a)" d="M 64.539773 195.945891 
L 86.972055 195.945891 
L 86.972055 182.095665 
L 64.539773 182.095665 
z
" style="fill:#595959;"/>
   </g>
   <g id="patch_34">
    <path clip-path="url(#pe759e8828a)" d="M 92.580125 193.63752 
L 115.012407 193.63752 
L 115.012407 146.315913 
L 92.580125 146.315913 
z
" style="fill:#595959;"/>
   </g>
   <g id="patch_35">
    <path clip-path="url(#pe759e8828a)" d="M 120.620478 190.174963 
L 143.05276 190.174963 
L 143.05276 141.699171 
L 120.620478 141.699171 
z
" style="fill:#595959;"/>
   </g>
   <g id="patch_36">
    <path clip-path="url(#pe759e8828a)" d="M 148.66083 195.945891 
L 171.093112 195.945891 
L 171.093112 152.08684 
L 148.66083 152.08684 
z
" style="fill:#595959;"/>
   </g>
   <g id="patch_37">
    <path clip-path="url(#pe759e8828a)" d="M 176.701183 199.408448 
L 199.133465 199.408448 
L 199.133465 162.47451 
L 176.701183 162.47451 
z
" style="fill:#595959;"/>
   </g>
   <g id="patch_38">
    <path clip-path="url(#pe759e8828a)" d="M 204.741535 199.408448 
L 227.173817 199.408448 
L 227.173817 182.095665 
L 204.741535 182.095665 
z
" style="fill:#595959;"/>
   </g>
   <g id="patch_39">
    <path clip-path="url(#pe759e8828a)" d="M 232.781888 197.100077 
L 255.21417 197.100077 
L 255.21417 179.787293 
L 232.781888 179.787293 
z
" style="fill:#595959;"/>
   </g>
   <g id="patch_40">
    <path clip-path="url(#pe759e8828a)" d="M 260.82224 201.716819 
L 283.254522 201.716819 
L 283.254522 183.24985 
L 260.82224 183.24985 
z
" style="fill:#595959;"/>
   </g>
   <g id="patch_41">
    <path clip-path="url(#pe759e8828a)" d="M 288.862593 204.02519 
L 311.294875 204.02519 
L 311.294875 190.174963 
L 288.862593 190.174963 
z
" style="fill:#595959;"/>
   </g>
   <g id="patch_42">
    <path clip-path="url(#pe759e8828a)" d="M 316.902945 205.179375 
L 339.335227 205.179375 
L 339.335227 199.408448 
L 316.902945 199.408448 
z
" style="fill:#595959;"/>
   </g>
   <g id="patch_43">
    <path clip-path="url(#pe759e8828a)" d="M 64.539773 182.095665 
L 86.972055 182.095665 
L 86.972055 182.095665 
L 64.539773 182.095665 
z
" style="fill:#5f9ed1;"/>
   </g>
   <g id="patch_44">
    <path clip-path="url(#pe759e8828a)" d="M 92.580125 146.315913 
L 115.012407 146.315913 
L 115.012407 144.007542 
L 92.580125 144.007542 
z
" style="fill:#5f9ed1;"/>
   </g>
   <g id="patch_45">
    <path clip-path="url(#pe759e8828a)" d="M 120.620478 141.699171 
L 143.05276 141.699171 
L 143.05276 137.082428 
L 120.620478 137.082428 
z
" style="fill:#5f9ed1;"/>
   </g>
   <g id="patch_46">
    <path clip-path="url(#pe759e8828a)" d="M 148.66083 152.08684 
L 171.093112 152.08684 
L 171.093112 137.082428 
L 148.66083 137.082428 
z
" style="fill:#5f9ed1;"/>
   </g>
   <g id="patch_47">
    <path clip-path="url(#pe759e8828a)" d="M 176.701183 162.47451 
L 199.133465 162.47451 
L 199.133465 156.703583 
L 176.701183 156.703583 
z
" style="fill:#5f9ed1;"/>
   </g>
   <g id="patch_48">
    <path clip-path="url(#pe759e8828a)" d="M 204.741535 182.095665 
L 227.173817 182.095665 
L 227.173817 169.399624 
L 204.741535 169.399624 
z
" style="fill:#5f9ed1;"/>
   </g>
   <g id="patch_49">
    <path clip-path="url(#pe759e8828a)" d="M 232.781888 179.787293 
L 255.21417 179.787293 
L 255.21417 172.86218 
L 232.781888 172.86218 
z
" style="fill:#5f9ed1;"/>
   </g>
   <g id="patch_50">
    <path clip-path="url(#pe759e8828a)" d="M 260.82224 183.24985 
L 283.254522 183.24985 
L 283.254522 180.941479 
L 260.82224 180.941479 
z
" style="fill:#5f9ed1;"/>
   </g>
   <g id="patch_51">
    <path clip-path="url(#pe759e8828a)" d="M 288.862593 190.174963 
L 311.294875 190.174963 
L 311.294875 190.174963 
L 288.862593 190.174963 
z
" style="fill:#5f9ed1;"/>
   </g>
   <g id="patch_52">
    <path clip-path="url(#pe759e8828a)" d="M 316.902945 199.408448 
L 339.335227 199.408448 
L 339.335227 199.408448 
L 316.902945 199.408448 
z
" style="fill:#5f9ed1;"/>
   </g>
   <g id="patch_53">
    <path clip-path="url(#pe759e8828a)" d="M 64.539773 182.095665 
L 86.972055 182.095665 
L 86.972055 182.095665 
L 64.539773 182.095665 
z
" style="fill:#c85200;"/>
   </g>
   <g id="patch_54">
    <path clip-path="url(#pe759e8828a)" d="M 92.580125 144.007542 
L 115.012407 144.007542 
L 115.012407 144.007542 
L 92.580125 144.007542 
z
" style="fill:#c85200;"/>
   </g>
   <g id="patch_55">
    <path clip-path="url(#pe759e8828a)" d="M 120.620478 137.082428 
L 143.05276 137.082428 
L 143.05276 137.082428 
L 120.620478 137.082428 
z
" style="fill:#c85200;"/>
   </g>
   <g id="patch_56">
    <path clip-path="url(#pe759e8828a)" d="M 148.66083 137.082428 
L 171.093112 137.082428 
L 171.093112 137.082428 
L 148.66083 137.082428 
z
" style="fill:#c85200;"/>
   </g>
   <g id="patch_57">
    <path clip-path="url(#pe759e8828a)" d="M 176.701183 156.703583 
L 199.133465 156.703583 
L 199.133465 156.703583 
L 176.701183 156.703583 
z
" style="fill:#c85200;"/>
   </g>
   <g id="patch_58">
    <path clip-path="url(#pe759e8828a)" d="M 204.741535 169.399624 
L 227.173817 169.399624 
L 227.173817 169.399624 
L 204.741535 169.399624 
z
" style="fill:#c85200;"/>
   </g>
   <g id="patch_59">
    <path clip-path="url(#pe759e8828a)" d="M 232.781888 172.86218 
L 255.21417 172.86218 
L 255.21417 172.86218 
L 232.781888 172.86218 
z
" style="fill:#c85200;"/>
   </g>
   <g id="patch_60">
    <path clip-path="url(#pe759e8828a)" d="M 260.82224 180.941479 
L 283.254522 180.941479 
L 283.254522 180.941479 
L 260.82224 180.941479 
z
" style="fill:#c85200;"/>
   </g>
   <g id="patch_61">
    <path clip-path="url(#pe759e8828a)" d="M 288.862593 190.174963 
L 311.294875 190.174963 
L 311.294875 190.174963 
L 288.862593 190.174963 
z
" style="fill:#c85200;"/>
   </g>
   <g id="patch_62">
    <path clip-path="url(#pe759e8828a)" d="M 316.902945 199.408448 
L 339.335227 199.408448 
L 339.335227 199.408448 
L 316.902945 199.408448 
z
" style="fill:#c85200;"/>
   </g>
   <g id="patch_63">
    <path clip-path="url(#pe759e8828a)" d="M 64.539773 182.095665 
L 86.972055 182.095665 
L 86.972055 175.170551 
L 64.539773 175.170551 
z
" style="fill:#898989;"/>
   </g>
   <g id="patch_64">
    <path clip-path="url(#pe759e8828a)" d="M 92.580125 144.007542 
L 115.012407 144.007542 
L 115.012407 115.152903 
L 92.580125 115.152903 
z
" style="fill:#898989;"/>
   </g>
   <g id="patch_65">
    <path clip-path="url(#pe759e8828a)" d="M 120.620478 137.082428 
L 143.05276 137.082428 
L 143.05276 132.465686 
L 120.620478 132.465686 
z
" style="fill:#898989;"/>
   </g>
   <g id="patch_66">
    <path clip-path="url(#pe759e8828a)" d="M 148.66083 137.082428 
L 171.093112 137.082428 
L 171.093112 131.311501 
L 148.66083 131.311501 
z
" style="fill:#898989;"/>
   </g>
   <g id="patch_67">
    <path clip-path="url(#pe759e8828a)" d="M 176.701183 156.703583 
L 199.133465 156.703583 
L 199.133465 145.161727 
L 176.701183 145.161727 
z
" style="fill:#898989;"/>
   </g>
   <g id="patch_68">
    <path clip-path="url(#pe759e8828a)" d="M 204.741535 169.399624 
L 227.173817 169.399624 
L 227.173817 161.320325 
L 204.741535 161.320325 
z
" style="fill:#898989;"/>
   </g>
   <g id="patch_69">
    <path clip-path="url(#pe759e8828a)" d="M 232.781888 172.86218 
L 255.21417 172.86218 
L 255.21417 164.782881 
L 232.781888 164.782881 
z
" style="fill:#898989;"/>
   </g>
   <g id="patch_70">
    <path clip-path="url(#pe759e8828a)" d="M 260.82224 180.941479 
L 283.254522 180.941479 
L 283.254522 171.707995 
L 260.82224 171.707995 
z
" style="fill:#898989;"/>
   </g>
   <g id="patch_71">
    <path clip-path="url(#pe759e8828a)" d="M 288.862593 190.174963 
L 311.294875 190.174963 
L 311.294875 180.941479 
L 288.862593 180.941479 
z
" style="fill:#898989;"/>
   </g>
   <g id="patch_72">
    <path clip-path="url(#pe759e8828a)" d="M 316.902945 199.408448 
L 339.335227 199.408448 
L 339.335227 195.945891 
L 316.902945 195.945891 
z
" style="fill:#898989;"/>
   </g>
   <g id="patch_73">
    <path clip-path="url(#pe759e8828a)" d="M 64.539773 175.170551 
L 86.972055 175.170551 
L 86.972055 175.170551 
L 64.539773 175.170551 
z
" style="fill:#a2c8ec;"/>
   </g>
   <g id="patch_74">
    <path clip-path="url(#pe759e8828a)" d="M 92.580125 115.152903 
L 115.012407 115.152903 
L 115.012407 115.152903 
L 92.580125 115.152903 
z
" style="fill:#a2c8ec;"/>
   </g>
   <g id="patch_75">
    <path clip-path="url(#pe759e8828a)" d="M 120.620478 132.465686 
L 143.05276 132.465686 
L 143.05276 132.465686 
L 120.620478 132.465686 
z
" style="fill:#a2c8ec;"/>
   </g>
   <g id="patch_76">
    <path clip-path="url(#pe759e8828a)" d="M 148.66083 131.311501 
L 171.093112 131.311501 
L 171.093112 131.311501 
L 148.66083 131.311501 
z
" style="fill:#a2c8ec;"/>
   </g>
   <g id="patch_77">
    <path clip-path="url(#pe759e8828a)" d="M 176.701183 145.161727 
L 199.133465 145.161727 
L 199.133465 145.161727 
L 176.701183 145.161727 
z
" style="fill:#a2c8ec;"/>
   </g>
   <g id="patch_78">
    <path clip-path="url(#pe759e8828a)" d="M 204.741535 161.320325 
L 227.173817 161.320325 
L 227.173817 161.320325 
L 204.741535 161.320325 
z
" style="fill:#a2c8ec;"/>
   </g>
   <g id="patch_79">
    <path clip-path="url(#pe759e8828a)" d="M 232.781888 164.782881 
L 255.21417 164.782881 
L 255.21417 164.782881 
L 232.781888 164.782881 
z
" style="fill:#a2c8ec;"/>
   </g>
   <g id="patch_80">
    <path clip-path="url(#pe759e8828a)" d="M 260.82224 171.707995 
L 283.254522 171.707995 
L 283.254522 171.707995 
L 260.82224 171.707995 
z
" style="fill:#a2c8ec;"/>
   </g>
   <g id="patch_81">
    <path clip-path="url(#pe759e8828a)" d="M 288.862593 180.941479 
L 311.294875 180.941479 
L 311.294875 180.941479 
L 288.862593 180.941479 
z
" style="fill:#a2c8ec;"/>
   </g>
   <g id="patch_82">
    <path clip-path="url(#pe759e8828a)" d="M 316.902945 195.945891 
L 339.335227 195.945891 
L 339.335227 195.945891 
L 316.902945 195.945891 
z
" style="fill:#a2c8ec;"/>
   </g>
   <g id="patch_83">
    <path clip-path="url(#pe759e8828a)" d="M 64.539773 175.170551 
L 86.972055 175.170551 
L 86.972055 159.011954 
L 64.539773 159.011954 
z
" style="fill:#ffbc79;"/>
   </g>
   <g id="patch_84">
    <path clip-path="url(#pe759e8828a)" d="M 92.580125 115.152903 
L 115.012407 115.152903 
L 115.012407 86.298265 
L 92.580125 86.298265 
z
" style="fill:#ffbc79;"/>
   </g>
   <g id="patch_85">
    <path clip-path="url(#pe759e8828a)" d="M 120.620478 132.465686 
L 143.05276 132.465686 
L 143.05276 94.377563 
L 120.620478 94.377563 
z
" style="fill:#ffbc79;"/>
   </g>
   <g id="patch_86">
    <path clip-path="url(#pe759e8828a)" d="M 148.66083 131.311501 
L 171.093112 131.311501 
L 171.093112 107.073604 
L 148.66083 107.073604 
z
" style="fill:#ffbc79;"/>
   </g>
   <g id="patch_87">
    <path clip-path="url(#pe759e8828a)" d="M 176.701183 145.161727 
L 199.133465 145.161727 
L 199.133465 108.22779 
L 176.701183 108.22779 
z
" style="fill:#ffbc79;"/>
   </g>
   <g id="patch_88">
    <path clip-path="url(#pe759e8828a)" d="M 204.741535 161.320325 
L 227.173817 161.320325 
L 227.173817 134.774057 
L 204.741535 134.774057 
z
" style="fill:#ffbc79;"/>
   </g>
   <g id="patch_89">
    <path clip-path="url(#pe759e8828a)" d="M 232.781888 164.782881 
L 255.21417 164.782881 
L 255.21417 146.315913 
L 232.781888 146.315913 
z
" style="fill:#ffbc79;"/>
   </g>
   <g id="patch_90">
    <path clip-path="url(#pe759e8828a)" d="M 260.82224 171.707995 
L 283.254522 171.707995 
L 283.254522 156.703583 
L 260.82224 156.703583 
z
" style="fill:#ffbc79;"/>
   </g>
   <g id="patch_91">
    <path clip-path="url(#pe759e8828a)" d="M 288.862593 180.941479 
L 311.294875 180.941479 
L 311.294875 168.245438 
L 288.862593 168.245438 
z
" style="fill:#ffbc79;"/>
   </g>
   <g id="patch_92">
    <path clip-path="url(#pe759e8828a)" d="M 316.902945 195.945891 
L 339.335227 195.945891 
L 339.335227 189.020778 
L 316.902945 189.020778 
z
" style="fill:#ffbc79;"/>
   </g>
   <g id="patch_93">
    <path clip-path="url(#pe759e8828a)" d="M 64.539773 159.011954 
L 86.972055 159.011954 
L 86.972055 148.624284 
L 64.539773 148.624284 
z
" style="fill:#cfcfcf;"/>
   </g>
   <g id="patch_94">
    <path clip-path="url(#pe759e8828a)" d="M 92.580125 86.298265 
L 115.012407 86.298265 
L 115.012407 70.139667 
L 92.580125 70.139667 
z
" style="fill:#cfcfcf;"/>
   </g>
   <g id="patch_95">
    <path clip-path="url(#pe759e8828a)" d="M 120.620478 94.377563 
L 143.05276 94.377563 
L 143.05276 75.910595 
L 120.620478 75.910595 
z
" style="fill:#cfcfcf;"/>
   </g>
   <g id="patch_96">
    <path clip-path="url(#pe759e8828a)" d="M 148.66083 107.073604 
L 171.093112 107.073604 
L 171.093112 92.069192 
L 148.66083 92.069192 
z
" style="fill:#cfcfcf;"/>
   </g>
   <g id="patch_97">
    <path clip-path="url(#pe759e8828a)" d="M 176.701183 108.22779 
L 199.133465 108.22779 
L 199.133465 83.989894 
L 176.701183 83.989894 
z
" style="fill:#cfcfcf;"/>
   </g>
   <g id="patch_98">
    <path clip-path="url(#pe759e8828a)" d="M 204.741535 134.774057 
L 227.173817 134.774057 
L 227.173817 120.923831 
L 204.741535 120.923831 
z
" style="fill:#cfcfcf;"/>
   </g>
   <g id="patch_99">
    <path clip-path="url(#pe759e8828a)" d="M 232.781888 146.315913 
L 255.21417 146.315913 
L 255.21417 129.00313 
L 232.781888 129.00313 
z
" style="fill:#cfcfcf;"/>
   </g>
   <g id="patch_100">
    <path clip-path="url(#pe759e8828a)" d="M 260.82224 156.703583 
L 283.254522 156.703583 
L 283.254522 153.241026 
L 260.82224 153.241026 
z
" style="fill:#cfcfcf;"/>
   </g>
   <g id="patch_101">
    <path clip-path="url(#pe759e8828a)" d="M 288.862593 168.245438 
L 311.294875 168.245438 
L 311.294875 157.857768 
L 288.862593 157.857768 
z
" style="fill:#cfcfcf;"/>
   </g>
   <g id="patch_102">
    <path clip-path="url(#pe759e8828a)" d="M 316.902945 189.020778 
L 339.335227 189.020778 
L 339.335227 186.712407 
L 316.902945 186.712407 
z
" style="fill:#cfcfcf;"/>
   </g>
   <g id="patch_103">
    <path clip-path="url(#pe759e8828a)" d="M 64.539773 148.624284 
L 86.972055 148.624284 
L 86.972055 126.694759 
L 64.539773 126.694759 
z
" style="fill:#006ba4;"/>
   </g>
   <g id="patch_104">
    <path clip-path="url(#pe759e8828a)" d="M 92.580125 70.139667 
L 115.012407 70.139667 
L 115.012407 36.668286 
L 92.580125 36.668286 
z
" style="fill:#006ba4;"/>
   </g>
   <g id="patch_105">
    <path clip-path="url(#pe759e8828a)" d="M 120.620478 75.910595 
L 143.05276 75.910595 
L 143.05276 44.747585 
L 120.620478 44.747585 
z
" style="fill:#006ba4;"/>
   </g>
   <g id="patch_106">
    <path clip-path="url(#pe759e8828a)" d="M 148.66083 92.069192 
L 171.093112 92.069192 
L 171.093112 63.214554 
L 148.66083 63.214554 
z
" style="fill:#006ba4;"/>
   </g>
   <g id="patch_107">
    <path clip-path="url(#pe759e8828a)" d="M 176.701183 83.989894 
L 199.133465 83.989894 
L 199.133465 67.831296 
L 176.701183 67.831296 
z
" style="fill:#006ba4;"/>
   </g>
   <g id="patch_108">
    <path clip-path="url(#pe759e8828a)" d="M 204.741535 120.923831 
L 227.173817 120.923831 
L 227.173817 108.22779 
L 204.741535 108.22779 
z
" style="fill:#006ba4;"/>
   </g>
   <g id="patch_109">
    <path clip-path="url(#pe759e8828a)" d="M 232.781888 129.00313 
L 255.21417 129.00313 
L 255.21417 118.61546 
L 232.781888 118.61546 
z
" style="fill:#006ba4;"/>
   </g>
   <g id="patch_110">
    <path clip-path="url(#pe759e8828a)" d="M 260.82224 153.241026 
L 283.254522 153.241026 
L 283.254522 144.007542 
L 260.82224 144.007542 
z
" style="fill:#006ba4;"/>
   </g>
   <g id="patch_111">
    <path clip-path="url(#pe759e8828a)" d="M 288.862593 157.857768 
L 311.294875 157.857768 
L 311.294875 140.544985 
L 288.862593 140.544985 
z
" style="fill:#006ba4;"/>
   </g>
   <g id="patch_112">
    <path clip-path="url(#pe759e8828a)" d="M 316.902945 186.712407 
L 339.335227 186.712407 
L 339.335227 183.24985 
L 316.902945 183.24985 
z
" style="fill:#006ba4;"/>
   </g>
   <g id="patch_113">
    <path clip-path="url(#pe759e8828a)" d="M 64.539773 126.694759 
L 86.972055 126.694759 
L 86.972055 126.694759 
L 64.539773 126.694759 
z
" style="fill:#ff800e;"/>
   </g>
   <g id="patch_114">
    <path clip-path="url(#pe759e8828a)" d="M 92.580125 36.668286 
L 115.012407 36.668286 
L 115.012407 36.668286 
L 92.580125 36.668286 
z
" style="fill:#ff800e;"/>
   </g>
   <g id="patch_115">
    <path clip-path="url(#pe759e8828a)" d="M 120.620478 44.747585 
L 143.05276 44.747585 
L 143.05276 43.5934 
L 120.620478 43.5934 
z
" style="fill:#ff800e;"/>
   </g>
   <g id="patch_116">
    <path clip-path="url(#pe759e8828a)" d="M 148.66083 63.214554 
L 171.093112 63.214554 
L 171.093112 63.214554 
L 148.66083 63.214554 
z
" style="fill:#ff800e;"/>
   </g>
   <g id="patch_117">
    <path clip-path="url(#pe759e8828a)" d="M 176.701183 67.831296 
L 199.133465 67.831296 
L 199.133465 66.67711 
L 176.701183 66.67711 
z
" style="fill:#ff800e;"/>
   </g>
   <g id="patch_118">
    <path clip-path="url(#pe759e8828a)" d="M 204.741535 108.22779 
L 227.173817 108.22779 
L 227.173817 105.919419 
L 204.741535 105.919419 
z
" style="fill:#ff800e;"/>
   </g>
   <g id="patch_119">
    <path clip-path="url(#pe759e8828a)" d="M 232.781888 118.61546 
L 255.21417 118.61546 
L 255.21417 116.307089 
L 232.781888 116.307089 
z
" style="fill:#ff800e;"/>
   </g>
   <g id="patch_120">
    <path clip-path="url(#pe759e8828a)" d="M 260.82224 144.007542 
L 283.254522 144.007542 
L 283.254522 141.699171 
L 260.82224 141.699171 
z
" style="fill:#ff800e;"/>
   </g>
   <g id="patch_121">
    <path clip-path="url(#pe759e8828a)" d="M 288.862593 140.544985 
L 311.294875 140.544985 
L 311.294875 140.544985 
L 288.862593 140.544985 
z
" style="fill:#ff800e;"/>
   </g>
   <g id="patch_122">
    <path clip-path="url(#pe759e8828a)" d="M 316.902945 183.24985 
L 339.335227 183.24985 
L 339.335227 183.24985 
L 316.902945 183.24985 
z
" style="fill:#ff800e;"/>
   </g>
   <g id="patch_123">
    <path clip-path="url(#pe759e8828a)" d="M 64.539773 126.694759 
L 86.972055 126.694759 
L 86.972055 126.694759 
L 64.539773 126.694759 
z
" style="fill:#ababab;"/>
   </g>
   <g id="patch_124">
    <path clip-path="url(#pe759e8828a)" d="M 92.580125 36.668286 
L 115.012407 36.668286 
L 115.012407 35.514101 
L 92.580125 35.514101 
z
" style="fill:#ababab;"/>
   </g>
   <g id="patch_125">
    <path clip-path="url(#pe759e8828a)" d="M 120.620478 43.5934 
L 143.05276 43.5934 
L 143.05276 41.285029 
L 120.620478 41.285029 
z
" style="fill:#ababab;"/>
   </g>
   <g id="patch_126">
    <path clip-path="url(#pe759e8828a)" d="M 148.66083 63.214554 
L 171.093112 63.214554 
L 171.093112 62.060368 
L 148.66083 62.060368 
z
" style="fill:#ababab;"/>
   </g>
   <g id="patch_127">
    <path clip-path="url(#pe759e8828a)" d="M 176.701183 66.67711 
L 199.133465 66.67711 
L 199.133465 65.522925 
L 176.701183 65.522925 
z
" style="fill:#ababab;"/>
   </g>
   <g id="patch_128">
    <path clip-path="url(#pe759e8828a)" d="M 204.741535 105.919419 
L 227.173817 105.919419 
L 227.173817 103.611048 
L 204.741535 103.611048 
z
" style="fill:#ababab;"/>
   </g>
   <g id="patch_129">
    <path clip-path="url(#pe759e8828a)" d="M 232.781888 116.307089 
L 255.21417 116.307089 
L 255.21417 115.152903 
L 232.781888 115.152903 
z
" style="fill:#ababab;"/>
   </g>
   <g id="patch_130">
    <path clip-path="url(#pe759e8828a)" d="M 260.82224 141.699171 
L 283.254522 141.699171 
L 283.254522 140.544985 
L 260.82224 140.544985 
z
" style="fill:#ababab;"/>
   </g>
   <g id="patch_131">
    <path clip-path="url(#pe759e8828a)" d="M 288.862593 140.544985 
L 311.294875 140.544985 
L 311.294875 140.544985 
L 288.862593 140.544985 
z
" style="fill:#ababab;"/>
   </g>
   <g id="patch_132">
    <path clip-path="url(#pe759e8828a)" d="M 316.902945 183.24985 
L 339.335227 183.24985 
L 339.335227 183.24985 
L 316.902945 183.24985 
z
" style="fill:#ababab;"/>
   </g>
   <g id="matplotlib.axis_1">
    <g id="xtick_1">
     <g id="line2d_1">
      <defs>
       <path d="M 0 0 
L 0 3.5 
" id="m1c167ffb4f" style="stroke:#000000;stroke-width:0.8;"/>
      </defs>
      <g>
       <use style="stroke:#000000;stroke-width:0.8;" x="84.168019" xlink:href="#m1c167ffb4f" y="209.796117"/>
      </g>
     </g>
     <g id="text_1">
      <!-- [0 - 3) -->
      <g transform="translate(61.136226 243.730257)rotate(-45)scale(0.1 -0.1)">
       <defs>
        <path d="M 550 4863 
L 1875 4863 
L 1875 4416 
L 1125 4416 
L 1125 -397 
L 1875 -397 
L 1875 -844 
L 550 -844 
L 550 4863 
z
" id="DejaVuSans-5b" transform="scale(0.015625)"/>
        <path d="M 2034 4250 
Q 1547 4250 1301 3770 
Q 1056 3291 1056 2328 
Q 1056 1369 1301 889 
Q 1547 409 2034 409 
Q 2525 409 2770 889 
Q 3016 1369 3016 2328 
Q 3016 3291 2770 3770 
Q 2525 4250 2034 4250 
z
M 2034 4750 
Q 2819 4750 3233 4129 
Q 3647 3509 3647 2328 
Q 3647 1150 3233 529 
Q 2819 -91 2034 -91 
Q 1250 -91 836 529 
Q 422 1150 422 2328 
Q 422 3509 836 4129 
Q 1250 4750 2034 4750 
z
" id="DejaVuSans-30" transform="scale(0.015625)"/>
        <path id="DejaVuSans-20" transform="scale(0.015625)"/>
        <path d="M 313 2009 
L 1997 2009 
L 1997 1497 
L 313 1497 
L 313 2009 
z
" id="DejaVuSans-2d" transform="scale(0.015625)"/>
        <path d="M 2597 2516 
Q 3050 2419 3304 2112 
Q 3559 1806 3559 1356 
Q 3559 666 3084 287 
Q 2609 -91 1734 -91 
Q 1441 -91 1130 -33 
Q 819 25 488 141 
L 488 750 
Q 750 597 1062 519 
Q 1375 441 1716 441 
Q 2309 441 2620 675 
Q 2931 909 2931 1356 
Q 2931 1769 2642 2001 
Q 2353 2234 1838 2234 
L 1294 2234 
L 1294 2753 
L 1863 2753 
Q 2328 2753 2575 2939 
Q 2822 3125 2822 3475 
Q 2822 3834 2567 4026 
Q 2313 4219 1838 4219 
Q 1578 4219 1281 4162 
Q 984 4106 628 3988 
L 628 4550 
Q 988 4650 1302 4700 
Q 1616 4750 1894 4750 
Q 2613 4750 3031 4423 
Q 3450 4097 3450 3541 
Q 3450 3153 3228 2886 
Q 3006 2619 2597 2516 
z
" id="DejaVuSans-33" transform="scale(0.015625)"/>
        <path d="M 513 4856 
L 1013 4856 
Q 1481 4119 1714 3412 
Q 1947 2706 1947 2009 
Q 1947 1309 1714 600 
Q 1481 -109 1013 -844 
L 513 -844 
Q 928 -128 1133 580 
Q 1338 1288 1338 2009 
Q 1338 2731 1133 3434 
Q 928 4138 513 4856 
z
" id="DejaVuSans-29" transform="scale(0.015625)"/>
       </defs>
       <use xlink:href="#DejaVuSans-5b"/>
       <use x="39.013672" xlink:href="#DejaVuSans-30"/>
       <use x="102.636719" xlink:href="#DejaVuSans-20"/>
       <use x="134.423828" xlink:href="#DejaVuSans-2d"/>
       <use x="170.507812" xlink:href="#DejaVuSans-20"/>
       <use x="202.294922" xlink:href="#DejaVuSans-33"/>
       <use x="265.917969" xlink:href="#DejaVuSans-29"/>
      </g>
     </g>
    </g>
    <g id="xtick_2">
     <g id="line2d_2">
      <g>
       <use style="stroke:#000000;stroke-width:0.8;" x="112.208372" xlink:href="#m1c167ffb4f" y="209.796117"/>
      </g>
     </g>
     <g id="text_2">
      <!-- [3 - 6) -->
      <g transform="translate(89.176578 243.730257)rotate(-45)scale(0.1 -0.1)">
       <defs>
        <path d="M 2113 2584 
Q 1688 2584 1439 2293 
Q 1191 2003 1191 1497 
Q 1191 994 1439 701 
Q 1688 409 2113 409 
Q 2538 409 2786 701 
Q 3034 994 3034 1497 
Q 3034 2003 2786 2293 
Q 2538 2584 2113 2584 
z
M 3366 4563 
L 3366 3988 
Q 3128 4100 2886 4159 
Q 2644 4219 2406 4219 
Q 1781 4219 1451 3797 
Q 1122 3375 1075 2522 
Q 1259 2794 1537 2939 
Q 1816 3084 2150 3084 
Q 2853 3084 3261 2657 
Q 3669 2231 3669 1497 
Q 3669 778 3244 343 
Q 2819 -91 2113 -91 
Q 1303 -91 875 529 
Q 447 1150 447 2328 
Q 447 3434 972 4092 
Q 1497 4750 2381 4750 
Q 2619 4750 2861 4703 
Q 3103 4656 3366 4563 
z
" id="DejaVuSans-36" transform="scale(0.015625)"/>
       </defs>
       <use xlink:href="#DejaVuSans-5b"/>
       <use x="39.013672" xlink:href="#DejaVuSans-33"/>
       <use x="102.636719" xlink:href="#DejaVuSans-20"/>
       <use x="134.423828" xlink:href="#DejaVuSans-2d"/>
       <use x="170.507812" xlink:href="#DejaVuSans-20"/>
       <use x="202.294922" xlink:href="#DejaVuSans-36"/>
       <use x="265.917969" xlink:href="#DejaVuSans-29"/>
      </g>
     </g>
    </g>
    <g id="xtick_3">
     <g id="line2d_3">
      <g>
       <use style="stroke:#000000;stroke-width:0.8;" x="140.248724" xlink:href="#m1c167ffb4f" y="209.796117"/>
      </g>
     </g>
     <g id="text_3">
      <!-- [6 - 9) -->
      <g transform="translate(117.216931 243.730257)rotate(-45)scale(0.1 -0.1)">
       <defs>
        <path d="M 703 97 
L 703 672 
Q 941 559 1184 500 
Q 1428 441 1663 441 
Q 2288 441 2617 861 
Q 2947 1281 2994 2138 
Q 2813 1869 2534 1725 
Q 2256 1581 1919 1581 
Q 1219 1581 811 2004 
Q 403 2428 403 3163 
Q 403 3881 828 4315 
Q 1253 4750 1959 4750 
Q 2769 4750 3195 4129 
Q 3622 3509 3622 2328 
Q 3622 1225 3098 567 
Q 2575 -91 1691 -91 
Q 1453 -91 1209 -44 
Q 966 3 703 97 
z
M 1959 2075 
Q 2384 2075 2632 2365 
Q 2881 2656 2881 3163 
Q 2881 3666 2632 3958 
Q 2384 4250 1959 4250 
Q 1534 4250 1286 3958 
Q 1038 3666 1038 3163 
Q 1038 2656 1286 2365 
Q 1534 2075 1959 2075 
z
" id="DejaVuSans-39" transform="scale(0.015625)"/>
       </defs>
       <use xlink:href="#DejaVuSans-5b"/>
       <use x="39.013672" xlink:href="#DejaVuSans-36"/>
       <use x="102.636719" xlink:href="#DejaVuSans-20"/>
       <use x="134.423828" xlink:href="#DejaVuSans-2d"/>
       <use x="170.507812" xlink:href="#DejaVuSans-20"/>
       <use x="202.294922" xlink:href="#DejaVuSans-39"/>
       <use x="265.917969" xlink:href="#DejaVuSans-29"/>
      </g>
     </g>
    </g>
    <g id="xtick_4">
     <g id="line2d_4">
      <g>
       <use style="stroke:#000000;stroke-width:0.8;" x="168.289077" xlink:href="#m1c167ffb4f" y="209.796117"/>
      </g>
     </g>
     <g id="text_4">
      <!-- [9 - 12) -->
      <g transform="translate(140.758316 248.229224)rotate(-45)scale(0.1 -0.1)">
       <defs>
        <path d="M 794 531 
L 1825 531 
L 1825 4091 
L 703 3866 
L 703 4441 
L 1819 4666 
L 2450 4666 
L 2450 531 
L 3481 531 
L 3481 0 
L 794 0 
L 794 531 
z
" id="DejaVuSans-31" transform="scale(0.015625)"/>
        <path d="M 1228 531 
L 3431 531 
L 3431 0 
L 469 0 
L 469 531 
Q 828 903 1448 1529 
Q 2069 2156 2228 2338 
Q 2531 2678 2651 2914 
Q 2772 3150 2772 3378 
Q 2772 3750 2511 3984 
Q 2250 4219 1831 4219 
Q 1534 4219 1204 4116 
Q 875 4013 500 3803 
L 500 4441 
Q 881 4594 1212 4672 
Q 1544 4750 1819 4750 
Q 2544 4750 2975 4387 
Q 3406 4025 3406 3419 
Q 3406 3131 3298 2873 
Q 3191 2616 2906 2266 
Q 2828 2175 2409 1742 
Q 1991 1309 1228 531 
z
" id="DejaVuSans-32" transform="scale(0.015625)"/>
       </defs>
       <use xlink:href="#DejaVuSans-5b"/>
       <use x="39.013672" xlink:href="#DejaVuSans-39"/>
       <use x="102.636719" xlink:href="#DejaVuSans-20"/>
       <use x="134.423828" xlink:href="#DejaVuSans-2d"/>
       <use x="170.507812" xlink:href="#DejaVuSans-20"/>
       <use x="202.294922" xlink:href="#DejaVuSans-31"/>
       <use x="265.917969" xlink:href="#DejaVuSans-32"/>
       <use x="329.541016" xlink:href="#DejaVuSans-29"/>
      </g>
     </g>
    </g>
    <g id="xtick_5">
     <g id="line2d_5">
      <g>
       <use style="stroke:#000000;stroke-width:0.8;" x="196.329429" xlink:href="#m1c167ffb4f" y="209.796117"/>
      </g>
     </g>
     <g id="text_5">
      <!-- [12 - 18) -->
      <g transform="translate(164.299702 252.728191)rotate(-45)scale(0.1 -0.1)">
       <defs>
        <path d="M 2034 2216 
Q 1584 2216 1326 1975 
Q 1069 1734 1069 1313 
Q 1069 891 1326 650 
Q 1584 409 2034 409 
Q 2484 409 2743 651 
Q 3003 894 3003 1313 
Q 3003 1734 2745 1975 
Q 2488 2216 2034 2216 
z
M 1403 2484 
Q 997 2584 770 2862 
Q 544 3141 544 3541 
Q 544 4100 942 4425 
Q 1341 4750 2034 4750 
Q 2731 4750 3128 4425 
Q 3525 4100 3525 3541 
Q 3525 3141 3298 2862 
Q 3072 2584 2669 2484 
Q 3125 2378 3379 2068 
Q 3634 1759 3634 1313 
Q 3634 634 3220 271 
Q 2806 -91 2034 -91 
Q 1263 -91 848 271 
Q 434 634 434 1313 
Q 434 1759 690 2068 
Q 947 2378 1403 2484 
z
M 1172 3481 
Q 1172 3119 1398 2916 
Q 1625 2713 2034 2713 
Q 2441 2713 2670 2916 
Q 2900 3119 2900 3481 
Q 2900 3844 2670 4047 
Q 2441 4250 2034 4250 
Q 1625 4250 1398 4047 
Q 1172 3844 1172 3481 
z
" id="DejaVuSans-38" transform="scale(0.015625)"/>
       </defs>
       <use xlink:href="#DejaVuSans-5b"/>
       <use x="39.013672" xlink:href="#DejaVuSans-31"/>
       <use x="102.636719" xlink:href="#DejaVuSans-32"/>
       <use x="166.259766" xlink:href="#DejaVuSans-20"/>
       <use x="198.046875" xlink:href="#DejaVuSans-2d"/>
       <use x="234.130859" xlink:href="#DejaVuSans-20"/>
       <use x="265.917969" xlink:href="#DejaVuSans-31"/>
       <use x="329.541016" xlink:href="#DejaVuSans-38"/>
       <use x="393.164062" xlink:href="#DejaVuSans-29"/>
      </g>
     </g>
    </g>
    <g id="xtick_6">
     <g id="line2d_6">
      <g>
       <use style="stroke:#000000;stroke-width:0.8;" x="224.369782" xlink:href="#m1c167ffb4f" y="209.796117"/>
      </g>
     </g>
     <g id="text_6">
      <!-- [18 - 24) -->
      <g transform="translate(192.340055 252.728191)rotate(-45)scale(0.1 -0.1)">
       <defs>
        <path d="M 2419 4116 
L 825 1625 
L 2419 1625 
L 2419 4116 
z
M 2253 4666 
L 3047 4666 
L 3047 1625 
L 3713 1625 
L 3713 1100 
L 3047 1100 
L 3047 0 
L 2419 0 
L 2419 1100 
L 313 1100 
L 313 1709 
L 2253 4666 
z
" id="DejaVuSans-34" transform="scale(0.015625)"/>
       </defs>
       <use xlink:href="#DejaVuSans-5b"/>
       <use x="39.013672" xlink:href="#DejaVuSans-31"/>
       <use x="102.636719" xlink:href="#DejaVuSans-38"/>
       <use x="166.259766" xlink:href="#DejaVuSans-20"/>
       <use x="198.046875" xlink:href="#DejaVuSans-2d"/>
       <use x="234.130859" xlink:href="#DejaVuSans-20"/>
       <use x="265.917969" xlink:href="#DejaVuSans-32"/>
       <use x="329.541016" xlink:href="#DejaVuSans-34"/>
       <use x="393.164062" xlink:href="#DejaVuSans-29"/>
      </g>
     </g>
    </g>
    <g id="xtick_7">
     <g id="line2d_7">
      <g>
       <use style="stroke:#000000;stroke-width:0.8;" x="252.410135" xlink:href="#m1c167ffb4f" y="209.796117"/>
      </g>
     </g>
     <g id="text_7">
      <!-- [24 - 36) -->
      <g transform="translate(220.380407 252.728191)rotate(-45)scale(0.1 -0.1)">
       <use xlink:href="#DejaVuSans-5b"/>
       <use x="39.013672" xlink:href="#DejaVuSans-32"/>
       <use x="102.636719" xlink:href="#DejaVuSans-34"/>
       <use x="166.259766" xlink:href="#DejaVuSans-20"/>
       <use x="198.046875" xlink:href="#DejaVuSans-2d"/>
       <use x="234.130859" xlink:href="#DejaVuSans-20"/>
       <use x="265.917969" xlink:href="#DejaVuSans-33"/>
       <use x="329.541016" xlink:href="#DejaVuSans-36"/>
       <use x="393.164062" xlink:href="#DejaVuSans-29"/>
      </g>
     </g>
    </g>
    <g id="xtick_8">
     <g id="line2d_8">
      <g>
       <use style="stroke:#000000;stroke-width:0.8;" x="280.450487" xlink:href="#m1c167ffb4f" y="209.796117"/>
      </g>
     </g>
     <g id="text_8">
      <!-- [36 - 60) -->
      <g transform="translate(248.42076 252.728191)rotate(-45)scale(0.1 -0.1)">
       <use xlink:href="#DejaVuSans-5b"/>
       <use x="39.013672" xlink:href="#DejaVuSans-33"/>
       <use x="102.636719" xlink:href="#DejaVuSans-36"/>
       <use x="166.259766" xlink:href="#DejaVuSans-20"/>
       <use x="198.046875" xlink:href="#DejaVuSans-2d"/>
       <use x="234.130859" xlink:href="#DejaVuSans-20"/>
       <use x="265.917969" xlink:href="#DejaVuSans-36"/>
       <use x="329.541016" xlink:href="#DejaVuSans-30"/>
       <use x="393.164062" xlink:href="#DejaVuSans-29"/>
      </g>
     </g>
    </g>
    <g id="xtick_9">
     <g id="line2d_9">
      <g>
       <use style="stroke:#000000;stroke-width:0.8;" x="308.49084" xlink:href="#m1c167ffb4f" y="209.796117"/>
      </g>
     </g>
     <g id="text_9">
      <!-- [60 - 120) -->
      <g transform="translate(271.962145 257.227157)rotate(-45)scale(0.1 -0.1)">
       <use xlink:href="#DejaVuSans-5b"/>
       <use x="39.013672" xlink:href="#DejaVuSans-36"/>
       <use x="102.636719" xlink:href="#DejaVuSans-30"/>
       <use x="166.259766" xlink:href="#DejaVuSans-20"/>
       <use x="198.046875" xlink:href="#DejaVuSans-2d"/>
       <use x="234.130859" xlink:href="#DejaVuSans-20"/>
       <use x="265.917969" xlink:href="#DejaVuSans-31"/>
       <use x="329.541016" xlink:href="#DejaVuSans-32"/>
       <use x="393.164062" xlink:href="#DejaVuSans-30"/>
       <use x="456.787109" xlink:href="#DejaVuSans-29"/>
      </g>
     </g>
    </g>
    <g id="xtick_10">
     <g id="line2d_10">
      <g>
       <use style="stroke:#000000;stroke-width:0.8;" x="336.531192" xlink:href="#m1c167ffb4f" y="209.796117"/>
      </g>
     </g>
     <g id="text_10">
      <!-- [120 - 240) -->
      <g transform="translate(295.503531 261.726124)rotate(-45)scale(0.1 -0.1)">
       <use xlink:href="#DejaVuSans-5b"/>
       <use x="39.013672" xlink:href="#DejaVuSans-31"/>
       <use x="102.636719" xlink:href="#DejaVuSans-32"/>
       <use x="166.259766" xlink:href="#DejaVuSans-30"/>
       <use x="229.882812" xlink:href="#DejaVuSans-20"/>
       <use x="261.669922" xlink:href="#DejaVuSans-2d"/>
       <use x="297.753906" xlink:href="#DejaVuSans-20"/>
       <use x="329.541016" xlink:href="#DejaVuSans-32"/>
       <use x="393.164062" xlink:href="#DejaVuSans-34"/>
       <use x="456.787109" xlink:href="#DejaVuSans-30"/>
       <use x="520.410156" xlink:href="#DejaVuSans-29"/>
      </g>
     </g>
    </g>
    <g id="text_11">
     <!-- Monate -->
     <g transform="translate(183.294531 274.795123)scale(0.1 -0.1)">
      <defs>
       <path d="M 628 4666 
L 1569 4666 
L 2759 1491 
L 3956 4666 
L 4897 4666 
L 4897 0 
L 4281 0 
L 4281 4097 
L 3078 897 
L 2444 897 
L 1241 4097 
L 1241 0 
L 628 0 
L 628 4666 
z
" id="DejaVuSans-4d" transform="scale(0.015625)"/>
       <path d="M 1959 3097 
Q 1497 3097 1228 2736 
Q 959 2375 959 1747 
Q 959 1119 1226 758 
Q 1494 397 1959 397 
Q 2419 397 2687 759 
Q 2956 1122 2956 1747 
Q 2956 2369 2687 2733 
Q 2419 3097 1959 3097 
z
M 1959 3584 
Q 2709 3584 3137 3096 
Q 3566 2609 3566 1747 
Q 3566 888 3137 398 
Q 2709 -91 1959 -91 
Q 1206 -91 779 398 
Q 353 888 353 1747 
Q 353 2609 779 3096 
Q 1206 3584 1959 3584 
z
" id="DejaVuSans-6f" transform="scale(0.015625)"/>
       <path d="M 3513 2113 
L 3513 0 
L 2938 0 
L 2938 2094 
Q 2938 2591 2744 2837 
Q 2550 3084 2163 3084 
Q 1697 3084 1428 2787 
Q 1159 2491 1159 1978 
L 1159 0 
L 581 0 
L 581 3500 
L 1159 3500 
L 1159 2956 
Q 1366 3272 1645 3428 
Q 1925 3584 2291 3584 
Q 2894 3584 3203 3211 
Q 3513 2838 3513 2113 
z
" id="DejaVuSans-6e" transform="scale(0.015625)"/>
       <path d="M 2194 1759 
Q 1497 1759 1228 1600 
Q 959 1441 959 1056 
Q 959 750 1161 570 
Q 1363 391 1709 391 
Q 2188 391 2477 730 
Q 2766 1069 2766 1631 
L 2766 1759 
L 2194 1759 
z
M 3341 1997 
L 3341 0 
L 2766 0 
L 2766 531 
Q 2569 213 2275 61 
Q 1981 -91 1556 -91 
Q 1019 -91 701 211 
Q 384 513 384 1019 
Q 384 1609 779 1909 
Q 1175 2209 1959 2209 
L 2766 2209 
L 2766 2266 
Q 2766 2663 2505 2880 
Q 2244 3097 1772 3097 
Q 1472 3097 1187 3025 
Q 903 2953 641 2809 
L 641 3341 
Q 956 3463 1253 3523 
Q 1550 3584 1831 3584 
Q 2591 3584 2966 3190 
Q 3341 2797 3341 1997 
z
" id="DejaVuSans-61" transform="scale(0.015625)"/>
       <path d="M 1172 4494 
L 1172 3500 
L 2356 3500 
L 2356 3053 
L 1172 3053 
L 1172 1153 
Q 1172 725 1289 603 
Q 1406 481 1766 481 
L 2356 481 
L 2356 0 
L 1766 0 
Q 1100 0 847 248 
Q 594 497 594 1153 
L 594 3053 
L 172 3053 
L 172 3500 
L 594 3500 
L 594 4494 
L 1172 4494 
z
" id="DejaVuSans-74" transform="scale(0.015625)"/>
       <path d="M 3597 1894 
L 3597 1613 
L 953 1613 
Q 991 1019 1311 708 
Q 1631 397 2203 397 
Q 2534 397 2845 478 
Q 3156 559 3463 722 
L 3463 178 
Q 3153 47 2828 -22 
Q 2503 -91 2169 -91 
Q 1331 -91 842 396 
Q 353 884 353 1716 
Q 353 2575 817 3079 
Q 1281 3584 2069 3584 
Q 2775 3584 3186 3129 
Q 3597 2675 3597 1894 
z
M 3022 2063 
Q 3016 2534 2758 2815 
Q 2500 3097 2075 3097 
Q 1594 3097 1305 2825 
Q 1016 2553 972 2059 
L 3022 2063 
z
" id="DejaVuSans-65" transform="scale(0.015625)"/>
      </defs>
      <use xlink:href="#DejaVuSans-4d"/>
      <use x="86.279297" xlink:href="#DejaVuSans-6f"/>
      <use x="147.460938" xlink:href="#DejaVuSans-6e"/>
      <use x="210.839844" xlink:href="#DejaVuSans-61"/>
      <use x="272.119141" xlink:href="#DejaVuSans-74"/>
      <use x="311.328125" xlink:href="#DejaVuSans-65"/>
     </g>
    </g>
   </g>
   <g id="matplotlib.axis_2">
    <g id="ytick_1">
     <g id="line2d_11">
      <defs>
       <path d="M 0 0 
L -3.5 0 
" id="m0faf5660e7" style="stroke:#000000;stroke-width:0.8;"/>
      </defs>
      <g>
       <use style="stroke:#000000;stroke-width:0.8;" x="50.8" xlink:href="#m0faf5660e7" y="209.796117"/>
      </g>
     </g>
     <g id="text_12">
      <!-- 0 -->
      <g transform="translate(37.4375 213.595336)scale(0.1 -0.1)">
       <use xlink:href="#DejaVuSans-30"/>
      </g>
     </g>
    </g>
    <g id="ytick_2">
     <g id="line2d_12">
      <g>
       <use style="stroke:#000000;stroke-width:0.8;" x="50.8" xlink:href="#m0faf5660e7" y="186.712407"/>
      </g>
     </g>
     <g id="text_13">
      <!-- 20 -->
      <g transform="translate(31.075 190.511625)scale(0.1 -0.1)">
       <use xlink:href="#DejaVuSans-32"/>
       <use x="63.623047" xlink:href="#DejaVuSans-30"/>
      </g>
     </g>
    </g>
    <g id="ytick_3">
     <g id="line2d_13">
      <g>
       <use style="stroke:#000000;stroke-width:0.8;" x="50.8" xlink:href="#m0faf5660e7" y="163.628696"/>
      </g>
     </g>
     <g id="text_14">
      <!-- 40 -->
      <g transform="translate(31.075 167.427915)scale(0.1 -0.1)">
       <use xlink:href="#DejaVuSans-34"/>
       <use x="63.623047" xlink:href="#DejaVuSans-30"/>
      </g>
     </g>
    </g>
    <g id="ytick_4">
     <g id="line2d_14">
      <g>
       <use style="stroke:#000000;stroke-width:0.8;" x="50.8" xlink:href="#m0faf5660e7" y="140.544985"/>
      </g>
     </g>
     <g id="text_15">
      <!-- 60 -->
      <g transform="translate(31.075 144.344204)scale(0.1 -0.1)">
       <use xlink:href="#DejaVuSans-36"/>
       <use x="63.623047" xlink:href="#DejaVuSans-30"/>
      </g>
     </g>
    </g>
    <g id="ytick_5">
     <g id="line2d_15">
      <g>
       <use style="stroke:#000000;stroke-width:0.8;" x="50.8" xlink:href="#m0faf5660e7" y="117.461274"/>
      </g>
     </g>
     <g id="text_16">
      <!-- 80 -->
      <g transform="translate(31.075 121.260493)scale(0.1 -0.1)">
       <use xlink:href="#DejaVuSans-38"/>
       <use x="63.623047" xlink:href="#DejaVuSans-30"/>
      </g>
     </g>
    </g>
    <g id="ytick_6">
     <g id="line2d_16">
      <g>
       <use style="stroke:#000000;stroke-width:0.8;" x="50.8" xlink:href="#m0faf5660e7" y="94.377563"/>
      </g>
     </g>
     <g id="text_17">
      <!-- 100 -->
      <g transform="translate(24.7125 98.176782)scale(0.1 -0.1)">
       <use xlink:href="#DejaVuSans-31"/>
       <use x="63.623047" xlink:href="#DejaVuSans-30"/>
       <use x="127.246094" xlink:href="#DejaVuSans-30"/>
      </g>
     </g>
    </g>
    <g id="ytick_7">
     <g id="line2d_17">
      <g>
       <use style="stroke:#000000;stroke-width:0.8;" x="50.8" xlink:href="#m0faf5660e7" y="71.293853"/>
      </g>
     </g>
     <g id="text_18">
      <!-- 120 -->
      <g transform="translate(24.7125 75.093071)scale(0.1 -0.1)">
       <use xlink:href="#DejaVuSans-31"/>
       <use x="63.623047" xlink:href="#DejaVuSans-32"/>
       <use x="127.246094" xlink:href="#DejaVuSans-30"/>
      </g>
     </g>
    </g>
    <g id="ytick_8">
     <g id="line2d_18">
      <g>
       <use style="stroke:#000000;stroke-width:0.8;" x="50.8" xlink:href="#m0faf5660e7" y="48.210142"/>
      </g>
     </g>
     <g id="text_19">
      <!-- 140 -->
      <g transform="translate(24.7125 52.009361)scale(0.1 -0.1)">
       <use xlink:href="#DejaVuSans-31"/>
       <use x="63.623047" xlink:href="#DejaVuSans-34"/>
       <use x="127.246094" xlink:href="#DejaVuSans-30"/>
      </g>
     </g>
    </g>
    <g id="text_20">
     <!-- Anzahl -->
     <g transform="translate(18.632812 135.133215)rotate(-90)scale(0.1 -0.1)">
      <defs>
       <path d="M 2188 4044 
L 1331 1722 
L 3047 1722 
L 2188 4044 
z
M 1831 4666 
L 2547 4666 
L 4325 0 
L 3669 0 
L 3244 1197 
L 1141 1197 
L 716 0 
L 50 0 
L 1831 4666 
z
" id="DejaVuSans-41" transform="scale(0.015625)"/>
       <path d="M 353 3500 
L 3084 3500 
L 3084 2975 
L 922 459 
L 3084 459 
L 3084 0 
L 275 0 
L 275 525 
L 2438 3041 
L 353 3041 
L 353 3500 
z
" id="DejaVuSans-7a" transform="scale(0.015625)"/>
       <path d="M 3513 2113 
L 3513 0 
L 2938 0 
L 2938 2094 
Q 2938 2591 2744 2837 
Q 2550 3084 2163 3084 
Q 1697 3084 1428 2787 
Q 1159 2491 1159 1978 
L 1159 0 
L 581 0 
L 581 4863 
L 1159 4863 
L 1159 2956 
Q 1366 3272 1645 3428 
Q 1925 3584 2291 3584 
Q 2894 3584 3203 3211 
Q 3513 2838 3513 2113 
z
" id="DejaVuSans-68" transform="scale(0.015625)"/>
       <path d="M 603 4863 
L 1178 4863 
L 1178 0 
L 603 0 
L 603 4863 
z
" id="DejaVuSans-6c" transform="scale(0.015625)"/>
      </defs>
      <use xlink:href="#DejaVuSans-41"/>
      <use x="68.408203" xlink:href="#DejaVuSans-6e"/>
      <use x="131.787109" xlink:href="#DejaVuSans-7a"/>
      <use x="184.277344" xlink:href="#DejaVuSans-61"/>
      <use x="245.556641" xlink:href="#DejaVuSans-68"/>
      <use x="308.935547" xlink:href="#DejaVuSans-6c"/>
     </g>
    </g>
   </g>
   <g id="patch_133">
    <path d="M 50.8 209.796117 
L 50.8 26.8 
" style="fill:none;stroke:#000000;stroke-linecap:square;stroke-linejoin:miter;stroke-width:0.8;"/>
   </g>
   <g id="patch_134">
    <path d="M 353.075 209.796117 
L 353.075 26.8 
" style="fill:none;stroke:#000000;stroke-linecap:square;stroke-linejoin:miter;stroke-width:0.8;"/>
   </g>
   <g id="patch_135">
    <path d="M 50.8 209.796117 
L 353.075 209.796117 
" style="fill:none;stroke:#000000;stroke-linecap:square;stroke-linejoin:miter;stroke-width:0.8;"/>
   </g>
   <g id="patch_136">
    <path d="M 50.8 26.8 
L 353.075 26.8 
" style="fill:none;stroke:#000000;stroke-linecap:square;stroke-linejoin:miter;stroke-width:0.8;"/>
   </g>
   <g id="text_21">
    <!-- Vernehmlassungsende bis Gesetz -->
    <g transform="translate(100.898438 20.8)scale(0.12 -0.12)">
     <defs>
      <path d="M 1831 0 
L 50 4666 
L 709 4666 
L 2188 738 
L 3669 4666 
L 4325 4666 
L 2547 0 
L 1831 0 
z
" id="DejaVuSans-56" transform="scale(0.015625)"/>
      <path d="M 2631 2963 
Q 2534 3019 2420 3045 
Q 2306 3072 2169 3072 
Q 1681 3072 1420 2755 
Q 1159 2438 1159 1844 
L 1159 0 
L 581 0 
L 581 3500 
L 1159 3500 
L 1159 2956 
Q 1341 3275 1631 3429 
Q 1922 3584 2338 3584 
Q 2397 3584 2469 3576 
Q 2541 3569 2628 3553 
L 2631 2963 
z
" id="DejaVuSans-72" transform="scale(0.015625)"/>
      <path d="M 3328 2828 
Q 3544 3216 3844 3400 
Q 4144 3584 4550 3584 
Q 5097 3584 5394 3201 
Q 5691 2819 5691 2113 
L 5691 0 
L 5113 0 
L 5113 2094 
Q 5113 2597 4934 2840 
Q 4756 3084 4391 3084 
Q 3944 3084 3684 2787 
Q 3425 2491 3425 1978 
L 3425 0 
L 2847 0 
L 2847 2094 
Q 2847 2600 2669 2842 
Q 2491 3084 2119 3084 
Q 1678 3084 1418 2786 
Q 1159 2488 1159 1978 
L 1159 0 
L 581 0 
L 581 3500 
L 1159 3500 
L 1159 2956 
Q 1356 3278 1631 3431 
Q 1906 3584 2284 3584 
Q 2666 3584 2933 3390 
Q 3200 3197 3328 2828 
z
" id="DejaVuSans-6d" transform="scale(0.015625)"/>
      <path d="M 2834 3397 
L 2834 2853 
Q 2591 2978 2328 3040 
Q 2066 3103 1784 3103 
Q 1356 3103 1142 2972 
Q 928 2841 928 2578 
Q 928 2378 1081 2264 
Q 1234 2150 1697 2047 
L 1894 2003 
Q 2506 1872 2764 1633 
Q 3022 1394 3022 966 
Q 3022 478 2636 193 
Q 2250 -91 1575 -91 
Q 1294 -91 989 -36 
Q 684 19 347 128 
L 347 722 
Q 666 556 975 473 
Q 1284 391 1588 391 
Q 1994 391 2212 530 
Q 2431 669 2431 922 
Q 2431 1156 2273 1281 
Q 2116 1406 1581 1522 
L 1381 1569 
Q 847 1681 609 1914 
Q 372 2147 372 2553 
Q 372 3047 722 3315 
Q 1072 3584 1716 3584 
Q 2034 3584 2315 3537 
Q 2597 3491 2834 3397 
z
" id="DejaVuSans-73" transform="scale(0.015625)"/>
      <path d="M 544 1381 
L 544 3500 
L 1119 3500 
L 1119 1403 
Q 1119 906 1312 657 
Q 1506 409 1894 409 
Q 2359 409 2629 706 
Q 2900 1003 2900 1516 
L 2900 3500 
L 3475 3500 
L 3475 0 
L 2900 0 
L 2900 538 
Q 2691 219 2414 64 
Q 2138 -91 1772 -91 
Q 1169 -91 856 284 
Q 544 659 544 1381 
z
M 1991 3584 
L 1991 3584 
z
" id="DejaVuSans-75" transform="scale(0.015625)"/>
      <path d="M 2906 1791 
Q 2906 2416 2648 2759 
Q 2391 3103 1925 3103 
Q 1463 3103 1205 2759 
Q 947 2416 947 1791 
Q 947 1169 1205 825 
Q 1463 481 1925 481 
Q 2391 481 2648 825 
Q 2906 1169 2906 1791 
z
M 3481 434 
Q 3481 -459 3084 -895 
Q 2688 -1331 1869 -1331 
Q 1566 -1331 1297 -1286 
Q 1028 -1241 775 -1147 
L 775 -588 
Q 1028 -725 1275 -790 
Q 1522 -856 1778 -856 
Q 2344 -856 2625 -561 
Q 2906 -266 2906 331 
L 2906 616 
Q 2728 306 2450 153 
Q 2172 0 1784 0 
Q 1141 0 747 490 
Q 353 981 353 1791 
Q 353 2603 747 3093 
Q 1141 3584 1784 3584 
Q 2172 3584 2450 3431 
Q 2728 3278 2906 2969 
L 2906 3500 
L 3481 3500 
L 3481 434 
z
" id="DejaVuSans-67" transform="scale(0.015625)"/>
      <path d="M 2906 2969 
L 2906 4863 
L 3481 4863 
L 3481 0 
L 2906 0 
L 2906 525 
Q 2725 213 2448 61 
Q 2172 -91 1784 -91 
Q 1150 -91 751 415 
Q 353 922 353 1747 
Q 353 2572 751 3078 
Q 1150 3584 1784 3584 
Q 2172 3584 2448 3432 
Q 2725 3281 2906 2969 
z
M 947 1747 
Q 947 1113 1208 752 
Q 1469 391 1925 391 
Q 2381 391 2643 752 
Q 2906 1113 2906 1747 
Q 2906 2381 2643 2742 
Q 2381 3103 1925 3103 
Q 1469 3103 1208 2742 
Q 947 2381 947 1747 
z
" id="DejaVuSans-64" transform="scale(0.015625)"/>
      <path d="M 3116 1747 
Q 3116 2381 2855 2742 
Q 2594 3103 2138 3103 
Q 1681 3103 1420 2742 
Q 1159 2381 1159 1747 
Q 1159 1113 1420 752 
Q 1681 391 2138 391 
Q 2594 391 2855 752 
Q 3116 1113 3116 1747 
z
M 1159 2969 
Q 1341 3281 1617 3432 
Q 1894 3584 2278 3584 
Q 2916 3584 3314 3078 
Q 3713 2572 3713 1747 
Q 3713 922 3314 415 
Q 2916 -91 2278 -91 
Q 1894 -91 1617 61 
Q 1341 213 1159 525 
L 1159 0 
L 581 0 
L 581 4863 
L 1159 4863 
L 1159 2969 
z
" id="DejaVuSans-62" transform="scale(0.015625)"/>
      <path d="M 603 3500 
L 1178 3500 
L 1178 0 
L 603 0 
L 603 3500 
z
M 603 4863 
L 1178 4863 
L 1178 4134 
L 603 4134 
L 603 4863 
z
" id="DejaVuSans-69" transform="scale(0.015625)"/>
      <path d="M 3809 666 
L 3809 1919 
L 2778 1919 
L 2778 2438 
L 4434 2438 
L 4434 434 
Q 4069 175 3628 42 
Q 3188 -91 2688 -91 
Q 1594 -91 976 548 
Q 359 1188 359 2328 
Q 359 3472 976 4111 
Q 1594 4750 2688 4750 
Q 3144 4750 3555 4637 
Q 3966 4525 4313 4306 
L 4313 3634 
Q 3963 3931 3569 4081 
Q 3175 4231 2741 4231 
Q 1884 4231 1454 3753 
Q 1025 3275 1025 2328 
Q 1025 1384 1454 906 
Q 1884 428 2741 428 
Q 3075 428 3337 486 
Q 3600 544 3809 666 
z
" id="DejaVuSans-47" transform="scale(0.015625)"/>
     </defs>
     <use xlink:href="#DejaVuSans-56"/>
     <use x="60.658203" xlink:href="#DejaVuSans-65"/>
     <use x="122.181641" xlink:href="#DejaVuSans-72"/>
     <use x="161.544922" xlink:href="#DejaVuSans-6e"/>
     <use x="224.923828" xlink:href="#DejaVuSans-65"/>
     <use x="286.447266" xlink:href="#DejaVuSans-68"/>
     <use x="349.826172" xlink:href="#DejaVuSans-6d"/>
     <use x="447.238281" xlink:href="#DejaVuSans-6c"/>
     <use x="475.021484" xlink:href="#DejaVuSans-61"/>
     <use x="536.300781" xlink:href="#DejaVuSans-73"/>
     <use x="588.400391" xlink:href="#DejaVuSans-73"/>
     <use x="640.5" xlink:href="#DejaVuSans-75"/>
     <use x="703.878906" xlink:href="#DejaVuSans-6e"/>
     <use x="767.257812" xlink:href="#DejaVuSans-67"/>
     <use x="830.734375" xlink:href="#DejaVuSans-73"/>
     <use x="882.833984" xlink:href="#DejaVuSans-65"/>
     <use x="944.357422" xlink:href="#DejaVuSans-6e"/>
     <use x="1007.736328" xlink:href="#DejaVuSans-64"/>
     <use x="1071.212891" xlink:href="#DejaVuSans-65"/>
     <use x="1132.736328" xlink:href="#DejaVuSans-20"/>
     <use x="1164.523438" xlink:href="#DejaVuSans-62"/>
     <use x="1228" xlink:href="#DejaVuSans-69"/>
     <use x="1255.783203" xlink:href="#DejaVuSans-73"/>
     <use x="1307.882812" xlink:href="#DejaVuSans-20"/>
     <use x="1339.669922" xlink:href="#DejaVuSans-47"/>
     <use x="1417.160156" xlink:href="#DejaVuSans-65"/>
     <use x="1478.683594" xlink:href="#DejaVuSans-73"/>
     <use x="1530.783203" xlink:href="#DejaVuSans-65"/>
     <use x="1592.306641" xlink:href="#DejaVuSans-74"/>
     <use x="1631.515625" xlink:href="#DejaVuSans-7a"/>
    </g>
   </g>
   <g id="legend_1">
    <g id="patch_137">
     <path d="M 360.075 215.205871 
L 419.253125 215.205871 
Q 421.253125 215.205871 421.253125 213.205871 
L 421.253125 23.390246 
Q 421.253125 21.390246 419.253125 21.390246 
L 360.075 21.390246 
Q 358.075 21.390246 358.075 23.390246 
L 358.075 213.205871 
Q 358.075 215.205871 360.075 215.205871 
z
" style="fill:#ffffff;opacity:0.8;stroke:#cccccc;stroke-linejoin:miter;"/>
    </g>
    <g id="patch_138">
     <path d="M 362.075 32.988684 
L 382.075 32.988684 
L 382.075 25.988684 
L 362.075 25.988684 
z
" style="fill:#ababab;"/>
    </g>
    <g id="text_22">
     <!-- BK -->
     <g transform="translate(390.075 32.988684)scale(0.1 -0.1)">
      <defs>
       <path d="M 1259 2228 
L 1259 519 
L 2272 519 
Q 2781 519 3026 730 
Q 3272 941 3272 1375 
Q 3272 1813 3026 2020 
Q 2781 2228 2272 2228 
L 1259 2228 
z
M 1259 4147 
L 1259 2741 
L 2194 2741 
Q 2656 2741 2882 2914 
Q 3109 3088 3109 3444 
Q 3109 3797 2882 3972 
Q 2656 4147 2194 4147 
L 1259 4147 
z
M 628 4666 
L 2241 4666 
Q 2963 4666 3353 4366 
Q 3744 4066 3744 3513 
Q 3744 3084 3544 2831 
Q 3344 2578 2956 2516 
Q 3422 2416 3680 2098 
Q 3938 1781 3938 1306 
Q 3938 681 3513 340 
Q 3088 0 2303 0 
L 628 0 
L 628 4666 
z
" id="DejaVuSans-42" transform="scale(0.015625)"/>
       <path d="M 628 4666 
L 1259 4666 
L 1259 2694 
L 3353 4666 
L 4166 4666 
L 1850 2491 
L 4331 0 
L 3500 0 
L 1259 2247 
L 1259 0 
L 628 0 
L 628 4666 
z
" id="DejaVuSans-4b" transform="scale(0.015625)"/>
      </defs>
      <use xlink:href="#DejaVuSans-42"/>
      <use x="68.603516" xlink:href="#DejaVuSans-4b"/>
     </g>
    </g>
    <g id="patch_139">
     <path d="M 362.075 47.666809 
L 382.075 47.666809 
L 382.075 40.666809 
L 362.075 40.666809 
z
" style="fill:#ff800e;"/>
    </g>
    <g id="text_23">
     <!-- EDA -->
     <g transform="translate(390.075 47.666809)scale(0.1 -0.1)">
      <defs>
       <path d="M 628 4666 
L 3578 4666 
L 3578 4134 
L 1259 4134 
L 1259 2753 
L 3481 2753 
L 3481 2222 
L 1259 2222 
L 1259 531 
L 3634 531 
L 3634 0 
L 628 0 
L 628 4666 
z
" id="DejaVuSans-45" transform="scale(0.015625)"/>
       <path d="M 1259 4147 
L 1259 519 
L 2022 519 
Q 2988 519 3436 956 
Q 3884 1394 3884 2338 
Q 3884 3275 3436 3711 
Q 2988 4147 2022 4147 
L 1259 4147 
z
M 628 4666 
L 1925 4666 
Q 3281 4666 3915 4102 
Q 4550 3538 4550 2338 
Q 4550 1131 3912 565 
Q 3275 0 1925 0 
L 628 0 
L 628 4666 
z
" id="DejaVuSans-44" transform="scale(0.015625)"/>
      </defs>
      <use xlink:href="#DejaVuSans-45"/>
      <use x="63.183594" xlink:href="#DejaVuSans-44"/>
      <use x="138.435547" xlink:href="#DejaVuSans-41"/>
     </g>
    </g>
    <g id="patch_140">
     <path d="M 362.075 62.344934 
L 382.075 62.344934 
L 382.075 55.344934 
L 362.075 55.344934 
z
" style="fill:#006ba4;"/>
    </g>
    <g id="text_24">
     <!-- EDI -->
     <g transform="translate(390.075 62.344934)scale(0.1 -0.1)">
      <defs>
       <path d="M 628 4666 
L 1259 4666 
L 1259 0 
L 628 0 
L 628 4666 
z
" id="DejaVuSans-49" transform="scale(0.015625)"/>
      </defs>
      <use xlink:href="#DejaVuSans-45"/>
      <use x="63.183594" xlink:href="#DejaVuSans-44"/>
      <use x="140.185547" xlink:href="#DejaVuSans-49"/>
     </g>
    </g>
    <g id="patch_141">
     <path d="M 362.075 77.023059 
L 382.075 77.023059 
L 382.075 70.023059 
L 362.075 70.023059 
z
" style="fill:#cfcfcf;"/>
    </g>
    <g id="text_25">
     <!-- EFD -->
     <g transform="translate(390.075 77.023059)scale(0.1 -0.1)">
      <defs>
       <path d="M 628 4666 
L 3309 4666 
L 3309 4134 
L 1259 4134 
L 1259 2759 
L 3109 2759 
L 3109 2228 
L 1259 2228 
L 1259 0 
L 628 0 
L 628 4666 
z
" id="DejaVuSans-46" transform="scale(0.015625)"/>
      </defs>
      <use xlink:href="#DejaVuSans-45"/>
      <use x="63.183594" xlink:href="#DejaVuSans-46"/>
      <use x="120.703125" xlink:href="#DejaVuSans-44"/>
     </g>
    </g>
    <g id="patch_142">
     <path d="M 362.075 91.701184 
L 382.075 91.701184 
L 382.075 84.701184 
L 362.075 84.701184 
z
" style="fill:#ffbc79;"/>
    </g>
    <g id="text_26">
     <!-- EJPD -->
     <g transform="translate(390.075 91.701184)scale(0.1 -0.1)">
      <defs>
       <path d="M 628 4666 
L 1259 4666 
L 1259 325 
Q 1259 -519 939 -900 
Q 619 -1281 -91 -1281 
L -331 -1281 
L -331 -750 
L -134 -750 
Q 284 -750 456 -515 
Q 628 -281 628 325 
L 628 4666 
z
" id="DejaVuSans-4a" transform="scale(0.015625)"/>
       <path d="M 1259 4147 
L 1259 2394 
L 2053 2394 
Q 2494 2394 2734 2622 
Q 2975 2850 2975 3272 
Q 2975 3691 2734 3919 
Q 2494 4147 2053 4147 
L 1259 4147 
z
M 628 4666 
L 2053 4666 
Q 2838 4666 3239 4311 
Q 3641 3956 3641 3272 
Q 3641 2581 3239 2228 
Q 2838 1875 2053 1875 
L 1259 1875 
L 1259 0 
L 628 0 
L 628 4666 
z
" id="DejaVuSans-50" transform="scale(0.015625)"/>
      </defs>
      <use xlink:href="#DejaVuSans-45"/>
      <use x="63.183594" xlink:href="#DejaVuSans-4a"/>
      <use x="92.675781" xlink:href="#DejaVuSans-50"/>
      <use x="152.978516" xlink:href="#DejaVuSans-44"/>
     </g>
    </g>
    <g id="patch_143">
     <path d="M 362.075 106.379309 
L 382.075 106.379309 
L 382.075 99.379309 
L 362.075 99.379309 
z
" style="fill:#a2c8ec;"/>
    </g>
    <g id="text_27">
     <!-- EMD -->
     <g transform="translate(390.075 106.379309)scale(0.1 -0.1)">
      <use xlink:href="#DejaVuSans-45"/>
      <use x="63.183594" xlink:href="#DejaVuSans-4d"/>
      <use x="149.462891" xlink:href="#DejaVuSans-44"/>
     </g>
    </g>
    <g id="patch_144">
     <path d="M 362.075 121.057434 
L 382.075 121.057434 
L 382.075 114.057434 
L 362.075 114.057434 
z
" style="fill:#898989;"/>
    </g>
    <g id="text_28">
     <!-- EVD -->
     <g transform="translate(390.075 121.057434)scale(0.1 -0.1)">
      <use xlink:href="#DejaVuSans-45"/>
      <use x="63.183594" xlink:href="#DejaVuSans-56"/>
      <use x="131.591797" xlink:href="#DejaVuSans-44"/>
     </g>
    </g>
    <g id="patch_145">
     <path d="M 362.075 135.735559 
L 382.075 135.735559 
L 382.075 128.735559 
L 362.075 128.735559 
z
" style="fill:#c85200;"/>
    </g>
    <g id="text_29">
     <!-- EVED -->
     <g transform="translate(390.075 135.735559)scale(0.1 -0.1)">
      <use xlink:href="#DejaVuSans-45"/>
      <use x="63.183594" xlink:href="#DejaVuSans-56"/>
      <use x="131.591797" xlink:href="#DejaVuSans-45"/>
      <use x="194.775391" xlink:href="#DejaVuSans-44"/>
     </g>
    </g>
    <g id="patch_146">
     <path d="M 362.075 150.413684 
L 382.075 150.413684 
L 382.075 143.413684 
L 362.075 143.413684 
z
" style="fill:#5f9ed1;"/>
    </g>
    <g id="text_30">
     <!-- Parl. -->
     <g transform="translate(390.075 150.413684)scale(0.1 -0.1)">
      <defs>
       <path d="M 684 794 
L 1344 794 
L 1344 0 
L 684 0 
L 684 794 
z
" id="DejaVuSans-2e" transform="scale(0.015625)"/>
      </defs>
      <use xlink:href="#DejaVuSans-50"/>
      <use x="55.802734" xlink:href="#DejaVuSans-61"/>
      <use x="117.082031" xlink:href="#DejaVuSans-72"/>
      <use x="158.195312" xlink:href="#DejaVuSans-6c"/>
      <use x="185.978516" xlink:href="#DejaVuSans-2e"/>
     </g>
    </g>
    <g id="patch_147">
     <path d="M 362.075 165.091809 
L 382.075 165.091809 
L 382.075 158.091809 
L 362.075 158.091809 
z
" style="fill:#595959;"/>
    </g>
    <g id="text_31">
     <!-- UVEK -->
     <g transform="translate(390.075 165.091809)scale(0.1 -0.1)">
      <defs>
       <path d="M 556 4666 
L 1191 4666 
L 1191 1831 
Q 1191 1081 1462 751 
Q 1734 422 2344 422 
Q 2950 422 3222 751 
Q 3494 1081 3494 1831 
L 3494 4666 
L 4128 4666 
L 4128 1753 
Q 4128 841 3676 375 
Q 3225 -91 2344 -91 
Q 1459 -91 1007 375 
Q 556 841 556 1753 
L 556 4666 
z
" id="DejaVuSans-55" transform="scale(0.015625)"/>
      </defs>
      <use xlink:href="#DejaVuSans-55"/>
      <use x="73.193359" xlink:href="#DejaVuSans-56"/>
      <use x="141.601562" xlink:href="#DejaVuSans-45"/>
      <use x="204.785156" xlink:href="#DejaVuSans-4b"/>
     </g>
    </g>
    <g id="patch_148">
     <path d="M 362.075 179.769934 
L 382.075 179.769934 
L 382.075 172.769934 
L 362.075 172.769934 
z
" style="fill:#ababab;"/>
    </g>
    <g id="text_32">
     <!-- VBS -->
     <g transform="translate(390.075 179.769934)scale(0.1 -0.1)">
      <defs>
       <path d="M 3425 4513 
L 3425 3897 
Q 3066 4069 2747 4153 
Q 2428 4238 2131 4238 
Q 1616 4238 1336 4038 
Q 1056 3838 1056 3469 
Q 1056 3159 1242 3001 
Q 1428 2844 1947 2747 
L 2328 2669 
Q 3034 2534 3370 2195 
Q 3706 1856 3706 1288 
Q 3706 609 3251 259 
Q 2797 -91 1919 -91 
Q 1588 -91 1214 -16 
Q 841 59 441 206 
L 441 856 
Q 825 641 1194 531 
Q 1563 422 1919 422 
Q 2459 422 2753 634 
Q 3047 847 3047 1241 
Q 3047 1584 2836 1778 
Q 2625 1972 2144 2069 
L 1759 2144 
Q 1053 2284 737 2584 
Q 422 2884 422 3419 
Q 422 4038 858 4394 
Q 1294 4750 2059 4750 
Q 2388 4750 2728 4690 
Q 3069 4631 3425 4513 
z
" id="DejaVuSans-53" transform="scale(0.015625)"/>
      </defs>
      <use xlink:href="#DejaVuSans-56"/>
      <use x="68.408203" xlink:href="#DejaVuSans-42"/>
      <use x="135.261719" xlink:href="#DejaVuSans-53"/>
     </g>
    </g>
    <g id="patch_149">
     <path d="M 362.075 194.448059 
L 382.075 194.448059 
L 382.075 187.448059 
L 362.075 187.448059 
z
" style="fill:#ff800e;"/>
    </g>
    <g id="text_33">
     <!-- WBF -->
     <g transform="translate(390.075 194.448059)scale(0.1 -0.1)">
      <defs>
       <path d="M 213 4666 
L 850 4666 
L 1831 722 
L 2809 4666 
L 3519 4666 
L 4500 722 
L 5478 4666 
L 6119 4666 
L 4947 0 
L 4153 0 
L 3169 4050 
L 2175 0 
L 1381 0 
L 213 4666 
z
" id="DejaVuSans-57" transform="scale(0.015625)"/>
      </defs>
      <use xlink:href="#DejaVuSans-57"/>
      <use x="98.876953" xlink:href="#DejaVuSans-42"/>
      <use x="167.480469" xlink:href="#DejaVuSans-46"/>
     </g>
    </g>
    <g id="patch_150">
     <path d="M 362.075 209.126184 
L 382.075 209.126184 
L 382.075 202.126184 
L 362.075 202.126184 
z
" style="fill:#006ba4;"/>
    </g>
    <g id="text_34">
     <!-- other -->
     <g transform="translate(390.075 209.126184)scale(0.1 -0.1)">
      <use xlink:href="#DejaVuSans-6f"/>
      <use x="61.181641" xlink:href="#DejaVuSans-74"/>
      <use x="100.390625" xlink:href="#DejaVuSans-68"/>
      <use x="163.769531" xlink:href="#DejaVuSans-65"/>
      <use x="225.292969" xlink:href="#DejaVuSans-72"/>
     </g>
    </g>
   </g>
  </g>
 </g>
 <defs>
  <clipPath id="pe759e8828a">
   <rect height="182.996117" width="302.275" x="50.8" y="26.8"/>
  </clipPath>
 </defs>
</svg>
